<svg width="192" height="41" viewBox="0 0 192 41" fill="none" xmlns="http://www.w3.org/2000/svg">
<g clip-path="url(#clip0_2260_305480)">
<path d="M51.8699 18.4794C48.2276 18.4794 46.6084 15.2727 46.6084 11.3218C46.6084 7.3708 48.2375 4.16064 51.8699 4.16064C55.5023 4.16064 57.1148 7.40961 57.1148 11.3182C57.1148 15.2269 55.5056 18.4794 51.8699 18.4794ZM51.8699 5.28597C49.1878 5.28597 48.2276 8.41499 48.2276 11.283C48.2276 14.1509 49.1017 17.2129 51.8699 17.2129C54.6381 17.2129 55.489 14.1051 55.489 11.2794C55.489 8.45379 54.5553 5.28597 51.8699 5.28597Z" fill="#003E57"/>
<path d="M61.635 8.39389V18.2396H60.1648V8.39389H58.6582V7.43084H60.1648V5.8681C60.1648 3.9032 61.2542 2.47803 63.3998 2.47803C63.5555 2.47803 63.7475 2.49919 63.7475 2.49919V3.50105H63.5753C62.5522 3.50105 61.635 4.20658 61.635 5.68466V7.44849H63.7475V8.39389H61.635Z" fill="#003E57"/>
<path d="M67.7112 8.39389V18.2396H66.241V8.39389H64.7344V7.43084H66.241V5.8681C66.241 3.9032 67.3304 2.47803 69.476 2.47803C69.6316 2.47803 69.8237 2.49919 69.8237 2.49919V3.50105H69.6515C68.6283 3.50105 67.7112 4.20658 67.7112 5.68466V7.44849H69.8237V8.39389H67.7112Z" fill="#003E57"/>
<path d="M72.2472 5.34944C72.1276 5.35273 72.0086 5.33088 71.897 5.28513C71.7853 5.23939 71.6832 5.17066 71.5965 5.08286C71.5098 4.99506 71.4401 4.88993 71.3916 4.77345C71.343 4.65697 71.3165 4.53144 71.3135 4.40403V4.3864C71.3135 4.12256 71.4119 3.86953 71.587 3.68297C71.7621 3.49641 71.9996 3.3916 72.2472 3.3916C72.4949 3.3916 72.7324 3.49641 72.9075 3.68297C73.0826 3.86953 73.181 4.12256 73.181 4.3864C73.1801 4.51379 73.1557 4.63976 73.1092 4.75711C73.0626 4.87445 72.9948 4.98087 72.9096 5.0703C72.8244 5.15973 72.7236 5.23041 72.6128 5.2783C72.502 5.3262 72.3834 5.35037 72.2638 5.34944H72.2472ZM71.5022 18.2218V7.41312H72.9923V18.2218H71.5022Z" fill="#003E57"/>
<path d="M79.3295 18.4793C76.9223 18.4793 75.0713 16.2745 75.0713 12.8068C75.0713 9.27919 76.9223 7.1626 79.3759 7.1626C80.6043 7.1626 81.4189 7.51535 81.8526 7.9034L81.4685 8.86645C80.9524 8.47946 80.3348 8.27578 79.7037 8.28439C77.6441 8.28439 76.5911 10.1893 76.5911 12.7574C76.5911 15.4032 77.7997 17.2905 79.654 17.2905C80.2949 17.2922 80.9215 17.0882 81.452 16.7049L81.8526 17.7632C81.4222 18.1195 80.558 18.4793 79.3295 18.4793Z" fill="#003E57"/>
<path d="M84.26 13.4667C84.452 16.0136 85.7666 17.2977 87.8261 17.2977C88.7798 17.3173 89.7239 17.091 90.5777 16.638L91.0115 17.7386C89.9864 18.2606 88.8592 18.5145 87.7235 18.4795C84.8692 18.4795 82.8428 16.6768 82.8428 12.7858C82.8428 9.07828 84.7103 7.1416 87.2566 7.1416C89.8029 7.1416 91.4088 8.82782 91.4088 12.4331L84.26 13.4667ZM87.2036 8.1752C85.548 8.1752 84.1739 9.53687 84.1937 12.5671L89.9552 11.724C89.9552 9.21586 88.8361 8.1752 87.2036 8.1752Z" fill="#003E57"/>
<path d="M100.829 8.39389V18.2396H99.3558V8.39389H97.8525V7.43084H99.3558V5.8681C99.3558 3.9032 100.449 2.47803 102.594 2.47803C102.75 2.47803 102.925 2.49919 102.925 2.49919V3.50105H102.743C101.723 3.50105 100.806 4.20658 100.806 5.68466V7.44849H102.915V8.39389H100.829Z" fill="#003E57"/>
<path d="M108.323 18.4794C105.343 18.4794 103.962 16.01 103.962 12.8352C103.962 9.66028 105.329 7.15918 108.323 7.15918C111.316 7.15918 112.667 9.62853 112.667 12.8352C112.667 16.0418 111.319 18.4794 108.323 18.4794ZM108.323 8.21394C106.108 8.21394 105.469 10.6022 105.469 12.8281C105.469 15.0541 106.161 17.3364 108.323 17.3364C110.538 17.3364 111.177 15.0505 111.177 12.8281C111.177 10.6057 110.538 8.21394 108.323 8.21394Z" fill="#003E57"/>
<path d="M119.058 8.41475C118.121 8.1537 116.74 8.19604 116.114 8.61583V18.2216H114.624V7.89265C115.697 7.41289 116.773 7.15186 118.674 7.15186C118.935 7.15186 119.283 7.15185 119.435 7.17302L119.058 8.41475Z" fill="#003E57"/>
<path d="M55.211 40.0897L49.4661 30.6462C49.1914 30.1921 48.9427 29.7209 48.721 29.2351H48.6879C48.6879 29.2351 48.7376 30.0359 48.7376 30.879V40.0826H46.8535V26.2896H48.9793L54.4329 35.1686C54.7148 35.6212 54.9692 36.0925 55.1944 36.5797H55.2275C55.2275 36.5797 55.1613 35.7966 55.1613 34.9746V26.2966H57.0487V40.0897H55.211Z" fill="#003E57"/>
<path d="M63.2602 40.372C60.2801 40.372 58.8828 39.1056 58.8828 37.0419C58.8828 34.1352 61.7404 33.352 65.131 33.031V32.4101C65.131 30.925 64.1807 30.484 62.7966 30.484C61.8488 30.498 60.9128 30.7101 60.0417 31.1084L59.5417 29.7856C60.6964 29.2744 61.9337 29.0084 63.1841 29.0024C65.4324 29.0024 67.1575 29.9831 67.1575 32.7523V39.5889C66.3198 40.051 64.9423 40.372 63.2602 40.372ZM65.131 34.114C62.6212 34.3962 60.9424 34.8971 60.9424 36.982C60.9424 38.446 61.9126 39.0668 63.4357 39.0668C64.0183 39.0831 64.5971 38.9627 65.131 38.7141V34.114Z" fill="#003E57"/>
<path d="M73.0581 40.3298C70.929 40.3298 70.1145 38.8659 70.1145 37.4019V30.6994H68.6973V29.2883H70.1145V26.8613L72.28 26.2192V29.2883H74.2667V30.6994H72.28V37.2961C72.265 37.4775 72.2838 37.6603 72.3354 37.834C72.3869 38.0077 72.4701 38.1688 72.5803 38.3081C72.6904 38.4474 72.8253 38.5622 72.9772 38.6458C73.1291 38.7294 73.295 38.7802 73.4654 38.7953C73.5315 38.8006 73.5979 38.8006 73.6641 38.7953C73.8639 38.7923 74.0624 38.7591 74.2535 38.6965V40.1076C73.8724 40.2639 73.4664 40.3394 73.0581 40.3298Z" fill="#003E57"/>
<path d="M77.0415 27.4184C76.8236 27.3925 76.6174 27.3 76.4478 27.152C76.2782 27.004 76.1524 26.8069 76.0856 26.5844C76.0188 26.3619 76.0139 26.1236 76.0714 25.8982C76.129 25.6728 76.2466 25.47 76.4099 25.3142C76.5733 25.1585 76.7755 25.0564 76.9921 25.0204C77.2087 24.9843 77.4305 25.0158 77.6307 25.1111C77.8309 25.2064 78.0009 25.3614 78.1202 25.5573C78.2395 25.7533 78.303 25.9819 78.3031 26.2154C78.2826 26.552 78.139 26.8666 77.9031 27.0916C77.6672 27.3165 77.3578 27.4339 77.0415 27.4184ZM75.9521 40.0897V29.2845H78.1309V40.0897H75.9521Z" fill="#003E57"/>
<path d="M84.6406 40.372C81.5413 40.372 80.0049 37.9239 80.0049 34.6961C80.0049 31.4683 81.5446 29.0024 84.6406 29.0024C87.7365 29.0024 89.2597 31.4718 89.2597 34.6961C89.2597 37.9203 87.7365 40.372 84.6406 40.372ZM84.6406 30.4946C82.7697 30.4946 82.2168 32.5795 82.2168 34.689C82.2168 36.7985 82.8028 38.7952 84.6406 38.7952C86.4783 38.7952 87.0611 36.7915 87.0611 34.689C87.0611 32.5865 86.518 30.484 84.6406 30.484V30.4946Z" fill="#003E57"/>
<path d="M97.313 40.0897V32.3818C97.313 30.9954 96.2038 30.4734 94.9588 30.4734C94.3622 30.4661 93.7695 30.5761 93.2104 30.7979V40.1003H91.0449V29.7855C92.3294 29.2502 93.6988 28.9842 95.078 29.0023C97.7269 29.0023 99.4918 29.9654 99.4918 32.3289V40.0897H97.313Z" fill="#003E57"/>
<path d="M105.588 40.372C102.608 40.372 101.207 39.1056 101.207 37.0419C101.207 34.1352 104.065 33.352 107.455 33.031V32.4101C107.455 30.925 106.505 30.484 105.121 30.484C104.174 30.498 103.239 30.7102 102.369 31.1084L101.866 29.7856C103.021 29.2744 104.258 29.0084 105.508 29.0024C107.757 29.0024 109.482 29.9831 109.482 32.7523V39.5889C108.634 40.051 107.267 40.372 105.588 40.372ZM107.455 34.114C104.945 34.3962 103.267 34.8971 103.267 36.982C103.267 38.446 104.237 39.0668 105.76 39.0668C106.342 39.0831 106.921 38.9627 107.455 38.7141V34.114Z" fill="#003E57"/>
<path d="M111.733 40.0895V24.3491H113.896V40.0895H111.733Z" fill="#003E57"/>
<path d="M124.197 40.3719C122.978 40.4142 121.768 40.1457 120.667 39.5887L121.273 37.9025C122.04 38.3353 122.895 38.5629 123.763 38.5657C125.27 38.5657 126.342 37.6238 126.342 36.2586C126.342 33.2319 120.958 34.396 120.958 30.1029C120.958 27.9157 122.614 26.0143 125.263 26.0143C126.346 25.9889 127.417 26.2584 128.375 26.7975L127.826 28.3003C127.131 27.8902 126.352 27.6696 125.558 27.6582C124.154 27.6582 123.24 28.5613 123.24 29.8454C123.24 32.8121 128.743 31.5281 128.743 36.0964C128.73 38.5445 126.846 40.3719 124.197 40.3719Z" fill="#003E57"/>
<path d="M134.219 40.3298C132.09 40.3298 131.276 38.8659 131.276 37.4019V30.6994H129.858V29.2883H131.276V26.8613L133.441 26.2192V29.2883H135.428V30.6994H133.441V37.2961C133.426 37.4775 133.445 37.6603 133.496 37.834C133.548 38.0077 133.631 38.1688 133.741 38.3081C133.852 38.4474 133.986 38.5622 134.138 38.6458C134.29 38.7294 134.456 38.7802 134.627 38.7953C134.693 38.8006 134.759 38.8006 134.825 38.7953C135.025 38.7923 135.224 38.7591 135.415 38.6965V40.1076C135.034 40.2639 134.627 40.3394 134.219 40.3298Z" fill="#003E57"/>
<path d="M140.971 40.372C137.991 40.372 136.594 39.1056 136.594 37.0419C136.594 34.1352 139.448 33.352 142.839 33.031V32.4101C142.839 30.925 141.888 30.484 140.504 30.484C139.558 30.498 138.623 30.7102 137.753 31.1084L137.249 29.7856C138.404 29.2744 139.641 29.0084 140.892 29.0024C143.14 29.0024 144.865 29.9831 144.865 32.7523V39.5889C144.017 40.051 142.65 40.372 140.971 40.372ZM142.839 34.114C140.332 34.3962 138.653 34.8971 138.653 36.982C138.653 38.446 139.62 39.0668 141.143 39.0668C141.726 39.0831 142.305 38.9627 142.839 38.7141V34.114Z" fill="#003E57"/>
<path d="M150.756 40.3298C148.627 40.3298 147.812 38.8659 147.812 37.4019V30.6994H146.392V29.2883H147.812V26.8613L149.974 26.2192V29.2883H151.961V30.6994H149.974V37.2961C149.95 37.6626 150.061 38.0247 150.284 38.3053C150.507 38.5859 150.823 38.763 151.166 38.7988H151.362C151.561 38.7962 151.758 38.7629 151.948 38.7001V40.1111C151.568 40.2662 151.163 40.3405 150.756 40.3298Z" fill="#003E57"/>
<path d="M154.749 27.4185C154.531 27.3919 154.325 27.2989 154.156 27.1505C153.987 27.0022 153.861 26.8049 153.795 26.5824C153.729 26.36 153.724 26.1218 153.782 25.8967C153.84 25.6716 153.958 25.4691 154.121 25.3137C154.285 25.1582 154.487 25.0565 154.703 25.0207C154.92 24.9849 155.142 25.0165 155.342 25.1119C155.542 25.2072 155.711 25.3621 155.831 25.5579C155.95 25.7537 156.013 25.9821 156.013 26.2155C155.994 26.5531 155.85 26.8688 155.613 27.094C155.376 27.3193 155.066 27.4358 154.749 27.4185ZM153.659 40.0898V29.2846H155.841V40.0898H153.659Z" fill="#003E57"/>
<path d="M160.567 40.3718C159.5 40.39 158.447 40.1206 157.504 39.5887L158.073 38.1036C158.742 38.5306 159.509 38.7528 160.289 38.7456C161.398 38.7456 162.275 37.9836 162.275 37.0629C162.275 34.4948 157.828 35.6977 157.828 32.17C157.828 30.565 159.179 28.9952 161.375 28.9952C162.377 28.9708 163.366 29.2418 164.232 29.7783L163.663 31.1188C163.115 30.7237 162.47 30.5079 161.808 30.4979C160.686 30.4979 159.991 31.2035 159.991 32.0431C159.991 34.4489 164.527 33.3836 164.527 36.9818C164.53 38.7315 163.007 40.3718 160.567 40.3718Z" fill="#003E57"/>
<path d="M170.037 40.3298C167.908 40.3298 167.093 38.8659 167.093 37.4019V30.6994H165.676V29.2883H167.093V26.8613L169.259 26.2192V29.2883H171.245V30.6994H169.259V37.2961C169.244 37.4775 169.262 37.6603 169.314 37.834C169.365 38.0077 169.449 38.1688 169.559 38.3081C169.669 38.4474 169.804 38.5622 169.956 38.6458C170.108 38.7294 170.274 38.7802 170.444 38.7953C170.51 38.8006 170.576 38.8006 170.643 38.7953C170.842 38.7923 171.041 38.7591 171.232 38.6965V40.1076C170.851 40.2639 170.445 40.3394 170.037 40.3298Z" fill="#003E57"/>
<path d="M174.02 27.4185C173.802 27.3919 173.596 27.2989 173.427 27.1505C173.258 27.0022 173.133 26.8049 173.067 26.5824C173 26.36 172.996 26.1218 173.054 25.8967C173.111 25.6716 173.229 25.4691 173.393 25.3137C173.556 25.1582 173.758 25.0565 173.975 25.0207C174.191 24.9849 174.413 25.0165 174.613 25.1119C174.813 25.2072 174.983 25.3621 175.102 25.5579C175.221 25.7537 175.285 25.9821 175.285 26.2155C175.264 26.5528 175.12 26.8679 174.884 27.093C174.647 27.318 174.337 27.4349 174.02 27.4185ZM172.94 40.0898V29.2846H175.123V40.0898H172.94Z" fill="#003E57"/>
<path d="M181.378 40.3719C178.884 40.3719 176.98 38.2024 176.98 34.6783C176.98 31.1541 178.937 29.0023 181.391 29.0023C182.315 28.9527 183.228 29.2279 183.99 29.7854L183.504 31.0871C183.037 30.7408 182.48 30.5583 181.911 30.565C180.146 30.565 179.229 32.1877 179.229 34.6147C179.229 37.0418 180.285 38.7068 181.878 38.7068C182.449 38.7071 183.006 38.5172 183.47 38.1636L184.007 39.5746C183.557 39.9909 182.672 40.3719 181.378 40.3719Z" fill="#003E57"/>
<path d="M188.039 40.3718C186.973 40.3882 185.92 40.1189 184.977 39.5887L185.549 38.1036C186.218 38.5306 186.985 38.7528 187.765 38.7456C188.871 38.7456 189.751 37.9836 189.751 37.0629C189.751 34.4948 185.304 35.6977 185.304 32.17C185.304 30.565 186.652 28.9952 188.851 28.9952C189.853 28.9708 190.842 29.2418 191.708 29.7783L191.135 31.1188C190.589 30.7221 189.945 30.5061 189.284 30.4979C188.159 30.4979 187.467 31.2035 187.467 32.0431C187.467 34.4489 192 33.3836 192 36.9818C192.003 38.7315 190.463 40.3718 188.039 40.3718Z" fill="#003E57"/>
<path d="M0.00390625 24.8538C0.570122 23.598 1.16283 22.3668 1.81513 21.1851C1.06904 19.265 0.464573 17.2858 0.00721816 15.2657C0.00390696 18.5711 0.00390625 22.0952 0.00390625 24.8538ZM3.51709 0.611816C3.51709 0.611816 0.0105275 0.611818 0.0105275 5.24362V7.71297C0.3092 11.8862 1.1655 15.9927 2.55353 19.9081C4.51439 16.5656 6.93667 13.5568 9.73884 10.9831C15.4175 5.79393 23.0664 2.20279 33.447 0.622399L3.51709 0.611816Z" fill="#A8BD3A"/>
<path d="M37.3603 3.14487C25.4896 4.35132 17.3805 7.96717 11.5726 13.2586C8.50819 16.089 5.93093 19.4674 3.95689 23.2419C8.5131 32.6713 17.2017 39.5996 31.6816 40.612H33.0921C33.0921 40.612 37.5424 40.7743 37.5424 35.4934V3.10254C37.4825 3.12037 37.4217 3.1345 37.3603 3.14487ZM6.84425 30.0009C5.49272 28.3015 4.30881 26.4586 3.3112 24.5013C2.01534 27.1583 0.908498 29.9153 0 32.7489V40.612H23.738C16.3375 38.7318 10.7912 34.9325 6.85087 30.0009H6.84425Z" fill="#003E57"/>
</g>
<defs>
<clipPath id="clip0_2260_305480">
<rect width="192" height="40" fill="white" transform="translate(0 0.611816)"/>
</clipPath>
</defs>
</svg>
