<svg width="2063" height="355" viewBox="0 0 2063 355" fill="none" xmlns="http://www.w3.org/2000/svg">
<path d="M485.995 229.458L476.67 270.759H465.496L506.271 84.0156H524.106L565.695 270.759H553.41L544.086 229.458H485.995ZM487.845 218.799H542.162L514.781 98.1527L487.845 218.873V218.799Z" fill="white"/>
<path d="M526.511 81.0156L569.437 273.759H551.012L541.688 232.458H488.393L479.068 273.759H461.771L503.855 81.0156H526.511ZM506.271 84.0156L465.496 270.759H476.67L485.994 229.458H544.086L553.41 270.759H565.694L524.105 84.0156H506.271ZM542.162 218.799H487.861L514.781 98.1523L542.162 218.799ZM491.604 215.799H538.404L514.806 111.816L491.604 215.799Z" fill="white"/>
<path d="M593.371 270.759H582.196V84.3115H598.181L654.126 241.744V84.3115H665.3V270.833H651.684L593.371 104.518V270.759Z" fill="white"/>
<path d="M665.301 84.3115H654.126V241.744L598.181 84.3115H582.196V270.759H593.37V104.518L651.684 270.833H665.301V84.3115ZM668.301 273.833H649.557L596.37 122.141V273.759H579.196V81.3115H600.299L651.126 224.341V81.3115H668.301V273.833Z" fill="white"/>
<path d="M702.079 229.458L692.754 270.759H681.58L722.281 84.0156H740.116L781.705 270.759H769.42L760.096 229.458H702.005H702.079ZM703.929 218.799H758.246L730.791 98.0787L703.855 218.799H703.929Z" fill="white"/>
<path d="M742.521 81.0156L785.446 273.759H767.022L757.698 232.458H704.477L695.152 273.759H677.855L719.864 81.0156H742.521ZM722.281 84.0156L681.58 270.759H692.754L702.078 229.458H760.096L769.42 270.759H781.705L740.115 84.0156H722.281ZM758.246 218.799H703.854L730.791 98.0791L758.246 218.799ZM707.598 215.799H754.486L730.819 111.729L707.598 215.799Z" fill="white"/>
<path d="M798.209 270.758V84.3115H810.493V259.582H869.103V270.758H798.283H798.209Z" fill="white"/>
<path d="M869.103 259.582H810.493V84.3115H798.209V270.759H869.103V259.582ZM813.493 256.582H872.103V273.759H795.209V81.3115H813.493V256.582Z" fill="white"/>
<path d="M907.214 199.111L865.329 84.3115H878.131L913.8 182.383L949.543 84.3115H961.532L919.424 199.111V270.758H907.14V199.111H907.214Z" fill="white"/>
<path d="M880.232 81.3115L913.803 173.612L947.443 81.3115H965.827L922.425 199.643V273.759H904.141V199.439L861.041 81.3115H880.232ZM919.425 270.759V199.11L961.531 84.3115H949.543L913.801 182.383L878.132 84.3115H865.329L907.214 199.11H907.141V270.759H919.425Z" fill="white"/>
<path d="M1053.96 129.314V133.311H1042.27V128.499C1042.27 108.811 1034.79 93.8598 1014.59 93.8598C994.387 93.8598 986.913 108.515 986.913 128.203C986.913 173.501 1054.33 174.316 1054.33 225.683C1054.33 252.625 1042.64 272.313 1014.07 272.313C985.507 272.313 973.814 252.625 973.814 225.683V216.061H985.507V226.423C985.507 246.407 993.203 260.767 1013.78 260.767C1034.35 260.767 1042.04 246.407 1042.04 226.423C1042.04 181.643 974.628 180.829 974.628 128.944C974.628 100.965 986.913 82.8314 1014.29 82.6094C1042.56 82.6094 1053.96 102.298 1053.96 129.24V129.314Z" fill="white"/>
<path d="M985.507 226.423V216.061H973.814V225.683C973.814 252.204 985.144 271.696 1012.75 272.299L1014.07 272.313C1042.64 272.313 1054.33 252.625 1054.33 225.683C1054.33 174.717 987.962 173.517 986.925 129.257L986.913 128.203C986.913 108.515 994.387 93.8594 1014.59 93.8594L1015.53 93.8711C1035.02 94.3287 1042.27 109.119 1042.27 128.499V133.311H1053.96V129.239C1053.96 102.298 1042.56 82.6096 1014.29 82.6094C986.913 82.8314 974.629 100.965 974.629 128.943L974.641 130.15C975.678 180.844 1042.04 181.993 1042.04 226.423C1042.04 246.407 1034.35 260.767 1013.78 260.767V257.767C1023.28 257.767 1029.38 254.499 1033.21 249.307C1037.16 243.952 1039.04 236.111 1039.04 226.423C1039.04 205.83 1023.77 195.314 1006.57 182.772C989.773 170.528 971.629 156.544 971.629 128.943C971.629 114.575 974.775 102.275 981.857 93.4854C989.025 84.5909 999.871 79.7261 1014.27 79.6094H1014.29C1029.2 79.6095 1040.06 84.8448 1047.1 93.9912C1054.04 103.006 1056.96 115.413 1056.96 129.239V136.311H1039.27V128.499C1039.27 118.955 1037.44 111.012 1033.56 105.531C1029.79 100.224 1023.84 96.8595 1014.59 96.8594C1005.31 96.8594 999.364 100.168 995.612 105.397C991.738 110.798 989.913 118.658 989.913 128.203C989.913 149.065 1005.21 159.718 1022.39 172.243C1039.16 184.474 1057.33 198.331 1057.33 225.683C1057.33 239.523 1054.33 251.937 1047.27 260.951C1040.12 270.088 1029.11 275.313 1014.07 275.313C999.032 275.313 988.026 270.088 980.869 260.951C973.808 251.937 970.814 239.523 970.814 225.683V213.061H988.507V226.423C988.507 236.111 990.386 243.952 994.34 249.307C998.175 254.499 1004.27 257.767 1013.78 257.767V260.767L1012.82 260.756C993.279 260.323 985.747 246.543 985.513 227.355L985.507 226.423Z" fill="white"/>
<path d="M1084.08 84.3115V270.833H1071.79V84.3115H1084.08Z" fill="white"/>
<path d="M1084.08 84.3115H1071.79V270.833H1084.08V84.3115ZM1087.08 273.833H1068.79V81.3115H1087.08V273.833Z" fill="white"/>
<path d="M1181.83 129.314V133.311H1170.14V128.499C1170.14 108.811 1162.67 93.8598 1142.46 93.8598C1122.26 93.8598 1114.79 108.515 1114.79 128.203C1114.79 173.501 1182.2 174.316 1182.2 225.683C1182.2 252.625 1170.51 272.313 1141.95 272.313C1113.38 272.313 1101.69 252.625 1101.69 225.683V216.061H1113.38V226.423C1113.38 246.407 1121.08 260.767 1141.65 260.767C1162.22 260.767 1169.92 246.407 1169.92 226.423C1169.92 181.643 1102.5 180.829 1102.5 128.944C1102.5 100.965 1114.79 82.8314 1142.17 82.6094C1170.44 82.6094 1181.83 102.298 1181.83 129.24V129.314Z" fill="white"/>
<path d="M1113.38 226.423V216.061H1101.69V225.683C1101.69 252.204 1113.02 271.696 1140.62 272.299L1141.95 272.313C1170.51 272.313 1182.2 252.625 1182.2 225.683C1182.2 174.717 1115.84 173.517 1114.8 129.257L1114.79 128.203C1114.79 108.515 1122.26 93.8594 1142.46 93.8594L1143.4 93.8711C1162.9 94.3286 1170.14 109.119 1170.14 128.499V133.311H1181.83V129.239C1181.83 102.298 1170.44 82.6096 1142.17 82.6094C1114.79 82.8314 1102.5 100.965 1102.5 128.943L1102.52 130.15C1103.55 180.844 1169.92 181.993 1169.92 226.423C1169.92 246.407 1162.22 260.767 1141.65 260.767V257.767C1151.16 257.767 1157.25 254.499 1161.09 249.307C1165.04 243.952 1166.92 236.111 1166.92 226.423C1166.92 205.83 1151.65 195.314 1134.44 182.772C1117.65 170.528 1099.5 156.544 1099.5 128.943C1099.5 114.575 1102.65 102.275 1109.73 93.4854C1116.9 84.5909 1127.75 79.7261 1142.14 79.6094H1142.17C1157.07 79.6095 1167.94 84.8448 1174.98 93.9912C1181.92 103.006 1184.83 115.413 1184.83 129.239V136.311H1167.14V128.499C1167.14 118.955 1165.32 111.012 1161.43 105.531C1157.67 100.224 1151.72 96.8595 1142.46 96.8594C1133.19 96.8594 1127.24 100.168 1123.49 105.397C1119.61 110.798 1117.79 118.658 1117.79 128.203C1117.79 149.065 1133.08 159.718 1150.26 172.243C1167.04 184.474 1185.2 198.331 1185.2 225.683C1185.2 239.523 1182.21 251.937 1175.15 260.951C1167.99 270.088 1156.99 275.313 1141.95 275.313C1126.91 275.313 1115.9 270.088 1108.74 260.951C1101.68 251.937 1098.69 239.523 1098.69 225.683V213.061H1116.38V226.423C1116.38 236.111 1118.26 243.952 1122.21 249.307C1126.05 254.499 1132.14 257.767 1141.65 257.767V260.767L1140.7 260.756C1121.15 260.323 1113.62 246.543 1113.39 227.355L1113.38 226.423Z" fill="white"/>
<path d="M1285.73 178.09V183.715H1233.56V270.833H1227.72V84.3115H1296.17V89.9368H1233.56V178.09H1285.73Z" fill="white"/>
<path d="M1285.73 183.716V178.09H1233.56V89.9365H1296.17V84.3115H1227.72V270.833H1233.56V183.716H1285.73ZM1299.17 92.9365H1236.56V175.09H1288.73V186.716H1236.56V273.833H1224.72V81.3115H1299.17V92.9365Z" fill="white"/>
<path d="M1314 130.129C1314 104.002 1325.17 82.981 1353.44 82.981C1381.71 82.981 1393.4 104.002 1393.4 130.129V224.944C1393.4 251.072 1382.23 272.093 1353.44 272.093C1324.66 272.093 1314 251.072 1314 224.944V130.129ZM1319.85 225.24C1319.85 248.185 1328.65 266.837 1353.44 266.837C1378.23 266.837 1387.56 248.185 1387.56 225.24V129.833C1387.56 106.888 1378.53 88.2361 1353.44 88.2361C1328.36 88.2361 1319.85 106.888 1319.85 129.833V225.24Z" fill="white"/>
<path d="M1393.4 130.129C1393.4 104.206 1381.89 83.3098 1354.1 82.9849L1353.44 82.981C1325.17 82.981 1314 104.002 1314 130.129V224.944C1314 250.867 1324.49 271.763 1352.77 272.088L1353.44 272.092C1381.78 272.092 1393.05 251.724 1393.4 226.166L1393.4 224.944V130.129ZM1384.56 225.24V129.833C1384.56 118.678 1382.35 108.995 1377.47 102.177C1372.71 95.5247 1365.14 91.2359 1353.44 91.2358C1341.75 91.2358 1334.33 95.5185 1329.7 102.149C1324.93 108.962 1322.85 118.649 1322.85 129.833V225.24C1322.85 236.407 1325 246.098 1329.8 252.917C1334.48 259.562 1341.91 263.837 1353.44 263.837V266.837L1352.29 266.824C1328.38 266.254 1319.85 247.826 1319.85 225.24V129.833C1319.85 106.888 1328.36 88.2358 1353.44 88.2358L1354.61 88.2495C1378.81 88.82 1387.56 107.247 1387.56 129.833V225.24C1387.56 248.185 1378.23 266.837 1353.44 266.837V263.837C1364.98 263.837 1372.56 259.556 1377.36 252.889C1382.28 246.065 1384.56 236.378 1384.56 225.24ZM1396.4 224.944C1396.4 238.369 1393.54 250.885 1386.62 260.117C1379.59 269.486 1368.66 275.092 1353.44 275.092C1338.22 275.092 1327.41 269.482 1320.51 260.093C1313.72 250.857 1311 238.343 1311 224.944V130.129C1311 116.704 1313.86 104.196 1320.71 94.9692C1327.67 85.6026 1338.47 79.981 1353.44 79.981C1368.41 79.9811 1379.33 85.5977 1386.42 94.9458C1393.4 104.167 1396.4 116.678 1396.4 130.129V224.944Z" fill="white"/>
<path d="M1449.28 84.3115C1476.95 84.3115 1487.61 100.595 1487.61 126.131V142.932C1487.61 165.877 1478.58 178.386 1458.01 182.087C1478.8 185.27 1487.61 198.889 1487.61 219.391V248.702C1487.61 255.881 1488.42 264.985 1492.64 270.833H1486.28C1482.58 264.985 1481.76 256.695 1481.76 248.702V219.391C1481.76 191.931 1465.26 184.752 1440.99 184.752H1418.05V270.833H1412.2V84.3115H1449.2H1449.28ZM1441.06 179.126C1466.89 179.126 1481.84 172.465 1481.84 143.673V126.649C1481.84 104 1473.03 89.8627 1449.06 89.8627H1418.12V179.126H1441.06Z" fill="white"/>
<path d="M1478.76 248.702V219.392C1478.76 206.293 1474.86 198.691 1468.71 194.197C1462.34 189.549 1452.96 187.752 1440.99 187.752H1421.05V273.833H1409.2V81.3115H1449.2V84.3115H1412.2V270.833H1418.05V184.752H1440.99C1465.26 184.752 1481.76 191.932 1481.76 219.392V248.702L1481.77 250.203C1481.87 257.471 1482.75 264.842 1485.94 270.277L1486.28 270.833H1492.64C1488.69 265.351 1487.73 257.007 1487.62 250.069L1487.61 248.702V219.392C1487.61 198.889 1478.8 185.27 1458.01 182.087C1478.26 178.444 1487.33 166.266 1487.6 144L1487.61 142.933V126.131C1487.61 100.994 1477.28 84.8226 1450.56 84.3232L1449.28 84.3115V81.3115C1463.72 81.3116 1474.26 85.5836 1481.12 93.7119C1487.89 101.741 1490.61 113.02 1490.61 126.131V142.933C1490.61 154.753 1488.29 164.349 1482.93 171.522C1479.46 176.159 1474.85 179.604 1469.15 181.994C1474.93 184.358 1479.55 187.858 1483 192.438C1488.33 199.497 1490.61 208.746 1490.61 219.392V248.702C1490.61 252.195 1490.81 256.063 1491.49 259.715C1492.18 263.393 1493.32 266.651 1495.08 269.077L1498.51 273.833H1484.63L1483.74 272.437C1479.54 265.799 1478.76 256.727 1478.76 248.702ZM1478.84 143.673V126.648C1478.84 115.626 1476.68 107.251 1472.11 101.66C1467.65 96.1922 1460.44 92.8623 1449.05 92.8623H1421.12V176.126H1441.06V179.126H1418.12V89.8623H1449.05C1473.03 89.8623 1481.84 104 1481.84 126.648V143.673L1481.83 145.006C1481.37 172.671 1466.49 179.126 1441.06 179.126V176.126C1453.88 176.126 1463.2 174.435 1469.33 169.804C1475.24 165.334 1478.84 157.583 1478.84 143.673ZM1449.28 81.3115V84.3115H1449.2V81.3115H1449.28Z" fill="white"/>
<path d="M1557.17 229.458L1547.85 270.759H1536.67L1577.45 84.0156H1595.28L1636.87 270.759H1624.59L1615.26 229.458H1557.17ZM1559.1 218.799H1613.41L1585.96 98.0787L1559.02 218.799H1559.1Z" fill="white"/>
<path d="M1597.69 81.0156L1640.61 273.759H1622.19L1612.87 232.458H1559.57L1550.25 273.759H1532.95L1575.03 81.0156H1597.69ZM1577.45 84.0156L1536.67 270.759H1547.85L1557.17 229.458H1615.26L1624.59 270.759H1636.87L1595.28 84.0156H1577.45ZM1613.41 218.799H1559.02L1585.96 98.0791L1613.41 218.799ZM1562.76 215.799H1609.65L1585.99 111.728L1562.76 215.799Z" fill="white"/>
<path d="M1733 129.833V145.303H1721.31V129.019C1721.31 109.035 1713.61 93.8615 1693.04 93.8615C1672.47 93.8615 1664.85 109.035 1664.85 129.019V225.981C1664.85 245.965 1672.54 260.842 1693.04 260.842C1713.54 260.842 1721.31 245.891 1721.31 225.981V203.85H1733V225.166C1733 252.108 1721.31 272.315 1692.74 272.315C1664.18 272.315 1652.56 252.034 1652.56 225.166V129.833C1652.56 102.891 1664.25 82.6851 1692.74 82.6851C1721.24 82.6851 1733 102.966 1733 129.833Z" fill="white"/>
<path d="M1733 129.833C1733 102.966 1721.23 82.6851 1692.74 82.6851C1664.25 82.6852 1652.56 102.892 1652.56 129.833V225.167L1652.57 226.421C1652.92 252.247 1664.26 271.69 1691.42 272.3L1692.74 272.315C1720.86 272.315 1732.63 252.735 1732.99 226.424L1733 225.167V203.85H1721.31V225.981L1721.3 226.911C1721.06 246.355 1713.22 260.842 1693.04 260.842V257.842C1702.46 257.842 1708.57 254.463 1712.43 249.12C1716.42 243.613 1718.31 235.623 1718.31 225.981V200.85H1736V225.167C1736 239.007 1733.01 251.54 1725.96 260.676C1718.81 269.94 1707.81 275.315 1692.74 275.315C1677.67 275.315 1666.69 269.918 1659.56 260.644C1652.54 251.499 1649.56 238.968 1649.56 225.167V129.833C1649.56 115.993 1652.56 103.462 1659.59 94.3257C1666.73 85.062 1677.71 79.6851 1692.74 79.6851C1707.78 79.6851 1718.78 85.0822 1725.93 94.3511C1732.99 103.494 1736 116.024 1736 129.833V148.303H1718.31V129.019C1718.31 119.333 1716.43 111.263 1712.45 105.69C1708.59 100.286 1702.49 96.8619 1693.04 96.8618C1683.6 96.8618 1677.52 100.285 1673.67 105.686C1669.71 111.258 1667.85 119.329 1667.85 129.019V225.981C1667.85 235.667 1669.72 243.655 1673.69 249.15C1677.53 254.478 1683.61 257.842 1693.04 257.842V260.842L1692.09 260.832C1672.62 260.383 1665.09 246.116 1664.85 226.914L1664.85 225.981V129.019C1664.85 109.035 1672.47 93.8618 1693.04 93.8618L1694 93.8726C1713.85 94.3366 1721.31 109.347 1721.31 129.019V145.303H1733V129.833Z" fill="white"/>
<path d="M1782.29 270.758V95.488H1744.47V84.3115H1832.61V95.488H1794.5V270.758H1782.21H1782.29Z" fill="white"/>
<path d="M1744.47 84.3115V95.4883H1782.29V270.759H1794.5V95.4883H1832.61V84.3115H1744.47ZM1835.61 98.4883H1797.5V273.759H1782.21V270.759H1779.29V98.4883H1741.47V81.3115H1835.61V98.4883Z" fill="white"/>
<path d="M1857.99 84.3115V270.833H1845.71V84.3115H1857.99Z" fill="white"/>
<path d="M1857.99 84.3115H1845.71V270.833H1857.99V84.3115ZM1860.99 273.833H1842.71V81.3115H1860.99V273.833Z" fill="white"/>
<path d="M1876.34 129.833C1876.34 102.669 1888.85 82.6851 1917.12 82.6851C1945.39 82.6851 1958.41 102.669 1958.41 129.833V225.24C1958.41 252.404 1945.9 272.389 1917.12 272.389C1888.33 272.389 1876.34 252.404 1876.34 225.24V129.833ZM1888.63 226.055C1888.63 246.335 1896.62 261.212 1917.12 261.212C1937.62 261.212 1946.13 246.261 1946.13 226.055V129.019C1946.13 108.739 1937.84 93.8615 1917.12 93.8615C1896.4 93.8615 1888.63 108.813 1888.63 129.019V225.981V226.055Z" fill="white"/>
<path d="M1958.41 129.833C1958.41 103.094 1945.79 83.3113 1918.43 82.6997L1917.12 82.6851C1888.85 82.6851 1876.34 102.67 1876.34 129.833V225.241L1876.35 226.508C1876.72 252.603 1888.4 271.773 1915.78 272.375L1917.12 272.389C1945.45 272.389 1958.02 253.024 1958.4 226.508L1958.41 225.241V129.833ZM1943.13 226.054V129.019C1943.13 119.216 1941.11 111.162 1936.99 105.628C1932.97 100.241 1926.67 96.8619 1917.12 96.8618C1907.57 96.8618 1901.42 100.249 1897.53 105.622C1893.52 111.161 1891.63 119.221 1891.63 129.019V226.054C1891.63 235.876 1893.57 243.938 1897.61 249.471C1901.53 254.846 1907.69 258.212 1917.12 258.212V261.212L1916.17 261.202C1896.37 260.746 1888.63 246.018 1888.63 226.054V129.019C1888.63 108.813 1896.4 93.8618 1917.12 93.8618L1918.08 93.8726C1938.1 94.3279 1946.13 109.056 1946.13 129.019V226.054L1946.12 226.998C1945.86 246.724 1937.3 261.212 1917.12 261.212V258.212C1926.55 258.212 1932.86 254.824 1936.91 249.413C1941.06 243.862 1943.13 235.803 1943.13 226.054ZM1961.41 225.241C1961.41 239.228 1958.2 251.772 1950.9 260.877C1943.52 270.089 1932.27 275.389 1917.12 275.389C1901.96 275.389 1890.83 270.086 1883.58 260.855C1876.41 251.743 1873.34 239.202 1873.34 225.241V129.833C1873.34 115.846 1876.56 103.309 1883.78 94.2075C1891.09 84.9974 1902.21 79.6851 1917.12 79.6851C1932.03 79.6851 1943.26 84.994 1950.7 94.186C1958.06 103.282 1961.41 115.821 1961.41 129.833V225.241Z" fill="white"/>
<path d="M1987.72 270.759H1976.54V84.3115H1992.53L2048.47 241.744V84.3115H2059.65V270.833H2046.03L1987.72 104.592V270.833V270.759Z" fill="white"/>
<path d="M2059.65 84.3115H2048.47V241.744L1992.53 84.3115H1976.54V270.759H1987.71V273.759H1973.54V81.3115H1994.64L2045.47 224.341V81.3115H2062.65V273.833H2043.9L1990.71 122.205V270.833H1987.71V104.592L2046.03 270.833H2059.65V84.3115Z" fill="white"/>
<path d="M297.25 208.971C296.437 232.698 273.386 243.699 262.374 230.691C259.606 227.421 258.054 222.803 256.919 219.429C241.144 254.607 217.327 239.77 213.3 227.09C206.704 206.321 228.608 188.68 244.421 196.418C251.301 199.781 254.77 207.388 256.842 211.929C259.779 199.099 263.834 193.487 274.198 187.902C243.3 177.606 254.94 147.508 266.637 142.612C267.518 142.242 268.766 141.961 269.678 141.684C289.792 140.162 298.312 166.097 286.873 180.391C285.121 182.582 282.13 184.92 279.904 186.634C284.351 187.505 297.889 190.159 297.246 208.971" fill="white"/>
<path d="M327.114 199.89C326.232 219.449 311.363 233.146 302.638 222.435C294.071 211.919 298.268 185.284 312.348 179.367C323.914 176.44 327.545 190.399 327.118 199.886" fill="white"/>
<path d="M291.836 256.52C286.341 275.413 263.937 285.2 256.579 271.923C250.6 261.13 260.341 241.259 277.367 237.03C288.713 234.9 295.474 244.005 291.836 256.516" fill="white"/>
<path d="M320.974 247.052C316 262.459 301.227 275.494 295.532 265.937C290.265 257.105 299.286 234.04 312.639 228.567C323.269 225.867 323.897 238 320.974 247.052Z" fill="#EE8B3E"/>
<path d="M321.07 152.916C323.958 169.868 314.109 182.741 303.506 175.877C290.249 167.295 289.491 139.4 302.362 133.838C312.488 131.396 319.511 143.78 321.066 152.916" fill="white"/>
<path d="M252.733 263.99C247.882 282.529 221.238 289.62 213.137 274.525C207.304 263.655 216.525 246.599 233.944 244.042C246.819 242.863 255.771 252.369 252.733 263.99Z" fill="white"/>
<path d="M252.632 170.189C252.967 188.82 231.536 199.29 218.407 186.906C205.902 175.112 210.272 151.211 229.696 148.245C245.22 147.564 252.443 160.667 252.612 170.189" fill="white"/>
<path d="M345.841 189.016C345.29 204.192 338.318 218.547 332.535 211.818C326.324 204.588 328.026 177.009 336.843 170.496C343.55 167.449 346.18 179.744 345.845 189.016" fill="white"/>
<path d="M277.916 294.718C269.496 309.305 249.952 315.88 247.608 304.918C245.887 296.863 256.286 283.432 269.696 280.208C279.272 278.398 283.264 285.451 277.916 294.718Z" fill="white"/>
<path d="M277.797 117.214C282.54 133.268 270.393 142.416 258.884 136.265C244.947 128.819 242.344 104.483 255.019 100.104C255.427 99.9651 255.989 99.8419 256.401 99.7263H256.409H256.416C256.416 99.7263 256.424 99.7263 256.428 99.7263C256.432 99.7263 256.436 99.7263 256.439 99.7263C256.443 99.7263 256.447 99.7263 256.451 99.7263C256.455 99.7263 256.459 99.7263 256.462 99.7263C256.466 99.7263 256.47 99.7263 256.47 99.7263H256.478C267.809 98.2703 275.567 109.687 277.797 117.225" fill="white"/>
<path d="M208.235 222.352C206.402 240.741 183.255 248.275 171.812 234.208C162.602 222.887 167.068 201.179 187.69 199.753H187.698H187.706H187.713H187.721H187.729H187.736H187.744H187.752C202.463 200.235 209.278 211.756 208.223 222.352" fill="white"/>
<path d="M304.578 285.827C296.997 298.126 283.348 306.954 281.392 300.826C279.44 294.709 290.051 277.118 302.341 272.292C310.838 269.938 308.89 278.147 305.51 284.236C305.24 284.722 304.867 285.357 304.578 285.827Z" fill="white"/>
<path d="M339.402 235.566C335.171 249.517 326.4 261.003 323.493 256.397C320.274 251.289 327.139 226.395 336.707 219.62C342.852 216.476 341.978 227.057 339.394 235.57" fill="white"/>
<path d="M339.283 141.964C342.563 156.174 338.332 168.392 331.471 164.505C322.835 159.613 317.117 131.946 325.58 125.521C325.58 125.521 325.584 125.521 325.588 125.517C325.591 125.513 325.591 125.517 325.595 125.517C325.599 125.517 325.599 125.517 325.603 125.517C325.607 125.517 325.607 125.517 325.611 125.517C325.615 125.517 325.615 125.517 325.618 125.517C325.622 125.517 325.622 125.517 325.626 125.517C325.63 125.517 325.63 125.517 325.634 125.517C325.638 125.517 325.638 125.517 325.641 125.513C331.783 122.698 337.319 133.452 339.29 141.991" fill="white"/>
<path d="M242.793 301.092C236.582 315.143 213.504 319.962 209.423 308.06C206.978 300.93 213.739 288.712 229.502 286.536C243.443 285.781 245.669 294.594 242.797 301.096" fill="white"/>
<path d="M304.408 108.56C306.733 114.157 308.986 125.689 300.869 129.264C300.869 129.264 300.869 129.264 300.866 129.264C300.862 129.264 300.866 129.264 300.862 129.264C300.858 129.264 300.862 129.264 300.858 129.264C300.854 129.264 300.858 129.264 300.854 129.264C300.85 129.264 300.854 129.264 300.85 129.264C300.846 129.264 300.85 129.264 300.846 129.264C300.843 129.264 300.846 129.264 300.843 129.264C300.839 129.264 300.843 129.264 300.839 129.264C286.15 132.811 275.481 105.066 281.38 95.5871C282.67 93.5148 284.244 92.9717 284.76 92.7946C292.876 90.807 301.285 101.018 304.412 108.548" fill="white"/>
<path d="M206.547 267.801C205.669 273.283 200.521 282.812 186.784 283.759C186.784 283.759 186.776 283.759 186.772 283.759C186.768 283.759 186.765 283.759 186.761 283.759C186.757 283.759 186.753 283.759 186.749 283.759C186.745 283.759 186.741 283.759 186.738 283.759C186.734 283.759 186.73 283.759 186.726 283.759C186.722 283.759 186.718 283.759 186.714 283.759C186.711 283.759 186.707 283.759 186.703 283.759C186.699 283.759 186.695 283.759 186.691 283.759C168.072 283.293 162.296 264.836 173.35 254.312C177.108 250.734 182.152 248.696 187.55 248.569C202.708 248.962 207.783 260.052 206.543 267.798" fill="white"/>
<path d="M242.841 123.985C243.6 129.74 241.69 141.149 229.015 143.156C229.012 143.156 229.008 143.156 229 143.156C228.992 143.156 228.992 143.156 228.985 143.156C228.977 143.156 228.977 143.156 228.969 143.156C228.962 143.156 228.961 143.156 228.954 143.156C228.946 143.156 228.946 143.156 228.938 143.156C228.931 143.156 228.931 143.156 228.923 143.156C228.915 143.156 228.915 143.156 228.908 143.156C228.9 143.156 228.9 143.156 228.892 143.156C210.33 143.737 202.772 120.006 214.065 108.894C217.164 105.843 220.098 105.377 222.039 105.069C231.499 104.206 241.413 113.219 242.834 123.974" fill="white"/>
<path d="M206.552 173.999C205.732 191.359 185.014 199.46 173.467 186.933C162.756 175.312 168.566 153.827 186.774 152.475C186.778 152.475 186.785 152.475 186.789 152.475C186.793 152.475 186.801 152.475 186.805 152.475C186.808 152.475 186.816 152.475 186.82 152.475C186.824 152.475 186.832 152.475 186.835 152.475C186.839 152.475 186.847 152.475 186.851 152.475C186.855 152.475 186.862 152.475 186.866 152.475C186.87 152.475 186.878 152.475 186.882 152.475C186.885 152.475 186.893 152.475 186.897 152.475C201.131 153.057 206.964 165.413 206.556 173.999" fill="white"/>
<path d="M321.651 275.717C315.001 286.298 305.591 295.801 305.145 292.384C304.583 288.07 317.427 267.609 324.35 263.318C326.764 262.032 327.418 263.13 326.29 266.573C325.928 267.675 324.754 270.775 321.651 275.717Z" fill="white"/>
<path d="M201.826 304.619C198.673 316.298 177.324 321.074 170.651 308.625C166.555 300.983 172.996 290.93 186.352 290.094C196.544 289.943 203.917 296.869 201.822 304.619" fill="white"/>
<path d="M321.132 98.7453C326.838 109.9 325.818 120.331 319.222 118.32C309.524 115.366 298.289 89.3739 304.911 85.2139C309.859 83.0145 317.513 91.6619 321.132 98.7453Z" fill="white"/>
<path d="M201.82 127.537C201.689 142.139 186.053 149.516 175.684 139.871C164.627 129.59 170.564 109.719 185.029 108.605C194.065 108.501 201.916 117.345 201.823 127.537" fill="white"/>
<path d="M354.259 176.56C354.205 189.117 352.133 200.206 350.227 198.13C347.679 195.353 347.563 167.242 350.882 160.629C352.449 158.572 353.304 162.474 353.746 166.114C353.993 168.132 354.278 171.583 354.259 176.56Z" fill="white"/>
<path d="M257.187 324.458C249.748 332.166 234.867 338.24 234.382 332.451C234.005 327.967 243.303 318.268 254.603 315.665C260.402 314.559 262.489 317.024 259.57 321.531C259.043 322.347 258.061 323.549 257.183 324.458" fill="white"/>
<path d="M256.772 75.5607C259.163 80.3716 261.058 89.096 252.984 91.2838C252.984 91.2838 252.98 91.2838 252.976 91.2838C252.972 91.2838 252.972 91.2838 252.968 91.2838C252.965 91.2838 252.965 91.2838 252.961 91.2838C252.957 91.2838 252.957 91.2838 252.953 91.2838C252.949 91.2838 252.949 91.2838 252.945 91.2838C252.941 91.2838 252.941 91.2838 252.938 91.2838C252.934 91.2838 252.934 91.2838 252.93 91.2838C252.926 91.2838 252.926 91.2838 252.922 91.2838C238.365 92.9594 228.874 70.5726 235.011 63.6278C236.054 62.4453 237.021 62.1795 238.137 61.8714C238.137 61.8714 238.141 61.8714 238.145 61.8714C238.149 61.8714 238.149 61.8714 238.153 61.8714C238.157 61.8714 238.157 61.8714 238.16 61.8714C238.164 61.8714 238.164 61.8714 238.168 61.8714C238.172 61.8714 238.172 61.8714 238.176 61.8714C238.18 61.8714 238.18 61.8714 238.184 61.8714C238.187 61.8714 238.187 61.8714 238.191 61.8714C238.195 61.8714 238.195 61.8714 238.199 61.8714C245.892 61.0124 253.692 69.3593 256.776 75.5607" fill="white"/>
<path d="M157.604 222.797C155.937 238.775 136.193 243.817 126.533 230.736C118.767 220.217 122.748 201.466 140.336 201.535C140.34 201.535 140.344 201.535 140.351 201.535C140.359 201.535 140.359 201.535 140.367 201.535C140.374 201.535 140.374 201.535 140.382 201.535C140.39 201.535 140.39 201.535 140.398 201.535C140.405 201.535 140.405 201.535 140.413 201.535C140.421 201.535 140.421 201.535 140.428 201.535C140.436 201.535 140.436 201.535 140.444 201.535C140.451 201.535 140.451 201.535 140.459 201.535C154.408 203.095 158.386 215.402 157.616 222.79" fill="white"/>
<path d="M343.881 235.47L343.476 236.575C341.47 241.933 340.75 243.104 340.273 243.574C340.204 243.539 340.115 243.497 340.05 243.462C339.661 240.431 346.695 215.464 350.01 209.389C350.141 209.193 350.33 208.939 350.495 208.773C350.576 208.808 350.684 208.858 350.765 208.892C350.834 209.301 351.046 210.537 349.367 217.386C347.792 222.832 345.786 230.131 343.884 235.474" fill="white"/>
<path d="M347.597 130.193C350.692 141.652 350.704 152.217 347.62 150.38C343.342 147.834 336.196 122.393 339.126 115.964C341.513 113.114 345.591 122.77 347.597 130.189" fill="white"/>
<path d="M228.133 329.994C221.823 338.036 204.077 342.038 203.692 333.557C203.496 329.254 209.425 322.209 220.66 320.723C228.853 319.944 232.484 324.447 228.133 329.994Z" fill="white"/>
<path d="M279.151 317.591C271.932 324.186 259.911 331.204 260.081 328.045C260.246 324.991 272.54 312.399 282.027 308.771C285.908 307.63 285.639 309.425 284.734 311.132C284.314 311.921 282.932 314.129 279.132 317.595" fill="white"/>
<path d="M157.798 268.873C155.862 283.071 136.63 285.652 127.536 272.937C120.705 263.385 126.134 249.899 140.268 249.976C150.514 250.624 159.034 259.806 157.798 268.873Z" fill="white"/>
<path d="M158.031 174.192C156.41 188.19 139.18 196.186 129.181 183.818C119.787 172.197 127.926 154.136 142.58 154.082C142.584 154.082 142.588 154.082 142.596 154.082C142.603 154.082 142.603 154.082 142.611 154.082C142.619 154.082 142.619 154.082 142.626 154.082C142.634 154.082 142.634 154.082 142.642 154.082C142.65 154.082 142.65 154.082 142.657 154.082C142.665 154.082 142.665 154.082 142.673 154.082C142.68 154.082 142.68 154.082 142.688 154.082C142.696 154.082 142.696 154.082 142.703 154.082C154.589 155.503 158.886 166.916 158.043 174.185" fill="white"/>
<path d="M228.19 80.7517C231.012 91.5714 222.299 99.2134 212.908 94.1521C200.722 87.5848 200.718 68.4836 210.309 66.134C210.609 66.0608 211.025 66.0108 211.329 65.9607C217.867 65.4022 226.06 72.5897 228.19 80.7517Z" fill="#EA863B"/>
<path d="M278.642 68.4218C284.783 77.2001 283.821 85.493 276.802 84.272C265.17 82.2459 253.693 60.5872 259.434 56.7662C259.63 56.6352 259.919 56.5004 260.142 56.4195C265.759 55.1523 274.65 62.7095 278.646 68.4218" fill="white"/>
<path d="M331.572 262.377C328.08 268.081 323.321 275.635 319.482 281.116C320.884 279.136 326.419 269.981 336.088 253.652C336.377 253.167 336.416 253.105 336.446 253.067L331.572 262.381" fill="white"/>
<path d="M293.375 309.584C286.864 315.439 279.129 321.174 278.151 321.313C278.417 320.196 294.981 304.539 300.386 301.026C301.179 300.579 301.376 300.479 301.591 300.64C301.538 301.761 297.426 305.941 293.375 309.584Z" fill="white"/>
<path d="M328.762 88.014C333.983 96.9232 336.135 105.829 332.951 105.339C328.523 104.662 314.932 82.6291 317.096 76.8976C318.913 74.8446 324.696 81.1231 328.747 88.0409" fill="white"/>
<path d="M194.991 332.631C191.61 340.777 175.551 342.014 172.082 334.391C169.733 329.237 175.913 323.752 184.322 323.521C192.904 323.664 196.766 328.347 194.991 332.627" fill="white"/>
<path d="M158.43 305.047C157.58 314.873 141.428 318.032 132.934 307.428C127.24 300.317 131.082 290.911 142.822 291.03C151.581 291.566 159.023 298.245 158.434 305.047" fill="white"/>
<path d="M292.762 60.7579C298.98 68.0417 300.701 75.3717 296.174 75.2792C287.726 75.1136 272.514 54.5873 275.633 50.7779C275.721 50.67 275.879 50.5622 275.987 50.4697C278.736 48.9637 287.045 54.0596 292.762 60.7579Z" fill="white"/>
<path d="M158.631 127.683C156.572 140.979 141.202 146.048 134.086 135.772C127.121 125.715 134.837 110.049 146.788 109.98C156.552 111.17 159.629 121.247 158.631 127.679" fill="white"/>
<path d="M195.034 83.2994C195.265 87.5595 193.355 95.8178 184.481 96.5843C171.825 96.0412 168.614 78.7312 177.084 71.0776C179.398 68.9861 181.373 68.8089 182.679 68.6934C190.252 69.04 194.73 77.3985 195.049 83.2994" fill="white"/>
<path d="M231.742 343.937C226.329 346.668 215.783 349.969 216.403 348.459C216.977 347.065 226.356 341.341 233.825 339.692C236.193 339.303 237.094 339.608 236.501 340.594C235.989 341.445 234.245 342.666 231.719 343.941" fill="white"/>
<path d="M248.295 338.76C245.127 340.289 241.442 341.853 237.345 343.405L234.25 344.534C233.576 344.765 233.434 344.811 233.168 344.88C233.31 344.649 249.77 336.125 254.125 334.554C255.257 334.176 255.388 334.276 255.492 334.353C255.314 335.174 250.887 337.508 248.295 338.76Z" fill="white"/>
<path d="M109.643 219.795C107.807 232.671 93.6343 235.637 85.9492 224.748C78.7956 214.61 83.4004 199.322 96.2601 200.316C104.696 201.541 110.949 210.643 109.64 219.795" fill="#ED893D"/>
<path d="M230.623 40.4387C235.582 46.4591 235.505 52.0635 230.469 51.7553C221.614 51.2084 211.445 35.0384 215.496 31.9686C215.711 31.8029 216.069 31.6912 216.331 31.6103C219.496 31.0711 226.442 35.362 230.619 40.4387" fill="white"/>
<path d="M211.116 347.487C206.315 350.676 195.603 352.895 195.904 350.01C196.088 348.234 200.99 344.401 208.444 343.477C214.061 343.076 213.618 345.122 212.598 346.262C212.344 346.547 211.77 347.048 211.116 347.487Z" fill="white"/>
<path d="M344.723 114.655C346.544 120.68 348.947 128.73 350.414 134.85C349.62 131.457 344.207 113.947 341.639 106.459C341.585 106.309 341.516 106.108 341.458 105.958L344.723 114.655Z" fill="white"/>
<path d="M111.47 265.289C111.412 276.567 98.2828 277.765 90.5823 269.711C82.7934 261.56 84.4413 248.268 95.7224 248.672C96.1189 248.688 96.6464 248.753 97.043 248.784C107.681 250.756 111.497 259.734 111.466 265.289" fill="white"/>
<path d="M246.718 36.1739C253.017 41.8284 253.733 46.0538 250.452 46.4544C243.884 47.2517 228.637 31.6365 230.551 28.5858C230.662 28.4048 230.928 28.2584 231.113 28.1583C234.328 27.4765 241.766 31.7597 246.694 36.1855" fill="white"/>
<path d="M111.807 170.856C111.572 172.178 109.189 183.737 97.588 182.862C97.588 182.862 97.5841 182.862 97.5803 182.862C97.5764 182.862 97.5764 182.862 97.5726 182.862C97.5687 182.862 97.5687 182.862 97.5649 182.862C97.561 182.862 97.561 182.862 97.5572 182.862C97.5533 182.862 97.5533 182.862 97.5495 182.862C97.5456 182.862 97.5456 182.862 97.5418 182.862C97.5379 182.862 97.5379 182.862 97.5341 182.862C97.5302 182.862 97.5302 182.862 97.5264 182.862C83.631 180.135 84.1469 161.874 92.8638 155.499C96.3905 152.918 99.6748 153.173 101.253 153.292C101.253 153.292 101.257 153.292 101.261 153.292C101.265 153.292 101.265 153.292 101.269 153.292C101.273 153.292 101.273 153.292 101.276 153.292C101.28 153.292 101.28 153.292 101.284 153.292C101.288 153.292 101.288 153.292 101.292 153.292C101.296 153.292 101.296 153.292 101.3 153.292C101.303 153.292 101.303 153.292 101.307 153.292C101.311 153.292 101.311 153.292 101.315 153.292C110.964 155.164 112.877 164.821 111.807 170.856Z" fill="white"/>
<path d="M210.641 44.5232C214.325 52.7083 209.035 56.3059 203.884 54.1412C196.002 50.8248 192.745 37.1046 197.712 34.7781C198.027 34.6317 198.493 34.5393 198.836 34.4777C202.856 34.1503 208.381 39.512 210.637 44.5232" fill="white"/>
<path d="M159.745 332.415C160.234 338.775 149.026 340.146 142.365 334.538C137.083 330.093 138.827 324.727 145.758 324.099C146.37 324.045 147.197 324.057 147.814 324.068C153.962 324.43 159.426 328.255 159.745 332.419" fill="white"/>
<path d="M298.981 51.7677C305.777 58.4852 308.53 64.5441 305.704 64.3438C301.226 64.0241 284.574 46.6794 286.122 43.9523C287.562 42.4925 294.053 46.899 298.981 51.7677Z" fill="white"/>
<path d="M160.276 83.3048C158.543 93.3272 147.952 97.8801 142.846 90.7966C137.564 83.4704 143.928 69.9352 152.714 69.8042C159.032 70.6208 161.165 78.1703 160.276 83.3048Z" fill="white"/>
<path d="M257.245 334.486C258.481 333.832 262.239 331.848 267.076 328.958C264.13 330.623 260.241 332.915 257.245 334.486Z" fill="white"/>
<path d="M187.292 349.457C184.666 353.052 174.257 353.294 173.545 349.777C173.218 348.155 175.424 345.736 181.362 345.447C181.362 345.447 181.366 345.447 181.369 345.447C181.373 345.447 181.373 345.447 181.377 345.447C181.381 345.447 181.381 345.447 181.385 345.447C181.389 345.447 181.389 345.447 181.393 345.447C181.396 345.447 181.396 345.447 181.4 345.447C181.404 345.447 181.404 345.447 181.408 345.447C181.412 345.447 181.412 345.447 181.416 345.447C181.42 345.447 181.42 345.447 181.423 345.447C186.841 345.478 188.689 347.551 187.299 349.457" fill="white"/>
<path d="M326.593 77.0674C326.832 77.441 327.144 77.9418 327.378 78.3192L330.058 82.7642C332.807 87.5097 334.293 90.4293 334.355 91.2113C333.211 91.165 320.964 71.1818 320.048 68.6165C320.013 68.4894 319.971 68.3161 319.963 68.1851C320.91 68.1582 326.012 76.1545 326.589 77.0674" fill="white"/>
<path d="M116.94 301.939C118.072 309.847 108.985 310.975 101.731 305.81C94.4122 300.595 92.26 290.842 100.161 289.632C101.323 289.455 102.448 289.559 103.356 289.64C110.006 290.557 116.1 296.076 116.94 301.939Z" fill="white"/>
<path d="M117.55 124.731C114.347 135.597 102.731 137.835 98.3608 130.717C93.5557 122.886 100.247 108.565 110.708 109.328C116.63 110.167 119.764 117.22 117.55 124.727" fill="white"/>
<path d="M256.742 30.6352C263.383 35.3229 265.52 39.1824 263.283 39.7178C259.591 40.5999 240.447 26.8912 241.941 24.4415C241.984 24.376 242.072 24.3144 242.13 24.2605C244.305 23.4747 251.578 26.9914 256.742 30.6352Z" fill="white"/>
<path d="M187.384 46.392C188.235 54.0417 182.302 57.5276 177.786 54.0263C171.822 49.4041 173.866 37.3402 179.229 36.4158C179.399 36.385 179.626 36.3773 179.795 36.3619C183.607 36.3426 186.853 41.6311 187.38 46.392" fill="white"/>
<path d="M297.525 42.9973C301.675 46.7452 306.403 51.9297 306.045 52.7463C304.34 53.0737 289.917 39.2418 289.185 37.3737C289.17 37.2928 289.17 37.1695 289.212 37.1002C290.152 36.9038 294.194 39.9929 297.525 43.0012" fill="white"/>
<path d="M162.318 349.545C162.788 352.23 155.557 352.157 151.571 349.437C149.396 347.95 149.673 346.302 152.195 345.755C153.062 345.566 153.762 345.585 154.506 345.604C158.206 345.82 162.007 347.735 162.322 349.545" fill="white"/>
<path d="M261.645 24.5699C267.44 27.9864 270.551 31.1796 269.457 31.7535C267.625 32.7164 249.217 21.7542 249.563 19.9053C250.568 19.1118 256.883 21.7619 261.645 24.5699Z" fill="white"/>
<path d="M127.087 80.8228C126.548 82.1864 123.537 88.9617 117.026 88.5688C117.026 88.5688 117.022 88.5688 117.019 88.5688C117.015 88.5688 117.015 88.5688 117.011 88.5688C117.007 88.5688 117.007 88.5688 117.003 88.5688C116.999 88.5688 116.999 88.5688 116.995 88.5688C116.992 88.5688 116.992 88.5688 116.988 88.5688C116.984 88.5688 116.984 88.5688 116.98 88.5688C116.976 88.5688 116.976 88.5688 116.972 88.5688C116.968 88.5688 116.968 88.5688 116.965 88.5688C109.041 86.978 112.483 75.438 118.874 71.1278C121.323 69.4754 123.121 69.5948 123.984 69.6526C128.431 70.2881 129.05 75.8348 127.075 80.8306" fill="white"/>
<path d="M126.118 330.267C126.299 330.729 127.735 334.785 121.921 334.215C121.921 334.215 121.917 334.215 121.913 334.215C121.91 334.215 121.91 334.215 121.906 334.215C121.902 334.215 121.902 334.215 121.898 334.215C121.894 334.215 121.894 334.215 121.89 334.215C121.886 334.215 121.886 334.215 121.883 334.215C121.879 334.215 121.879 334.215 121.875 334.215C121.871 334.215 121.871 334.215 121.867 334.215C121.863 334.215 121.863 334.215 121.859 334.215C113.62 332.786 107.456 325.294 111.206 323.06C112.403 322.347 114.009 322.501 114.968 322.594C121.32 323.696 125.175 327.89 126.114 330.274" fill="white"/>
<path d="M188.465 354.383L188.068 354.414C189.686 354.283 191.295 354.052 192.909 353.894C193.398 353.847 193.952 353.793 194.276 353.793C194.256 353.801 194.229 353.809 194.21 353.817C192.489 353.994 190.19 354.24 188.465 354.383Z" fill="white"/>
<path d="M64.6864 211.909C64.5478 213.519 63.4697 221.496 56.035 220.244H56.0273H56.0196H56.0119H56.0042H55.9965H55.9888H55.9811H55.9734C45.7472 217.14 45.3661 201.42 51.4571 197.723C53.4284 196.525 55.1725 196.837 56.3276 197.041C61.6332 198.358 65.3101 204.898 64.7018 211.924" fill="white"/>
<path d="M162.96 46.1247C161.432 53.2929 155.26 55.0147 152.888 51.6328C150.147 47.7193 154.151 37.5467 159.637 37.4312C163.334 37.9126 163.649 42.893 162.96 46.1247Z" fill="white"/>
<path d="M201.18 14.3894C205.073 17.317 206.009 19.4242 204.642 19.6938C201.723 20.2755 190.845 10.9339 191.369 9.53945C191.396 9.46626 191.504 9.42003 191.577 9.39306C193.159 9.35069 198.123 12.0896 201.184 14.3894" fill="white"/>
<path d="M68.1917 258.155C68.3957 260.909 67.31 265.855 61.7349 264.853C61.7349 264.853 61.731 264.853 61.7272 264.853C61.7233 264.853 61.7233 264.853 61.7194 264.853C61.7156 264.853 61.7156 264.853 61.7118 264.853C61.7079 264.853 61.7079 264.853 61.7041 264.853C61.7002 264.853 61.7002 264.853 61.6963 264.853C61.6925 264.853 61.6925 264.853 61.6886 264.853C61.6848 264.853 61.6848 264.853 61.681 264.853C61.6771 264.853 61.6771 264.853 61.6732 264.853C52.2826 261.999 48.4593 248.236 54.2885 245.309C55.7247 244.589 57.1416 244.839 57.9924 244.989C62.9015 246.21 67.7566 252.489 68.1801 258.166" fill="white"/>
<path d="M208.857 11.9586C213.962 14.5393 215.83 16.5692 214.917 16.8851C212.692 17.6593 197.822 9.00811 197.676 7.98353C197.699 7.96427 197.726 7.94116 197.749 7.9219C198.877 7.80635 204.464 9.74766 208.845 11.9625" fill="white"/>
<path d="M68.7589 164.136C66.5874 172.098 58.1785 175.63 54.0627 168.026C49.7196 160.007 55.3563 148.721 63.0606 150.004C67.7424 151.179 70.4568 157.915 68.7589 164.14" fill="white"/>
<path d="M191.144 16.1422C193.497 19.3819 193.154 21.6046 191.291 21.3542C187.255 20.811 182.831 11.9202 184.028 10.6836C184.09 10.6181 184.217 10.5796 184.306 10.5565C185.538 10.4987 189.246 13.5227 191.144 16.1383" fill="white"/>
<path d="M78.1496 295.32C79.532 299.269 77.4103 301.989 72.6048 299.573C65.7931 296.149 61.4149 287.454 65.716 285.89C66.3899 285.644 67.2216 285.636 68.1881 285.859C73.2363 287.327 77.1177 292.373 78.1496 295.32Z" fill="white"/>
<path d="M174.609 354.995C175.664 354.968 176.716 354.852 177.771 354.829C179.457 354.806 179.931 354.891 179.931 354.891C178.333 354.929 176.204 354.983 174.609 354.999" fill="white"/>
<path d="M214.07 9.36984C217.997 10.8451 220.954 12.4205 221.097 13.1254C220.346 14.1268 203.705 7.3669 202.981 6.46558C202.989 6.44632 202.997 6.42321 203.005 6.4078C203.89 6.23447 209.523 7.66734 214.07 9.3737" fill="white"/>
<path d="M79.4286 118.028C76.618 124.68 69.0639 127.731 66.7229 121.564C64.2511 115.047 70.5077 105.764 76.7219 106.734C80.1948 107.613 81.5116 113.101 79.4286 118.028Z" fill="white"/>
<path d="M38.1929 99.5067C33.2771 110.659 19.7153 115.275 15.6211 104.937C15.6206 103.687 26.8711 81.5615 30.5586 78.124C36.6326 79.5963 41.8359 91.2475 38.1929 99.5067Z" fill="#E37D36"/>
<path d="M179.623 16.809C180.277 20.145 178.745 22.1443 177.12 21.2043C174.162 19.4901 174.605 12.2017 176.269 11.647C176.323 11.6278 176.396 11.6162 176.454 11.6162C177.728 11.7664 179.23 14.8251 179.623 16.8128" fill="white"/>
<path d="M138.41 347.651C139.118 348.31 139.453 349.038 138.263 349.111C135.495 349.281 127.751 345.906 128.933 344.55C129.299 344.126 130.381 344.242 130.839 344.288C133.489 344.65 137.02 346.364 138.41 347.655" fill="white"/>
<path d="M260.715 18.3678C264.18 20.1396 268.077 22.6356 268.134 23.3867C267.33 24.0146 253.234 16.7924 252.745 15.4982C252.745 15.4713 252.745 15.4366 252.745 15.4096C253.273 15.0938 257.069 16.5035 260.711 18.3678" fill="white"/>
<path d="M139.698 44.44C136.999 49.0473 132.694 50.2376 131.816 47.5642C130.811 44.5094 135.79 37.4637 139.686 37.6756C142.235 38.265 141.046 42.1364 139.698 44.44Z" fill="white"/>
<path d="M164.381 354.759L161.951 354.616C162.001 354.616 162.228 354.604 163.137 354.651C164 354.701 164.858 354.778 165.721 354.82L164.366 354.755" fill="white"/>
<path d="M289.031 34.4519C288.491 34.0043 288.287 33.8384 287.65 33.3213L289.031 34.4519Z" fill="white"/>
<path d="M96.6128 75.1687C93.9482 79.6565 88.5034 82.0488 87.6371 78.1503C86.6975 73.9129 92.3348 67.3218 96.3818 67.9305C98.6267 68.516 98.3533 72.2372 96.609 75.1726" fill="white"/>
<path d="M167.723 16.6373C166.694 19.5957 164.634 20.813 164.014 19.4031C163.156 17.4501 165.936 12.6233 167.561 12.5C168.547 12.7273 168.196 15.2736 167.723 16.6334" fill="white"/>
<path d="M216.016 6.27838C219.642 7.2683 222.715 8.44695 222.865 8.90917C221.891 9.6179 207.664 4.80314 207.622 4.68373C208.096 4.48344 212.489 5.31928 216.019 6.27838" fill="white"/>
<path d="M94.6161 325.061C95.8329 326.791 95.5364 327.827 93.8999 327.58C90.3111 327.041 82.8718 321.043 84.774 319.448C85.2283 319.067 86.0331 319.225 86.5106 319.317C89.0481 319.949 92.9873 322.738 94.6199 325.061" fill="white"/>
<path d="M28.0211 201.944C27.3126 206.74 24.8097 205.9 23.9856 205.627C23.9856 205.627 23.9856 205.627 23.9818 205.627C23.9779 205.627 23.9818 205.627 23.9779 205.627C23.9741 205.627 23.9779 205.627 23.9741 205.627C23.9702 205.627 23.9741 205.627 23.9702 205.627C23.9664 205.627 23.9702 205.627 23.9664 205.627C23.9625 205.627 23.9664 205.627 23.9625 205.627C23.9587 205.627 23.9625 205.627 23.9587 205.627C19.0299 203.138 19.5536 192.726 22.4801 191.709C23.2155 191.455 23.9587 191.717 24.4054 191.871C27.5628 193.196 28.4408 199.144 28.0249 201.96" fill="white"/>
<path d="M174.052 0.0369461C174.103 0.0563867 174.165 0.0836034 174.215 0.103044C174.13 0.068051 174.044 0.0369461 173.955 0.00195312C173.982 0.0136175 174.021 0.0291699 174.052 0.0408342" fill="white"/>
<path d="M173.964 0.00457641C173.964 0.00457641 173.983 0.0183056 173.987 0.0228821C173.978 0.0137292 173.964 0.00457641 173.955 0C173.955 0 173.955 0 173.96 0.00457641" fill="white"/>
<path d="M32.7749 247.72C33.3024 253.17 30.0024 251.314 29.0898 250.516C25.2932 247.199 23.518 239.495 26.5253 239.372C26.8796 239.356 27.2647 239.491 27.5458 239.591C31.1961 241.125 32.7017 246.984 32.7749 247.72Z" fill="white"/>
<path d="M173.969 0C173.969 0 173.996 0.00457041 174.005 0.00914082C173.987 0.00914082 173.973 0 173.955 0H173.964" fill="white"/>
<path d="M33.7787 153.562C31.7879 159.082 28.4841 158.812 27.1711 156.212C24.9801 151.867 27.9527 144.147 31.4683 145.052C31.5877 145.083 31.7417 145.145 31.8572 145.183C35.2958 146.628 34.0713 152.741 33.7748 153.562" fill="white"/>
<path d="M46.6995 286.286C48.2744 289.522 46.041 288.837 46.0179 288.829C43.6306 288.016 38.6171 281.359 40.2613 280.362C40.4962 280.219 40.8928 280.258 41.4357 280.481C44.2582 281.768 46.0564 284.969 46.6956 286.286" fill="white"/>
<path d="M254.424 12.2807C256.638 13.3208 259.118 14.6075 259.43 14.9542C259.13 15.0774 251.305 11.2869 250.778 10.9093C250.743 10.8824 250.693 10.84 250.666 10.8053C250.943 10.6975 253.978 12.0727 254.424 12.2807Z" fill="white"/>
<path d="M115.966 343.737C117.344 344.515 117.375 344.669 117.391 344.743C117.005 345.263 110.356 342.339 110.201 341.584C110.163 341.395 110.625 341.461 110.875 341.499C112.065 341.877 113.717 342.47 115.966 343.737Z" fill="white"/>
<path d="M215.962 3.38305C217.406 3.67581 219.966 4.24594 220.925 4.78525C219.912 5.02023 210.721 2.92464 210.467 2.65498C211.002 2.38918 215.912 3.37149 215.962 3.38305Z" fill="white"/>
<path d="M48.6582 108.476C46.2939 113.172 43.4868 112.575 42.8053 110.699C42.0275 108.549 44.307 102.17 48.4426 102.424C48.9932 102.933 50.6682 104.478 48.6543 108.476" fill="white"/>
<path d="M156.697 15.6034C154.957 17.5796 154.19 17.541 153.902 17.5256C152.565 17.1674 155.761 13.9932 157.198 13.2073C157.667 12.9492 157.91 12.93 158.076 12.9146C158.241 13.0109 158.749 13.3036 156.72 15.6072" fill="white"/>
<path d="M118.774 40.4011C115.717 43.8218 113.903 42.982 113.857 42.0806C113.796 40.7979 117.257 36.4834 120.064 36.5566C120.43 36.7376 121.551 37.2924 118.774 40.4011Z" fill="white"/>
<path d="M69.3694 317.461C70.2243 318.401 70.4784 318.856 70.1511 318.852C68.9921 318.832 64.0056 314.618 64.5331 314.106C64.6255 314.017 64.9143 314.125 65.0876 314.191C66.778 314.899 69.096 317.164 69.3656 317.461" fill="white"/>
<path d="M72.2031 68.1288C69.9582 70.86 68.1676 70.5249 67.9828 69.4386C67.7479 68.0826 70.4934 63.7874 73.3159 63.9684C74.5442 64.9161 73.1465 66.9809 72.2031 68.1288Z" fill="white"/>
<path d="M146.942 13.8249C144.293 15.5122 144.466 14.8034 144.497 14.7187C144.709 14.0753 148.051 12.0144 148.756 12.0915C149.287 12.261 146.969 13.8095 146.942 13.8249Z" fill="white"/>
<path d="M8.43339 234.42C8.80689 235.934 8.74143 236.692 8.26781 236.396C7.12418 235.679 5.36831 230.271 6.24625 230.175C6.31941 230.167 6.42723 230.221 6.54659 230.317C7.5362 231.238 8.15229 233.283 8.43339 234.42Z" fill="white"/>
<path d="M9.77275 140.618C8.85245 143.053 8.24791 142.641 8.02073 142.483C6.5806 140.961 8.43274 136.092 9.43004 136.107C9.56482 136.107 9.66493 136.181 9.74964 136.238C10.7893 137.151 9.94987 140.202 9.78815 140.63" fill="white"/>
<path d="M2.87206 186.856C2.71804 190.184 1.92482 189.675 1.58982 189.302C0.453889 188.034 0.461591 182.545 1.60137 182.699C1.68993 182.711 1.8093 182.772 1.90941 182.849C2.83741 183.766 2.87206 186.825 2.87206 186.852" fill="white"/>
<path d="M213.171 0.41178C213.807 0.508085 215.89 0.83167 216.025 1.02043C215.643 1.18607 210.303 0.32318 210.021 0.172944C210.021 0.161387 210.021 0.145979 210.021 0.138274C210.387 0.0419693 212.605 0.327032 213.167 0.41178" fill="white"/>
<path d="M27.763 97.2401C26.4923 99.3396 25.6875 99.1893 25.522 98.4112C25.2678 97.2055 27.2778 93.4496 28.5023 94.0813C28.6217 94.3664 28.9798 95.2331 27.763 97.2401Z" fill="#DB7531"/>
<path d="M102.532 35.379C100.095 37.2357 99.7828 36.4268 99.8213 36.1879C99.9599 35.3559 102.89 32.9444 103.968 33.2603C104.7 33.6686 102.555 35.3597 102.536 35.379" fill="white"/>
<path d="M98.8045 338.635C99.5438 339.009 99.7556 339.116 99.8442 339.174C99.54 339.151 95.7895 337.306 95.5508 337.113C95.5893 337.118 95.6522 337.138 95.7395 337.171C96.5904 337.525 98.7814 338.627 98.8045 338.639" fill="white"/>
<path d="M25.1916 274.593C25.8732 275.814 25.8077 275.914 25.7807 275.96C25.3418 276.029 22.5501 271.881 22.7311 271.43C22.7311 271.422 22.7465 271.411 22.7503 271.407C22.8119 271.403 22.8389 271.415 22.9852 271.53C23.8786 272.331 25.1762 274.57 25.1878 274.589" fill="white"/>
<path d="M207.315 81.2266C209.586 79.1888 212.633 78.214 215.684 78.5732C218.733 78.9327 221.469 80.5884 223.204 83.0977L223.539 83.6104L311.461 227.803L387.268 147.415L374.688 133.679C374.177 133.121 374.446 132.221 375.179 132.034L432.413 117.465C433.184 117.269 433.865 118.008 433.605 118.76L414.277 174.72C414.03 175.436 413.107 175.627 412.595 175.068L401.71 163.184L317.39 252.601C315.251 254.868 312.234 256.077 309.142 255.935L308.523 255.889C305.218 255.543 302.262 253.675 300.531 250.838L212.413 106.322L104.718 214.722C102.583 216.87 99.643 218.003 96.6367 217.856L96.0342 217.811C92.8211 217.471 89.9342 215.69 88.1865 212.973L90.7471 211.325L88.1846 212.972L88.1816 212.969C88.1795 212.965 88.1772 212.959 88.1729 212.952C88.1641 212.939 88.151 212.917 88.1338 212.891C88.0992 212.837 88.0473 212.757 87.9795 212.651C87.8432 212.439 87.6407 212.125 87.377 211.715C86.8492 210.894 86.0739 209.691 85.0889 208.159C83.1186 205.096 80.3051 200.718 76.9277 195.467L74.2344 191.279C67.8724 181.387 60.0159 169.171 52.1602 156.955L49.5303 152.866C41.4211 140.256 33.4903 127.924 27.3955 118.444C24.0196 113.193 21.2069 108.816 19.2383 105.753C18.3429 104.359 17.6222 103.236 17.1025 102.427C16.3285 101.089 29.0179 80.576 29.0449 80.5322C29.0498 80.5378 29.1031 80.5993 29.124 80.624C29.2365 80.7569 29.3444 80.8964 29.4453 81.0371L29.7295 81.458L29.7363 81.4707L98.9551 190.261L206.872 81.6475L206.938 81.583L207.255 81.2832L207.315 81.2266Z" fill="url(#paint0_radial_2253_219132)"/>
<defs>
<radialGradient id="paint0_radial_2253_219132" cx="0" cy="0" r="1" gradientTransform="matrix(-513.906 -73.9996 814.885 -404.822 448.874 125)" gradientUnits="userSpaceOnUse">
<stop offset="0.0751911" stop-color="#F59342"/>
<stop offset="1" stop-color="#DB7531"/>
</radialGradient>
</defs>
</svg>
