<svg width="135" height="59" viewBox="0 0 135 59" fill="none" xmlns="http://www.w3.org/2000/svg">
<g clip-path="url(#clip0_2486_44689)">
<path d="M36.3206 48.6746C36.9898 49.226 37.3259 50.1374 37.3259 51.4155V58.2675H34.5882V52.0782C34.5882 51.5429 34.5178 51.1317 34.3737 50.845C34.1143 50.3222 33.6147 50.061 32.8847 50.061C31.9849 50.061 31.367 50.4434 31.0307 51.2083C30.8579 51.6131 30.7715 52.1293 30.7715 52.7572V58.2675H28.0977V48.1073H30.6881V49.5924C31.0307 49.0698 31.3542 48.6938 31.6583 48.4643C32.2058 48.0531 32.9007 47.8491 33.7429 47.8491C34.7899 47.846 35.6512 48.1233 36.3206 48.6746Z" fill="#949498"/>
<path d="M38.6455 50.0801V48.1839H40.0704V45.3442H42.7152V48.1839H44.3771V50.0801H42.7152V55.4598C42.7152 55.8772 42.7696 56.1354 42.8753 56.2405C42.981 56.3426 43.3077 56.3936 43.8519 56.3936C43.932 56.3936 44.0184 56.3936 44.1113 56.3903C44.2011 56.3872 44.2906 56.384 44.3771 56.3776V58.3664L43.1091 58.4141C41.8443 58.4588 40.983 58.2388 40.5186 57.7608C40.2176 57.4548 40.0672 56.9864 40.0672 56.3521V50.0864H38.6455V50.0801Z" fill="#949498"/>
<path d="M52.635 48.2829C53.2881 48.592 53.8261 49.0765 54.252 49.7394C54.7195 50.4693 54.8668 51.1162 54.998 51.7758C55.107 52.3144 55.2094 53.1335 55.107 54.147C52.9871 54.147 50.8674 54.147 48.7476 54.147C48.8053 54.4211 49.007 55.1796 49.6602 55.5428C49.9068 55.6799 50.1534 55.7118 50.6432 55.782C51.2772 55.868 51.7832 55.8616 52.0329 55.852C52.5966 55.8328 53.4354 55.7596 54.4761 55.5015C54.4794 56.228 54.4858 56.9547 54.4889 57.6813C54.396 57.7164 54.268 57.7675 54.1111 57.8183C53.8838 57.8949 53.7076 57.9395 53.5764 57.9714C53.0608 58.102 52.8014 58.169 52.6766 58.1944C51.8537 58.3697 50.9506 58.2995 50.5249 58.2645C49.7883 58.2071 49.3593 58.1754 48.7989 57.9745C48.2385 57.7738 47.7135 57.4647 47.2299 57.0535C46.2789 56.244 45.8018 54.931 45.8018 53.108C45.8018 51.403 46.2309 50.0931 47.089 49.1817C47.9472 48.2701 49.0614 47.8145 50.432 47.8145C51.2485 47.8208 51.9818 47.9738 52.635 48.2829ZM49.0935 50.568C48.9046 50.7911 48.8213 51.0174 48.7925 51.1034C48.674 51.4603 48.7124 51.7727 48.7413 51.9256C49.9164 51.9225 51.0915 51.9161 52.2667 51.9129C52.2763 51.5687 52.2251 51.2915 52.1739 51.1034C52.1098 50.8612 52.0554 50.6636 51.8889 50.4756C51.7512 50.3225 51.6072 50.2493 51.4694 50.1791C51.2934 50.0931 50.9314 49.921 50.4384 49.9434C50.3038 49.9498 49.5771 49.9975 49.0935 50.568Z" fill="#949498"/>
<path d="M62.228 47.8524C62.2632 47.8555 62.3401 47.8588 62.4586 47.8652V50.59C62.2888 50.5708 62.1384 50.5581 62.0071 50.5517C61.8757 50.5453 61.7702 50.5422 61.6869 50.5422C60.611 50.5422 59.8874 50.8896 59.519 51.5876C59.3142 51.9795 59.2085 52.5819 59.2085 53.3977V58.2611H56.5156V48.085H59.0676V49.8602C59.4807 49.1814 59.8392 48.7193 60.1466 48.4674C60.6462 48.05 61.2963 47.8428 62.0967 47.8428C62.1512 47.846 62.1928 47.8491 62.228 47.8524Z" fill="#949498"/>
<path d="M72.4747 48.6746C73.1441 49.226 73.4802 50.1374 73.4802 51.4155V58.2675H70.7425V52.0782C70.7425 51.5429 70.672 51.1317 70.528 50.845C70.2686 50.3222 69.769 50.061 69.039 50.061C68.1392 50.061 67.5213 50.4434 67.185 51.2083C67.0121 51.6131 66.9256 52.1293 66.9256 52.7572V58.2675H64.252V48.1073H66.8424V49.5924C67.185 49.0698 67.5085 48.6938 67.8126 48.4643C68.3601 48.0531 69.055 47.8491 69.8971 47.8491C70.9442 47.846 71.8055 48.1233 72.4747 48.6746Z" fill="#949498"/>
<path d="M79.5125 51.6197C79.9864 51.559 80.3258 51.4826 80.5275 51.3933C80.8926 51.2371 80.7005 50.6571 80.7005 50.6571C80.4795 50.3033 80.5596 50.3767 80.281 50.2236C79.8296 49.975 79.2212 49.9878 79.045 49.9942C78.7665 50.0038 78.8177 49.9464 78.4879 49.9911C78.3694 50.0069 78.1772 50.0388 77.9019 50.0993C77.2423 50.246 76.5987 50.4628 76.192 50.6124C76.0416 49.9911 75.891 49.3695 75.7374 48.7481C76.0096 48.5824 76.397 48.3721 76.8901 48.1936C77.934 47.8207 78.8017 47.8335 79.4614 47.8494C80.2522 47.8685 80.9919 48.0947 82.039 48.6366C82.8683 49.0668 83.5599 49.7329 83.5599 50.9216V55.4503C83.5599 55.7658 83.5663 56.1451 83.5791 56.5913C83.5983 56.9291 83.5952 57.9586 83.5952 57.9586C82.7626 57.9553 81.9269 57.9522 81.0943 57.9522C81.1328 57.8119 81.1456 56.9482 81.1071 56.7984C80.7549 57.1841 80.3482 57.5155 79.8871 57.7863C79.3364 58.1051 78.7153 58.2677 78.0204 58.2677C77.1334 58.2677 76.4034 58.0127 75.8238 57.5027C75.2475 56.9929 74.9561 56.2694 74.9561 55.3324C74.9561 54.1182 75.4651 52.9103 76.3937 52.3653C76.903 52.069 77.6522 51.8586 78.6416 51.7312L79.5125 51.6197ZM80.8926 53.1781C80.7197 53.2833 80.5468 53.194 80.3739 53.2577C80.2009 53.3246 80.1145 53.2769 79.8104 53.331L79.2723 53.3788C78.7024 53.4776 78.5967 53.4298 78.347 53.5733C77.9244 53.8155 77.7162 54.1915 77.7162 54.7014C77.7162 55.1572 77.8444 55.4853 78.1036 55.6862C78.3599 55.887 78.6737 55.9889 79.0419 55.9889C79.6279 55.9889 79.6343 56.1643 80.1273 55.8264C80.6204 55.4917 80.8734 54.8767 80.8926 53.9876V53.1781Z" fill="#949498"/>
<path d="M124.963 51.6197C125.437 51.559 125.776 51.4826 125.978 51.3933C126.343 51.2371 126.151 50.6571 126.151 50.6571C125.93 50.3033 126.01 50.3767 125.731 50.2236C125.28 49.975 124.671 49.9878 124.495 49.9942C124.217 50.0038 124.268 49.9464 123.938 49.9911C123.82 50.0069 123.627 50.0388 123.352 50.0993C122.692 50.246 122.049 50.4628 121.642 50.6124C121.492 49.9911 121.341 49.3695 121.188 48.7481C121.46 48.5824 121.847 48.3721 122.34 48.1936C123.384 47.8207 124.252 47.8335 124.912 47.8494C125.702 47.8685 126.442 48.0947 127.489 48.6366C128.319 49.0668 129.01 49.7329 129.01 50.9216V55.4503C129.01 55.7658 129.016 56.1451 129.029 56.5913C129.049 56.9291 129.045 57.9586 129.045 57.9586C128.213 57.9553 127.377 57.9522 126.545 57.9522C126.583 57.8119 126.596 56.9482 126.557 56.7984C126.205 57.1841 125.798 57.5155 125.337 57.7863C124.787 58.1051 124.165 58.2677 123.471 58.2677C122.584 58.2677 121.854 58.0127 121.274 57.5027C120.698 56.9929 120.406 56.2694 120.406 55.3324C120.406 54.1182 120.915 52.9103 121.844 52.3653C122.353 52.069 123.102 51.8586 124.092 51.7312L124.963 51.6197ZM126.343 53.1781C126.17 53.2833 125.997 53.194 125.824 53.2577C125.651 53.3246 125.565 53.2769 125.261 53.331L124.723 53.3788C124.153 53.4776 124.047 53.4298 123.797 53.5733C123.374 53.8155 123.166 54.1915 123.166 54.7014C123.166 55.1572 123.294 55.4853 123.554 55.6862C123.81 55.887 124.124 55.9889 124.492 55.9889C125.078 55.9889 125.084 56.1643 125.577 55.8264C126.071 55.4917 126.324 54.8767 126.343 53.9876V53.1781Z" fill="#949498"/>
<path d="M85.0488 50.0801V48.1839H86.4738V45.3442H89.1187V48.1839H90.7806V50.0801H89.1187V55.4598C89.1187 55.8772 89.1731 56.1354 89.2788 56.2405C89.3845 56.3457 89.7111 56.3936 90.2554 56.3936C90.3354 56.3936 90.4219 56.3936 90.5148 56.3903C90.6077 56.3872 90.6941 56.384 90.7806 56.3776V58.3664L89.5126 58.4141C88.2477 58.4588 87.3863 58.2388 86.9221 57.7608C86.6211 57.4548 86.4705 56.9864 86.4705 56.3521V50.0864H85.0488V50.0801Z" fill="#949498"/>
<path d="M95.7697 48.0918H93.0576V58.2679H95.7697V48.0918Z" fill="#949498"/>
<path d="M94.3609 47.0014C95.3159 47.0014 96.0901 46.231 96.0901 45.2806C96.0901 44.33 95.3159 43.5596 94.3609 43.5596C93.406 43.5596 92.6318 44.33 92.6318 45.2806C92.6318 46.231 93.406 47.0014 94.3609 47.0014Z" fill="#949498"/>
<path d="M106.452 57.0214C105.587 58.0827 104.278 58.6117 102.52 58.6117C100.762 58.6117 99.4521 58.0827 98.5876 57.0214C97.723 55.9602 97.2939 54.6854 97.2939 53.1907C97.2939 51.7214 97.7263 50.4499 98.5876 49.3758C99.449 48.3018 100.762 47.7632 102.52 47.7632C104.278 47.7632 105.587 48.3018 106.452 49.3758C107.316 50.4499 107.745 51.7247 107.745 53.1907C107.745 54.6854 107.313 55.9633 106.452 57.0214ZM104.313 55.5522C104.732 54.9976 104.94 54.2136 104.94 53.1938C104.94 52.174 104.732 51.39 104.313 50.8387C103.893 50.2873 103.294 50.0132 102.513 50.0132C101.732 50.0132 101.13 50.2873 100.707 50.8387C100.285 51.39 100.073 52.174 100.073 53.1938C100.073 54.2136 100.285 55.0009 100.707 55.5522C101.13 56.1067 101.732 56.3809 102.513 56.3809C103.294 56.3809 103.893 56.1036 104.313 55.5522Z" fill="#949498"/>
<path d="M117.47 48.6746C118.139 49.226 118.475 50.1374 118.475 51.4155V58.2675H115.738V52.0782C115.738 51.5429 115.667 51.1317 115.523 50.845C115.264 50.3222 114.764 50.061 114.034 50.061C113.134 50.061 112.516 50.4434 112.18 51.2083C112.007 51.6131 111.921 52.1293 111.921 52.7572V58.2675H109.247V48.1073H111.838V49.5924C112.18 49.0698 112.503 48.6938 112.808 48.4643C113.355 48.0531 114.05 47.8491 114.892 47.8491C115.939 47.846 116.801 48.1233 117.47 48.6746Z" fill="#949498"/>
<path d="M134.143 58.2678H131.469V44.5063H134.143V58.2678Z" fill="#949498"/>
<path d="M15.7441 0.624512H9.17676V14.0449H15.7441V0.624512Z" fill="#01AEF0"/>
<path d="M34.9242 0.624512H27.918V14.0449H34.9242V0.624512Z" fill="#01AEF0"/>
<path d="M34.9242 25.1167H27.918V38.8876H34.9242V25.1167Z" fill="#01AEF0"/>
<path d="M43.6787 14.0449V0.624512H65.046V7.33631H50.5087V14.0449H43.6787Z" fill="#01AEF0"/>
<path d="M43.6787 25.1167H50.0732V32.0006H65.046V38.8845H43.6787V25.1167Z" fill="#01AEF0"/>
<path d="M98.4077 34.7922C98.5837 34.8782 95.9548 32.8737 94.5556 30.6937C93.1531 28.517 87.5496 21.1073 87.5496 21.1073C87.5496 21.1073 93.5054 17.184 93.0666 11.6929C92.6279 6.20492 88.6862 1.4117 84.3091 1.06113C79.9319 0.713747 71.0879 0.624512 71.0879 0.624512V38.8875H78.0043V23.8098H80.1048C80.1048 23.8098 82.2085 23.7207 83.6079 25.9005C85.0104 28.0805 88.5133 32.7877 88.5133 32.7877C88.5133 32.7877 89.8262 34.703 91.5777 36.3602C94.0496 38.6963 98.4077 38.8875 98.4077 38.8875C98.4077 38.8875 98.3884 34.789 98.4013 34.789C98.4013 34.789 98.4044 34.789 98.4077 34.7922ZM83.7039 15.5875H78.2348V6.41527C78.2348 6.41527 80.6939 6.35152 82.628 6.72123C84.0913 6.99848 86.1599 7.4861 86.1919 10.8802C86.2238 14.2744 83.7039 15.5875 83.7039 15.5875Z" fill="#01AEF0"/>
<path d="M119.955 0.624613C119.9 0.599117 101.633 0.624613 101.633 0.624613V39.235H119.369C119.369 39.235 134.982 35.4297 134.822 19.31C134.662 3.19014 120.006 0.653296 119.955 0.624613ZM118.892 32.1504H108.431V7.25993H118.943C118.943 7.25993 127.601 10.1123 127.601 19.7051C127.601 29.298 118.892 32.1504 118.892 32.1504Z" fill="#01AEF0"/>
<path d="M0.508789 52.2219H9.09024V22.9366H0.508789V16.2217H65.0458V22.8506H15.744V52.2219H25.0267V57.7991H0.508789V52.2219Z" fill="#01AEF0"/>
</g>
<defs>
<clipPath id="clip0_2486_44689">
<rect width="134.316" height="58" fill="white" transform="translate(0.508789 0.611816)"/>
</clipPath>
</defs>
</svg>
