<svg width="247" height="151" viewBox="0 0 247 151" fill="none" xmlns="http://www.w3.org/2000/svg">
<circle opacity="0.8" cx="46.9244" cy="59.1495" r="10.7965" fill="#3F4A37"/>
<circle opacity="0.8" cx="58.8009" cy="49.4327" r="11.8761" fill="#3F4A37"/>
<circle opacity="0.8" cx="69.5979" cy="29.9992" r="4.31858" fill="#3F4A37"/>
<circle opacity="0.8" cx="37.2078" cy="66.7068" r="5.39823" fill="#3F4A37"/>
<circle opacity="0.8" cx="33.4292" cy="82.3618" r="13.4956" fill="#3F4A37"/>
<circle opacity="0.8" cx="47.4646" cy="83.4417" r="10.2566" fill="#3F4A37"/>
<circle opacity="0.8" cx="18.8543" cy="91.5389" r="15.115" fill="#3F4A37"/>
<circle opacity="0.8" cx="59.8808" cy="123.928" r="26.9911" fill="#87195B"/>
<circle opacity="0.8" cx="89.5713" cy="99.6363" r="14.5752" fill="#F59342"/>
<circle opacity="0.8" cx="109.544" cy="93.6981" r="16.1947" fill="#F59342"/>
<circle opacity="0.8" cx="124.66" cy="113.132" r="16.1947" fill="#F59342"/>
<circle opacity="0.8" cx="145.172" cy="103.415" r="16.1947" fill="#F59342"/>
<circle opacity="0.8" cx="150.571" cy="125.008" r="9.71681" fill="#F59342"/>
<circle opacity="0.8" cx="162.987" cy="116.91" r="10.2566" fill="#F59342"/>
<circle opacity="0.8" cx="179.722" cy="130.406" r="17.2743" fill="#F59342"/>
<circle opacity="0.8" cx="215.027" cy="30.5389" r="29.6903" fill="#206095"/>
<circle opacity="0.8" cx="187.278" cy="48.3532" r="21.5929" fill="#206095"/>
<circle opacity="0.8" cx="166.766" cy="21.3617" r="16.1947" fill="#206095"/>
<circle opacity="0.8" cx="159.208" cy="60.2294" r="16.1947" fill="#206095"/>
<circle opacity="0.8" cx="156.508" cy="93.1584" r="8.09735" fill="#206095"/>
<circle opacity="0.8" cx="182.961" cy="78.5831" r="10.7965" fill="#206095"/>
<circle opacity="0.8" cx="195.916" cy="86.1406" r="9.71681" fill="#206095"/>
<circle opacity="0.8" cx="71.2168" cy="87.7603" r="14.5752" fill="#87195B"/>
<circle opacity="0.8" cx="82.5531" cy="66.7069" r="16.1947" fill="#87195B"/>
<circle opacity="0.8" cx="110.624" cy="59.1496" r="21.5929" fill="#87195B"/>
<circle opacity="0.8" cx="90.1109" cy="37.5567" r="10.7965" fill="#87195B"/>
<circle opacity="0.8" cx="106.306" cy="31.0787" r="11.8761" fill="#87195B"/>
<circle opacity="0.8" cx="111.704" cy="20.2825" r="5.39823" fill="#87195B"/>
<circle opacity="0.8" cx="121.421" cy="19.2025" r="7.55752" fill="#87195B"/>
<circle opacity="0.8" cx="128.978" cy="25.6805" r="5.39823" fill="#87195B"/>
<circle opacity="0.8" cx="134.376" cy="23.5213" r="5.39823" fill="#87195B"/>
<circle opacity="0.8" cx="151.65" cy="15.9639" r="9.71681" fill="#87195B"/>
<circle opacity="0.8" cx="151.65" cy="49.4329" r="5.39823" fill="#87195B"/>
<path d="M1.14746 82.4805H245.147" stroke="#8EAF7F" stroke-width="2" stroke-linecap="round" stroke-dasharray="5 5"/>
</svg>
