<svg width="244" height="161" viewBox="0 0 244 161" fill="none" xmlns="http://www.w3.org/2000/svg">
<path d="M180.261 158.628V1" stroke="#8EAF7F" stroke-width="2" stroke-linecap="round" stroke-dasharray="5 5"/>
<path d="M201.176 133.796L208.891 123H218.106" stroke="#87195B" stroke-width="2"/>
<path d="M181.257 129.478L155.238 118.542L141.245 113.964L136.216 106.335L129.657 103.029L122.442 92.6018L111.291 85.4809L94.0176 75.8169L82.8667 61.0665L62.314 48.605L51.1631 40.2125H38.4816L21.6459 22.919L6.12208 15.0352H0" stroke="#3F4A37" stroke-width="2"/>
<path d="M216.114 138.115L201.426 133.927L189.587 132.357L181.257 129.478" stroke="#F59342" stroke-width="2"/>
<path d="M195.636 71L194.405 67.8281H190.399L189.176 71H188L191.91 60.9648H192.956L196.839 71H195.636ZM194.057 66.7959L192.888 63.6445C192.86 63.5625 192.815 63.4281 192.751 63.2412C192.692 63.0544 192.63 62.8607 192.566 62.6602C192.503 62.4596 192.45 62.2979 192.409 62.1748C192.364 62.3617 192.313 62.5485 192.259 62.7354C192.209 62.9176 192.159 63.0885 192.108 63.248C192.058 63.403 192.015 63.5352 191.979 63.6445L190.789 66.7959H194.057ZM201.392 64.3965H199.525V71H198.391V64.3965H197.064V63.8496L198.391 63.4736V62.9746C198.391 62.3457 198.484 61.8353 198.671 61.4434C198.858 61.0469 199.129 60.7552 199.484 60.5684C199.84 60.3815 200.273 60.2881 200.783 60.2881C201.07 60.2881 201.332 60.3132 201.569 60.3633C201.811 60.4134 202.023 60.4704 202.205 60.5342L201.911 61.4297C201.756 61.3796 201.581 61.334 201.385 61.293C201.193 61.2474 200.997 61.2246 200.797 61.2246C200.364 61.2246 200.043 61.3659 199.833 61.6484C199.628 61.9264 199.525 62.3639 199.525 62.9609V63.5078H201.392V64.3965ZM205.192 70.207C205.379 70.207 205.571 70.1911 205.767 70.1592C205.963 70.1273 206.122 70.0885 206.245 70.043V70.9248C206.113 70.984 205.928 71.0342 205.691 71.0752C205.459 71.1162 205.231 71.1367 205.008 71.1367C204.611 71.1367 204.251 71.0684 203.928 70.9316C203.604 70.7904 203.344 70.5534 203.148 70.2207C202.957 69.888 202.861 69.4277 202.861 68.8398V64.3965H201.795V63.8428L202.868 63.3984L203.319 61.7715H204.003V63.5078H206.197V64.3965H204.003V68.8057C204.003 69.2751 204.11 69.626 204.324 69.8584C204.543 70.0908 204.832 70.207 205.192 70.207ZM210.647 63.3711C211.285 63.3711 211.832 63.5124 212.288 63.7949C212.744 64.0775 213.092 64.474 213.334 64.9844C213.576 65.4902 213.696 66.0827 213.696 66.7617V67.4658H208.521C208.535 68.3454 208.754 69.0153 209.178 69.4756C209.602 69.9359 210.199 70.166 210.969 70.166C211.443 70.166 211.862 70.1227 212.227 70.0361C212.591 69.9495 212.969 69.8219 213.361 69.6533V70.6514C212.983 70.82 212.607 70.943 212.233 71.0205C211.864 71.098 211.427 71.1367 210.921 71.1367C210.201 71.1367 209.572 70.9909 209.034 70.6992C208.501 70.403 208.086 69.9701 207.79 69.4004C207.494 68.8307 207.346 68.1335 207.346 67.3086C207.346 66.502 207.48 65.8047 207.749 65.2168C208.022 64.6243 208.405 64.1686 208.897 63.8496C209.394 63.5306 209.978 63.3711 210.647 63.3711ZM210.634 64.3008C210.028 64.3008 209.545 64.499 209.185 64.8955C208.825 65.292 208.61 65.8457 208.542 66.5566H212.507C212.502 66.11 212.432 65.7181 212.295 65.3809C212.163 65.0391 211.96 64.7747 211.687 64.5879C211.413 64.3965 211.062 64.3008 210.634 64.3008ZM219.028 63.3711C219.179 63.3711 219.336 63.3802 219.5 63.3984C219.664 63.4121 219.81 63.4326 219.938 63.46L219.794 64.5127C219.671 64.4808 219.534 64.4557 219.384 64.4375C219.233 64.4193 219.092 64.4102 218.96 64.4102C218.659 64.4102 218.374 64.4717 218.105 64.5947C217.841 64.7132 217.609 64.8864 217.408 65.1143C217.208 65.3376 217.05 65.6087 216.937 65.9277C216.823 66.2422 216.766 66.5931 216.766 66.9805V71H215.624V63.5078H216.567L216.69 64.8887H216.738C216.893 64.6107 217.08 64.3577 217.299 64.1299C217.518 63.8975 217.771 63.7129 218.058 63.5762C218.349 63.4395 218.673 63.3711 219.028 63.3711ZM193.64 81.8877C193.088 81.8877 192.591 81.9834 192.149 82.1748C191.712 82.3617 191.338 82.6351 191.028 82.9951C190.723 83.3506 190.488 83.7812 190.324 84.2871C190.16 84.793 190.078 85.3626 190.078 85.9961C190.078 86.8346 190.208 87.5638 190.468 88.1836C190.732 88.7988 191.124 89.2751 191.644 89.6123C192.168 89.9495 192.822 90.1182 193.605 90.1182C194.052 90.1182 194.471 90.0817 194.863 90.0088C195.26 89.9313 195.645 89.8356 196.019 89.7217V90.7334C195.654 90.8701 195.271 90.9704 194.87 91.0342C194.469 91.1025 193.993 91.1367 193.441 91.1367C192.425 91.1367 191.575 90.9271 190.892 90.5078C190.213 90.084 189.702 89.487 189.36 88.7168C189.023 87.9466 188.854 87.0374 188.854 85.9893C188.854 85.2327 188.959 84.5423 189.169 83.918C189.383 83.2891 189.693 82.7467 190.099 82.291C190.509 81.8353 191.01 81.4844 191.603 81.2383C192.2 80.9876 192.883 80.8623 193.653 80.8623C194.159 80.8623 194.647 80.9124 195.116 81.0127C195.586 81.113 196.009 81.2565 196.388 81.4434L195.923 82.4277C195.604 82.2819 195.253 82.1566 194.87 82.0518C194.492 81.9424 194.082 81.8877 193.64 81.8877ZM206.854 85.9893C206.854 86.7594 206.756 87.4613 206.56 88.0947C206.364 88.7236 206.072 89.266 205.685 89.7217C205.302 90.1729 204.826 90.5215 204.256 90.7676C203.686 91.0137 203.025 91.1367 202.273 91.1367C201.499 91.1367 200.822 91.0137 200.243 90.7676C199.669 90.5215 199.19 90.1706 198.808 89.7148C198.429 89.2591 198.145 88.7145 197.953 88.0811C197.766 87.4476 197.673 86.7458 197.673 85.9756C197.673 84.9548 197.841 84.0592 198.179 83.2891C198.516 82.5189 199.026 81.9196 199.71 81.4912C200.398 81.0628 201.259 80.8486 202.294 80.8486C203.283 80.8486 204.115 81.0605 204.789 81.4844C205.468 81.9082 205.981 82.5052 206.327 83.2754C206.678 84.041 206.854 84.9456 206.854 85.9893ZM198.896 85.9893C198.896 86.8369 199.017 87.5706 199.259 88.1904C199.5 88.8102 199.869 89.2887 200.366 89.626C200.868 89.9632 201.503 90.1318 202.273 90.1318C203.048 90.1318 203.682 89.9632 204.174 89.626C204.671 89.2887 205.037 88.8102 205.274 88.1904C205.511 87.5706 205.63 86.8369 205.63 85.9893C205.63 84.6995 205.359 83.6924 204.816 82.9678C204.279 82.2386 203.438 81.874 202.294 81.874C201.519 81.874 200.881 82.0404 200.38 82.373C199.879 82.7057 199.505 83.1797 199.259 83.7949C199.017 84.4056 198.896 85.137 198.896 85.9893ZM216.062 81.0059L212.473 91H211.304L207.715 81.0059H208.932L211.27 87.5889C211.365 87.8532 211.45 88.1061 211.522 88.3477C211.6 88.5892 211.668 88.8216 211.728 89.0449C211.787 89.2682 211.839 89.4847 211.885 89.6943C211.93 89.4847 211.983 89.2682 212.042 89.0449C212.101 88.8171 212.17 88.5824 212.247 88.3408C212.325 88.0947 212.411 87.8372 212.507 87.5684L214.831 81.0059H216.062ZM217.436 91V81.0059H218.598V91H217.436ZM229.282 85.9072C229.282 87.0329 229.077 87.974 228.667 88.7305C228.257 89.4824 227.662 90.0498 226.883 90.4326C226.108 90.8109 225.167 91 224.06 91H221.346V81.0059H224.36C225.377 81.0059 226.252 81.1927 226.985 81.5664C227.719 81.9355 228.284 82.4847 228.681 83.2139C229.082 83.9385 229.282 84.8363 229.282 85.9072ZM228.059 85.9482C228.059 85.0505 227.908 84.3099 227.607 83.7266C227.311 83.1432 226.874 82.7103 226.295 82.4277C225.721 82.1406 225.017 81.9971 224.183 81.9971H222.508V90.002H223.923C225.299 90.002 226.331 89.6624 227.02 88.9834C227.712 88.3044 228.059 87.2926 228.059 85.9482ZM188.561 107.746V106.734H191.951V107.746H188.561ZM197.427 111H196.319V103.918C196.319 103.649 196.319 103.419 196.319 103.228C196.324 103.032 196.328 102.854 196.333 102.694C196.342 102.53 196.354 102.364 196.367 102.195C196.226 102.341 196.094 102.466 195.971 102.571C195.848 102.672 195.695 102.797 195.513 102.947L194.371 103.863L193.776 103.091L196.483 101.006H197.427V111ZM207.776 105.265C207.776 105.871 207.733 106.461 207.646 107.035C207.564 107.609 207.421 108.145 207.216 108.642C207.015 109.138 206.742 109.574 206.396 109.947C206.049 110.321 205.614 110.615 205.09 110.829C204.57 111.039 203.948 111.144 203.224 111.144C203.028 111.144 202.804 111.13 202.554 111.103C202.303 111.08 202.098 111.046 201.938 111V110.016C202.107 110.075 202.305 110.123 202.533 110.159C202.761 110.191 202.984 110.207 203.203 110.207C204.055 110.207 204.725 110.025 205.213 109.66C205.701 109.291 206.051 108.792 206.266 108.163C206.48 107.53 206.601 106.819 206.628 106.03H206.546C206.409 106.249 206.229 106.452 206.006 106.639C205.787 106.821 205.521 106.969 205.206 107.083C204.892 107.192 204.525 107.247 204.105 107.247C203.527 107.247 203.021 107.129 202.588 106.892C202.16 106.655 201.825 106.311 201.583 105.859C201.346 105.408 201.228 104.864 201.228 104.226C201.228 103.537 201.357 102.943 201.617 102.441C201.882 101.936 202.251 101.546 202.725 101.272C203.199 100.999 203.757 100.862 204.399 100.862C204.892 100.862 205.343 100.956 205.753 101.143C206.163 101.329 206.519 101.61 206.819 101.983C207.125 102.353 207.359 102.811 207.523 103.357C207.692 103.904 207.776 104.54 207.776 105.265ZM204.399 101.826C203.793 101.826 203.301 102.024 202.923 102.421C202.549 102.817 202.362 103.414 202.362 104.212C202.362 104.873 202.524 105.395 202.848 105.777C203.171 106.16 203.67 106.352 204.345 106.352C204.81 106.352 205.211 106.258 205.548 106.071C205.89 105.884 206.152 105.647 206.334 105.36C206.521 105.073 206.614 104.779 206.614 104.479C206.614 104.178 206.569 103.872 206.478 103.562C206.391 103.253 206.257 102.968 206.074 102.708C205.892 102.444 205.662 102.232 205.384 102.072C205.106 101.908 204.778 101.826 204.399 101.826Z" fill="#3F4A37"/>
</svg>
