<svg width="244" height="158" viewBox="0 0 244 158" fill="none" xmlns="http://www.w3.org/2000/svg">
<mask id="path-1-inside-1_2465_87758" fill="white">
<path d="M40 0H110V26H40V0Z"/>
</mask>
<path d="M40 0H110V26H40V0Z" fill="#3F4A37"/>
<path d="M110 26V25H40V26V27H110V26Z" fill="white" mask="url(#path-1-inside-1_2465_87758)"/>
<mask id="path-3-inside-2_2465_87758" fill="white">
<path d="M40 26H110V72H40V26Z"/>
</mask>
<path d="M40 26H110V72H40V26Z" fill="#206095"/>
<path d="M110 72V71H40V72V73H110V72Z" fill="white" mask="url(#path-3-inside-2_2465_87758)"/>
<mask id="path-5-inside-3_2465_87758" fill="white">
<path d="M40 72H110V96H40V72Z"/>
</mask>
<path d="M40 72H110V96H40V72Z" fill="#F59342"/>
<path d="M110 96V95H40V96V97H110V96Z" fill="white" mask="url(#path-5-inside-3_2465_87758)"/>
<rect x="40" y="96" width="70" height="62" fill="#87195B"/>
<path d="M142.508 16.9609C142.508 17.638 142.339 18.2161 142 18.6953C141.667 19.1693 141.198 19.5312 140.594 19.7812C139.99 20.0312 139.279 20.1562 138.461 20.1562C138.029 20.1562 137.62 20.1354 137.234 20.0938C136.849 20.0521 136.495 19.9922 136.172 19.9141C135.849 19.8359 135.565 19.7396 135.32 19.625V18.3516C135.711 18.513 136.188 18.6641 136.75 18.8047C137.312 18.9401 137.901 19.0078 138.516 19.0078C139.089 19.0078 139.573 18.9323 139.969 18.7812C140.365 18.625 140.664 18.4036 140.867 18.1172C141.076 17.8255 141.18 17.4766 141.18 17.0703C141.18 16.6797 141.094 16.3542 140.922 16.0938C140.75 15.8281 140.464 15.5885 140.062 15.375C139.667 15.1562 139.125 14.9245 138.438 14.6797C137.953 14.5078 137.526 14.3203 137.156 14.1172C136.786 13.9089 136.477 13.6745 136.227 13.4141C135.977 13.1536 135.786 12.8516 135.656 12.5078C135.531 12.1641 135.469 11.7708 135.469 11.3281C135.469 10.7188 135.622 10.1979 135.93 9.76562C136.242 9.32812 136.672 8.99479 137.219 8.76562C137.771 8.53125 138.404 8.41406 139.117 8.41406C139.727 8.41406 140.289 8.47135 140.805 8.58594C141.326 8.70052 141.802 8.85417 142.234 9.04688L141.82 10.1875C141.409 10.0156 140.971 9.8724 140.508 9.75781C140.049 9.64323 139.576 9.58594 139.086 9.58594C138.596 9.58594 138.182 9.65885 137.844 9.80469C137.51 9.94531 137.255 10.1458 137.078 10.4062C136.901 10.6667 136.812 10.9766 136.812 11.3359C136.812 11.737 136.896 12.0703 137.062 12.3359C137.234 12.6016 137.505 12.8385 137.875 13.0469C138.25 13.25 138.745 13.4635 139.359 13.6875C140.031 13.9323 140.602 14.1927 141.07 14.4688C141.539 14.7396 141.896 15.0729 142.141 15.4688C142.385 15.8594 142.508 16.3568 142.508 16.9609ZM152.008 20L150.602 16.375H146.023L144.625 20H143.281L147.75 8.53125H148.945L153.383 20H152.008ZM150.203 15.1953L148.867 11.5938C148.836 11.5 148.784 11.3464 148.711 11.1328C148.643 10.9193 148.573 10.6979 148.5 10.4688C148.427 10.2396 148.367 10.0547 148.32 9.91406C148.268 10.1276 148.211 10.3411 148.148 10.5547C148.091 10.763 148.034 10.9583 147.977 11.1406C147.919 11.3177 147.87 11.4688 147.828 11.5938L146.469 15.1953H150.203ZM158.055 8.57812C158.992 8.57812 159.766 8.69531 160.375 8.92969C160.99 9.15885 161.448 9.51042 161.75 9.98438C162.052 10.4583 162.203 11.0625 162.203 11.7969C162.203 12.401 162.094 12.9062 161.875 13.3125C161.656 13.7135 161.37 14.0391 161.016 14.2891C160.661 14.5391 160.284 14.7318 159.883 14.8672L163.016 20H161.469L158.672 15.2344H156.297V20H154.969V8.57812H158.055ZM157.977 9.72656H156.297V14.1094H158.109C159.042 14.1094 159.727 13.9193 160.164 13.5391C160.607 13.1589 160.828 12.599 160.828 11.8594C160.828 11.0833 160.594 10.5339 160.125 10.2109C159.661 9.88802 158.945 9.72656 157.977 9.72656ZM171.289 16.9609C171.289 17.638 171.12 18.2161 170.781 18.6953C170.448 19.1693 169.979 19.5312 169.375 19.7812C168.771 20.0312 168.06 20.1562 167.242 20.1562C166.81 20.1562 166.401 20.1354 166.016 20.0938C165.63 20.0521 165.276 19.9922 164.953 19.9141C164.63 19.8359 164.346 19.7396 164.102 19.625V18.3516C164.492 18.513 164.969 18.6641 165.531 18.8047C166.094 18.9401 166.682 19.0078 167.297 19.0078C167.87 19.0078 168.354 18.9323 168.75 18.7812C169.146 18.625 169.445 18.4036 169.648 18.1172C169.857 17.8255 169.961 17.4766 169.961 17.0703C169.961 16.6797 169.875 16.3542 169.703 16.0938C169.531 15.8281 169.245 15.5885 168.844 15.375C168.448 15.1562 167.906 14.9245 167.219 14.6797C166.734 14.5078 166.307 14.3203 165.938 14.1172C165.568 13.9089 165.258 13.6745 165.008 13.4141C164.758 13.1536 164.568 12.8516 164.438 12.5078C164.312 12.1641 164.25 11.7708 164.25 11.3281C164.25 10.7188 164.404 10.1979 164.711 9.76562C165.023 9.32812 165.453 8.99479 166 8.76562C166.552 8.53125 167.185 8.41406 167.898 8.41406C168.508 8.41406 169.07 8.47135 169.586 8.58594C170.107 8.70052 170.583 8.85417 171.016 9.04688L170.602 10.1875C170.19 10.0156 169.753 9.8724 169.289 9.75781C168.831 9.64323 168.357 9.58594 167.867 9.58594C167.378 9.58594 166.964 9.65885 166.625 9.80469C166.292 9.94531 166.036 10.1458 165.859 10.4062C165.682 10.6667 165.594 10.9766 165.594 11.3359C165.594 11.737 165.677 12.0703 165.844 12.3359C166.016 12.6016 166.286 12.8385 166.656 13.0469C167.031 13.25 167.526 13.4635 168.141 13.6875C168.812 13.9323 169.383 14.1927 169.852 14.4688C170.32 14.7396 170.677 15.0729 170.922 15.4688C171.167 15.8594 171.289 16.3568 171.289 16.9609Z" fill="#3F4A37"/>
<path d="M142.508 56.4609C142.508 57.138 142.339 57.7161 142 58.1953C141.667 58.6693 141.198 59.0312 140.594 59.2812C139.99 59.5312 139.279 59.6562 138.461 59.6562C138.029 59.6562 137.62 59.6354 137.234 59.5938C136.849 59.5521 136.495 59.4922 136.172 59.4141C135.849 59.3359 135.565 59.2396 135.32 59.125V57.8516C135.711 58.013 136.188 58.1641 136.75 58.3047C137.312 58.4401 137.901 58.5078 138.516 58.5078C139.089 58.5078 139.573 58.4323 139.969 58.2812C140.365 58.125 140.664 57.9036 140.867 57.6172C141.076 57.3255 141.18 56.9766 141.18 56.5703C141.18 56.1797 141.094 55.8542 140.922 55.5938C140.75 55.3281 140.464 55.0885 140.062 54.875C139.667 54.6562 139.125 54.4245 138.438 54.1797C137.953 54.0078 137.526 53.8203 137.156 53.6172C136.786 53.4089 136.477 53.1745 136.227 52.9141C135.977 52.6536 135.786 52.3516 135.656 52.0078C135.531 51.6641 135.469 51.2708 135.469 50.8281C135.469 50.2188 135.622 49.6979 135.93 49.2656C136.242 48.8281 136.672 48.4948 137.219 48.2656C137.771 48.0312 138.404 47.9141 139.117 47.9141C139.727 47.9141 140.289 47.9714 140.805 48.0859C141.326 48.2005 141.802 48.3542 142.234 48.5469L141.82 49.6875C141.409 49.5156 140.971 49.3724 140.508 49.2578C140.049 49.1432 139.576 49.0859 139.086 49.0859C138.596 49.0859 138.182 49.1589 137.844 49.3047C137.51 49.4453 137.255 49.6458 137.078 49.9062C136.901 50.1667 136.812 50.4766 136.812 50.8359C136.812 51.237 136.896 51.5703 137.062 51.8359C137.234 52.1016 137.505 52.3385 137.875 52.5469C138.25 52.75 138.745 52.9635 139.359 53.1875C140.031 53.4323 140.602 53.6927 141.07 53.9688C141.539 54.2396 141.896 54.5729 142.141 54.9688C142.385 55.3594 142.508 55.8568 142.508 56.4609ZM151.617 59.4844L150.094 54.5C150.026 54.2865 149.961 54.0781 149.898 53.875C149.841 53.6667 149.786 53.4688 149.734 53.2812C149.688 53.0885 149.643 52.9115 149.602 52.75C149.565 52.5833 149.534 52.4401 149.508 52.3203H149.453C149.432 52.4401 149.404 52.5833 149.367 52.75C149.331 52.9115 149.286 53.0885 149.234 53.2812C149.188 53.474 149.135 53.6771 149.078 53.8906C149.021 54.099 148.956 54.3099 148.883 54.5234L147.289 59.4844H145.828L143.469 50.9219H144.812L146.047 55.6484C146.13 55.9609 146.208 56.2708 146.281 56.5781C146.359 56.8802 146.424 57.1667 146.477 57.4375C146.534 57.7031 146.576 57.9349 146.602 58.1328H146.664C146.695 58.0026 146.729 57.8464 146.766 57.6641C146.807 57.4818 146.852 57.2891 146.898 57.0859C146.951 56.8776 147.005 56.6719 147.062 56.4688C147.12 56.2604 147.177 56.0651 147.234 55.8828L148.812 50.9219H150.211L151.734 55.875C151.812 56.125 151.888 56.3854 151.961 56.6562C152.039 56.9271 152.109 57.1901 152.172 57.4453C152.234 57.6953 152.279 57.9193 152.305 58.1172H152.367C152.388 57.9401 152.427 57.7214 152.484 57.4609C152.542 57.2005 152.607 56.9141 152.68 56.6016C152.758 56.2891 152.839 55.9714 152.922 55.6484L154.172 50.9219H155.492L153.125 59.4844H151.617ZM158.352 50.9375V59.5H157.055V50.9375H158.352ZM157.719 47.7344C157.932 47.7344 158.115 47.8047 158.266 47.9453C158.422 48.0807 158.5 48.2943 158.5 48.5859C158.5 48.8724 158.422 49.0859 158.266 49.2266C158.115 49.3672 157.932 49.4375 157.719 49.4375C157.495 49.4375 157.307 49.3672 157.156 49.2266C157.01 49.0859 156.938 48.8724 156.938 48.5859C156.938 48.2943 157.01 48.0807 157.156 47.9453C157.307 47.8047 157.495 47.7344 157.719 47.7344ZM165.156 50.7812C166.172 50.7812 166.94 51.0312 167.461 51.5312C167.982 52.026 168.242 52.8229 168.242 53.9219V59.5H166.961V54.0078C166.961 53.2943 166.797 52.7604 166.469 52.4062C166.146 52.0521 165.648 51.875 164.977 51.875C164.029 51.875 163.362 52.1432 162.977 52.6797C162.591 53.2161 162.398 53.9948 162.398 55.0156V59.5H161.102V50.9375H162.148L162.344 52.1719H162.414C162.596 51.8698 162.828 51.6172 163.109 51.4141C163.391 51.2057 163.706 51.0495 164.055 50.9453C164.404 50.8359 164.771 50.7812 165.156 50.7812ZM174.211 50.7812C174.94 50.7812 175.565 50.9427 176.086 51.2656C176.607 51.5885 177.005 52.0417 177.281 52.625C177.557 53.2031 177.695 53.8802 177.695 54.6562V55.4609H171.781C171.797 56.4661 172.047 57.2318 172.531 57.7578C173.016 58.2839 173.698 58.5469 174.578 58.5469C175.12 58.5469 175.599 58.4974 176.016 58.3984C176.432 58.2995 176.865 58.1536 177.312 57.9609V59.1016C176.88 59.2943 176.451 59.4349 176.023 59.5234C175.602 59.612 175.102 59.6562 174.523 59.6562C173.701 59.6562 172.982 59.4896 172.367 59.1562C171.758 58.8177 171.284 58.3229 170.945 57.6719C170.607 57.0208 170.438 56.224 170.438 55.2812C170.438 54.3594 170.591 53.5625 170.898 52.8906C171.211 52.2135 171.648 51.6927 172.211 51.3281C172.779 50.9635 173.445 50.7812 174.211 50.7812ZM174.195 51.8438C173.503 51.8438 172.951 52.0703 172.539 52.5234C172.128 52.9766 171.883 53.6094 171.805 54.4219H176.336C176.331 53.9115 176.25 53.4635 176.094 53.0781C175.943 52.6875 175.711 52.3854 175.398 52.1719C175.086 51.9531 174.685 51.8438 174.195 51.8438ZM185.578 59.5H184.25V48.0781H190.609V49.25H185.578V53.4375H190.305V54.6016H185.578V59.5ZM193.625 59.5H192.32V47.3438H193.625V59.5ZM203.438 50.9375V59.5H202.375L202.188 58.2969H202.117C201.94 58.5938 201.711 58.8438 201.43 59.0469C201.148 59.25 200.831 59.401 200.477 59.5C200.128 59.6042 199.755 59.6562 199.359 59.6562C198.682 59.6562 198.115 59.5469 197.656 59.3281C197.198 59.1094 196.852 58.7708 196.617 58.3125C196.388 57.8542 196.273 57.2656 196.273 56.5469V50.9375H197.586V56.4531C197.586 57.1667 197.747 57.7005 198.07 58.0547C198.393 58.4036 198.885 58.5781 199.547 58.5781C200.182 58.5781 200.688 58.4583 201.062 58.2188C201.443 57.9792 201.716 57.6276 201.883 57.1641C202.049 56.6953 202.133 56.1224 202.133 55.4453V50.9375H203.438Z" fill="#3F4A37"/>
<path d="M140.945 128.086C140.315 128.086 139.747 128.195 139.242 128.414C138.742 128.628 138.315 128.94 137.961 129.352C137.612 129.758 137.344 130.25 137.156 130.828C136.969 131.406 136.875 132.057 136.875 132.781C136.875 133.74 137.023 134.573 137.32 135.281C137.622 135.984 138.07 136.529 138.664 136.914C139.263 137.299 140.01 137.492 140.906 137.492C141.417 137.492 141.896 137.451 142.344 137.367C142.797 137.279 143.237 137.169 143.664 137.039V138.195C143.247 138.352 142.81 138.466 142.352 138.539C141.893 138.617 141.349 138.656 140.719 138.656C139.557 138.656 138.586 138.417 137.805 137.938C137.029 137.453 136.445 136.771 136.055 135.891C135.669 135.01 135.477 133.971 135.477 132.773C135.477 131.909 135.596 131.12 135.836 130.406C136.081 129.688 136.435 129.068 136.898 128.547C137.367 128.026 137.94 127.625 138.617 127.344C139.299 127.057 140.081 126.914 140.961 126.914C141.539 126.914 142.096 126.971 142.633 127.086C143.169 127.201 143.654 127.365 144.086 127.578L143.555 128.703C143.19 128.536 142.789 128.393 142.352 128.273C141.919 128.148 141.451 128.086 140.945 128.086ZM156.047 132.773C156.047 133.654 155.935 134.456 155.711 135.18C155.487 135.898 155.154 136.518 154.711 137.039C154.273 137.555 153.729 137.953 153.078 138.234C152.427 138.516 151.672 138.656 150.812 138.656C149.927 138.656 149.154 138.516 148.492 138.234C147.836 137.953 147.289 137.552 146.852 137.031C146.419 136.51 146.094 135.888 145.875 135.164C145.661 134.44 145.555 133.638 145.555 132.758C145.555 131.591 145.747 130.568 146.133 129.688C146.518 128.807 147.102 128.122 147.883 127.633C148.669 127.143 149.654 126.898 150.836 126.898C151.966 126.898 152.917 127.141 153.688 127.625C154.464 128.109 155.049 128.792 155.445 129.672C155.846 130.547 156.047 131.581 156.047 132.773ZM146.953 132.773C146.953 133.742 147.091 134.581 147.367 135.289C147.643 135.997 148.065 136.544 148.633 136.93C149.206 137.315 149.932 137.508 150.812 137.508C151.698 137.508 152.422 137.315 152.984 136.93C153.552 136.544 153.971 135.997 154.242 135.289C154.513 134.581 154.648 133.742 154.648 132.773C154.648 131.299 154.339 130.148 153.719 129.32C153.104 128.487 152.143 128.07 150.836 128.07C149.951 128.07 149.221 128.26 148.648 128.641C148.076 129.021 147.648 129.562 147.367 130.266C147.091 130.964 146.953 131.799 146.953 132.773ZM166.57 127.078L162.469 138.5H161.133L157.031 127.078H158.422L161.094 134.602C161.203 134.904 161.299 135.193 161.383 135.469C161.471 135.745 161.549 136.01 161.617 136.266C161.685 136.521 161.745 136.768 161.797 137.008C161.849 136.768 161.909 136.521 161.977 136.266C162.044 136.005 162.122 135.737 162.211 135.461C162.299 135.18 162.398 134.885 162.508 134.578L165.164 127.078H166.57ZM168.141 138.5V127.078H169.469V138.5H168.141ZM181.68 132.68C181.68 133.966 181.445 135.042 180.977 135.906C180.508 136.766 179.828 137.414 178.938 137.852C178.052 138.284 176.977 138.5 175.711 138.5H172.609V127.078H176.055C177.216 127.078 178.216 127.292 179.055 127.719C179.893 128.141 180.539 128.768 180.992 129.602C181.451 130.43 181.68 131.456 181.68 132.68ZM180.281 132.727C180.281 131.701 180.109 130.854 179.766 130.188C179.427 129.521 178.927 129.026 178.266 128.703C177.609 128.375 176.805 128.211 175.852 128.211H173.938V137.359H175.555C177.128 137.359 178.307 136.971 179.094 136.195C179.885 135.419 180.281 134.263 180.281 132.727ZM183.297 134.781V133.625H187.172V134.781H183.297ZM193.43 138.5H192.164V130.406C192.164 130.099 192.164 129.836 192.164 129.617C192.169 129.393 192.174 129.19 192.18 129.008C192.19 128.82 192.203 128.63 192.219 128.438C192.057 128.604 191.906 128.747 191.766 128.867C191.625 128.982 191.451 129.125 191.242 129.297L189.938 130.344L189.258 129.461L192.352 127.078H193.43V138.5ZM205.258 131.945C205.258 132.638 205.208 133.312 205.109 133.969C205.016 134.625 204.852 135.237 204.617 135.805C204.388 136.372 204.076 136.87 203.68 137.297C203.284 137.724 202.786 138.06 202.188 138.305C201.594 138.544 200.883 138.664 200.055 138.664C199.831 138.664 199.576 138.648 199.289 138.617C199.003 138.591 198.768 138.552 198.586 138.5V137.375C198.779 137.443 199.005 137.497 199.266 137.539C199.526 137.576 199.781 137.594 200.031 137.594C201.005 137.594 201.771 137.385 202.328 136.969C202.885 136.547 203.286 135.977 203.531 135.258C203.776 134.534 203.914 133.721 203.945 132.82H203.852C203.695 133.07 203.49 133.302 203.234 133.516C202.984 133.724 202.68 133.893 202.32 134.023C201.961 134.148 201.542 134.211 201.062 134.211C200.401 134.211 199.823 134.076 199.328 133.805C198.839 133.534 198.456 133.141 198.18 132.625C197.909 132.109 197.773 131.487 197.773 130.758C197.773 129.971 197.922 129.292 198.219 128.719C198.521 128.141 198.943 127.695 199.484 127.383C200.026 127.07 200.664 126.914 201.398 126.914C201.961 126.914 202.477 127.021 202.945 127.234C203.414 127.448 203.82 127.768 204.164 128.195C204.513 128.617 204.781 129.141 204.969 129.766C205.161 130.391 205.258 131.117 205.258 131.945ZM201.398 128.016C200.706 128.016 200.143 128.242 199.711 128.695C199.284 129.148 199.07 129.831 199.07 130.742C199.07 131.497 199.255 132.094 199.625 132.531C199.995 132.969 200.565 133.188 201.336 133.188C201.867 133.188 202.326 133.081 202.711 132.867C203.102 132.654 203.401 132.383 203.609 132.055C203.823 131.727 203.93 131.391 203.93 131.047C203.93 130.703 203.878 130.354 203.773 130C203.674 129.646 203.521 129.32 203.312 129.023C203.104 128.721 202.841 128.479 202.523 128.297C202.206 128.109 201.831 128.016 201.398 128.016Z" fill="#3F4A37"/>
<path d="M141.086 94L137.25 83.8906H137.188C137.208 84.1042 137.227 84.3646 137.242 84.6719C137.258 84.9792 137.271 85.3151 137.281 85.6797C137.292 86.0391 137.297 86.4062 137.297 86.7812V94H136.062V82.5781H138.031L141.648 92.0781H141.703L145.375 82.5781H147.328V94H146.016V86.6875C146.016 86.349 146.021 86.0104 146.031 85.6719C146.042 85.3281 146.055 85.0052 146.07 84.7031C146.086 84.3958 146.102 84.1302 146.117 83.9062H146.055L142.172 94H141.086ZM156.812 94H150.453V82.5781H156.812V83.75H151.781V87.4453H156.523V88.6016H151.781V92.8281H156.812V94ZM162.43 82.5781C163.367 82.5781 164.141 82.6953 164.75 82.9297C165.365 83.1589 165.823 83.5104 166.125 83.9844C166.427 84.4583 166.578 85.0625 166.578 85.7969C166.578 86.401 166.469 86.9062 166.25 87.3125C166.031 87.7135 165.745 88.0391 165.391 88.2891C165.036 88.5391 164.659 88.7318 164.258 88.8672L167.391 94H165.844L163.047 89.2344H160.672V94H159.344V82.5781H162.43ZM162.352 83.7266H160.672V88.1094H162.484C163.417 88.1094 164.102 87.9193 164.539 87.5391C164.982 87.1589 165.203 86.599 165.203 85.8594C165.203 85.0833 164.969 84.5339 164.5 84.2109C164.036 83.888 163.32 83.7266 162.352 83.7266ZM175.664 90.9609C175.664 91.638 175.495 92.2161 175.156 92.6953C174.823 93.1693 174.354 93.5312 173.75 93.7812C173.146 94.0312 172.435 94.1562 171.617 94.1562C171.185 94.1562 170.776 94.1354 170.391 94.0938C170.005 94.0521 169.651 93.9922 169.328 93.9141C169.005 93.8359 168.721 93.7396 168.477 93.625V92.3516C168.867 92.513 169.344 92.6641 169.906 92.8047C170.469 92.9401 171.057 93.0078 171.672 93.0078C172.245 93.0078 172.729 92.9323 173.125 92.7812C173.521 92.625 173.82 92.4036 174.023 92.1172C174.232 91.8255 174.336 91.4766 174.336 91.0703C174.336 90.6797 174.25 90.3542 174.078 90.0938C173.906 89.8281 173.62 89.5885 173.219 89.375C172.823 89.1562 172.281 88.9245 171.594 88.6797C171.109 88.5078 170.682 88.3203 170.312 88.1172C169.943 87.9089 169.633 87.6745 169.383 87.4141C169.133 87.1536 168.943 86.8516 168.812 86.5078C168.688 86.1641 168.625 85.7708 168.625 85.3281C168.625 84.7188 168.779 84.1979 169.086 83.7656C169.398 83.3281 169.828 82.9948 170.375 82.7656C170.927 82.5312 171.56 82.4141 172.273 82.4141C172.883 82.4141 173.445 82.4714 173.961 82.5859C174.482 82.7005 174.958 82.8542 175.391 83.0469L174.977 84.1875C174.565 84.0156 174.128 83.8724 173.664 83.7578C173.206 83.6432 172.732 83.5859 172.242 83.5859C171.753 83.5859 171.339 83.6589 171 83.8047C170.667 83.9453 170.411 84.1458 170.234 84.4062C170.057 84.6667 169.969 84.9766 169.969 85.3359C169.969 85.737 170.052 86.0703 170.219 86.3359C170.391 86.6016 170.661 86.8385 171.031 87.0469C171.406 87.25 171.901 87.4635 172.516 87.6875C173.188 87.9323 173.758 88.1927 174.227 88.4688C174.695 88.7396 175.052 89.0729 175.297 89.4688C175.542 89.8594 175.664 90.3568 175.664 90.9609Z" fill="#3F4A37"/>
</svg>
