<svg width="2063" height="355" viewBox="0 0 2063 355" fill="none" xmlns="http://www.w3.org/2000/svg">
<path d="M486.246 229.458L476.921 270.759H465.747L506.522 84.0156H524.357L565.946 270.759H553.661L544.337 229.458H486.246ZM488.096 218.799H542.413L515.032 98.1527L488.096 218.873V218.799Z" fill="#526049"/>
<path d="M526.762 81.0156L569.688 273.759H551.263L541.939 232.458H488.644L479.319 273.759H462.021L504.106 81.0156H526.762ZM506.522 84.0156L465.747 270.759H476.921L486.245 229.458H544.337L553.661 270.759H565.945L524.356 84.0156H506.522ZM542.413 218.799H488.112L515.032 98.1523L542.413 218.799ZM491.855 215.799H538.655L515.057 111.816L491.855 215.799Z" fill="#48553F"/>
<path d="M593.622 270.759H582.447V84.3115H598.432L654.377 241.744V84.3115H665.551V270.833H651.935L593.622 104.518V270.759Z" fill="#526049"/>
<path d="M665.552 84.3115H654.377V241.744L598.432 84.3115H582.447V270.759H593.621V104.518L651.935 270.833H665.552V84.3115ZM668.552 273.833H649.808L596.621 122.141V273.759H579.447V81.3115H600.55L651.377 224.341V81.3115H668.552V273.833Z" fill="#48553F"/>
<path d="M702.33 229.458L693.005 270.759H681.831L722.532 84.0156H740.367L781.956 270.759H769.671L760.347 229.458H702.256H702.33ZM704.18 218.799H758.497L731.042 98.0787L704.106 218.799H704.18Z" fill="#526049"/>
<path d="M742.771 81.0156L785.697 273.759H767.273L757.949 232.458H704.728L695.403 273.759H678.106L720.115 81.0156H742.771ZM722.532 84.0156L681.831 270.759H693.005L702.329 229.458H760.347L769.671 270.759H781.956L740.366 84.0156H722.532ZM758.497 218.799H704.105L731.042 98.0791L758.497 218.799ZM707.849 215.799H754.737L731.07 111.729L707.849 215.799Z" fill="#48553F"/>
<path d="M798.46 270.758V84.3115H810.744V259.582H869.354V270.758H798.534H798.46Z" fill="#526049"/>
<path d="M869.354 259.582H810.744V84.3115H798.46V270.759H869.354V259.582ZM813.744 256.582H872.354V273.759H795.46V81.3115H813.744V256.582Z" fill="#48553F"/>
<path d="M907.465 199.111L865.58 84.3115H878.382L914.051 182.383L949.794 84.3115H961.783L919.675 199.111V270.758H907.391V199.111H907.465Z" fill="#526049"/>
<path d="M880.483 81.3115L914.054 173.612L947.694 81.3115H966.078L922.676 199.643V273.759H904.392V199.439L861.292 81.3115H880.483ZM919.676 270.759V199.11L961.782 84.3115H949.794L914.052 182.383L878.383 84.3115H865.58L907.465 199.11H907.392V270.759H919.676Z" fill="#48553F"/>
<path d="M1054.21 129.314V133.311H1042.52V128.499C1042.52 108.811 1035.04 93.8598 1014.84 93.8598C994.638 93.8598 987.164 108.515 987.164 128.203C987.164 173.501 1054.58 174.316 1054.58 225.683C1054.58 252.625 1042.89 272.313 1014.32 272.313C985.758 272.313 974.065 252.625 974.065 225.683V216.061H985.758V226.423C985.758 246.407 993.454 260.767 1014.03 260.767C1034.6 260.767 1042.3 246.407 1042.3 226.423C1042.3 181.643 974.879 180.829 974.879 128.944C974.879 100.965 987.164 82.8314 1014.54 82.6094C1042.81 82.6094 1054.21 102.298 1054.21 129.24V129.314Z" fill="#526049"/>
<path d="M985.758 226.423V216.061H974.065V225.683C974.065 252.204 985.395 271.696 1013 272.299L1014.32 272.313C1042.89 272.313 1054.58 252.625 1054.58 225.683C1054.58 174.717 988.213 173.517 987.176 129.257L987.164 128.203C987.164 108.515 994.638 93.8594 1014.84 93.8594L1015.78 93.8711C1035.27 94.3287 1042.52 109.119 1042.52 128.499V133.311H1054.21V129.239C1054.21 102.298 1042.81 82.6096 1014.54 82.6094C987.164 82.8314 974.88 100.965 974.88 128.943L974.892 130.15C975.929 180.844 1042.29 181.993 1042.29 226.423C1042.29 246.407 1034.6 260.767 1014.03 260.767V257.767C1023.53 257.767 1029.63 254.499 1033.46 249.307C1037.42 243.952 1039.29 236.111 1039.29 226.423C1039.29 205.83 1024.02 195.314 1006.82 182.772C990.024 170.528 971.88 156.544 971.88 128.943C971.88 114.575 975.026 102.275 982.108 93.4854C989.276 84.5909 1000.12 79.7261 1014.52 79.6094H1014.54C1029.45 79.6095 1040.31 84.8448 1047.35 93.9912C1054.29 103.006 1057.21 115.413 1057.21 129.239V136.311H1039.52V128.499C1039.52 118.955 1037.69 111.012 1033.81 105.531C1030.05 100.224 1024.1 96.8595 1014.84 96.8594C1005.56 96.8594 999.615 100.168 995.863 105.397C991.989 110.798 990.164 118.658 990.164 128.203C990.164 149.065 1005.46 159.718 1022.64 172.243C1039.42 184.474 1057.58 198.331 1057.58 225.683C1057.58 239.523 1054.59 251.937 1047.52 260.951C1040.37 270.088 1029.36 275.313 1014.32 275.313C999.283 275.313 988.277 270.088 981.12 260.951C974.059 251.937 971.065 239.523 971.065 225.683V213.061H988.758V226.423C988.758 236.111 990.637 243.952 994.591 249.307C998.426 254.499 1004.52 257.767 1014.03 257.767V260.767L1013.07 260.756C993.53 260.323 985.998 246.543 985.764 227.355L985.758 226.423Z" fill="#48553F"/>
<path d="M1084.33 84.3115V270.833H1072.04V84.3115H1084.33Z" fill="#526049"/>
<path d="M1084.33 84.3115H1072.04V270.833H1084.33V84.3115ZM1087.33 273.833H1069.04V81.3115H1087.33V273.833Z" fill="#48553F"/>
<path d="M1182.08 129.314V133.311H1170.39V128.499C1170.39 108.811 1162.92 93.8598 1142.72 93.8598C1122.51 93.8598 1115.04 108.515 1115.04 128.203C1115.04 173.501 1182.45 174.316 1182.45 225.683C1182.45 252.625 1170.76 272.313 1142.2 272.313C1113.63 272.313 1101.94 252.625 1101.94 225.683V216.061H1113.63V226.423C1113.63 246.407 1121.33 260.767 1141.9 260.767C1162.47 260.767 1170.17 246.407 1170.17 226.423C1170.17 181.643 1102.75 180.829 1102.75 128.944C1102.75 100.965 1115.04 82.8314 1142.42 82.6094C1170.69 82.6094 1182.08 102.298 1182.08 129.24V129.314Z" fill="#526049"/>
<path d="M1113.63 226.423V216.061H1101.94V225.683C1101.94 252.204 1113.27 271.696 1140.87 272.299L1142.2 272.313C1170.76 272.313 1182.45 252.625 1182.45 225.683C1182.45 174.717 1116.09 173.517 1115.05 129.257L1115.04 128.203C1115.04 108.515 1122.51 93.8594 1142.72 93.8594L1143.65 93.8711C1163.15 94.3286 1170.39 109.119 1170.39 128.499V133.311H1182.08V129.239C1182.08 102.298 1170.69 82.6096 1142.42 82.6094C1115.04 82.8314 1102.75 100.965 1102.75 128.943L1102.77 130.15C1103.8 180.844 1170.17 181.993 1170.17 226.423C1170.17 246.407 1162.47 260.767 1141.9 260.767V257.767C1151.41 257.767 1157.5 254.499 1161.34 249.307C1165.29 243.952 1167.17 236.111 1167.17 226.423C1167.17 205.83 1151.9 195.314 1134.7 182.772C1117.9 170.528 1099.75 156.544 1099.75 128.943C1099.75 114.575 1102.9 102.275 1109.98 93.4854C1117.15 84.5909 1128 79.7261 1142.4 79.6094H1142.42C1157.32 79.6095 1168.19 84.8448 1175.23 93.9912C1182.17 103.006 1185.08 115.413 1185.08 129.239V136.311H1167.39V128.499C1167.39 118.955 1165.57 111.012 1161.68 105.531C1157.92 100.224 1151.97 96.8595 1142.72 96.8594C1133.44 96.8594 1127.49 100.168 1123.74 105.397C1119.86 110.798 1118.04 118.658 1118.04 128.203C1118.04 149.065 1133.33 159.718 1150.51 172.243C1167.29 184.474 1185.45 198.331 1185.45 225.683C1185.45 239.523 1182.46 251.937 1175.4 260.951C1168.24 270.088 1157.24 275.313 1142.2 275.313C1127.16 275.313 1116.15 270.088 1109 260.951C1101.93 251.937 1098.94 239.523 1098.94 225.683V213.061H1116.63V226.423C1116.63 236.111 1118.51 243.952 1122.47 249.307C1126.3 254.499 1132.39 257.767 1141.9 257.767V260.767L1140.95 260.756C1121.41 260.323 1113.87 246.543 1113.64 227.355L1113.63 226.423Z" fill="#48553F"/>
<path d="M1285.98 178.09V183.715H1233.81V270.833H1227.97V84.3115H1296.42V89.9368H1233.81V178.09H1285.98Z" fill="#526049"/>
<path d="M1285.98 183.716V178.09H1233.81V89.9365H1296.42V84.3115H1227.97V270.833H1233.81V183.716H1285.98ZM1299.42 92.9365H1236.81V175.09H1288.98V186.716H1236.81V273.833H1224.97V81.3115H1299.42V92.9365Z" fill="#48553F"/>
<path d="M1314.25 130.129C1314.25 104.002 1325.43 82.981 1353.69 82.981C1381.96 82.981 1393.65 104.002 1393.65 130.129V224.944C1393.65 251.072 1382.48 272.093 1353.69 272.093C1324.91 272.093 1314.25 251.072 1314.25 224.944V130.129ZM1320.1 225.24C1320.1 248.185 1328.9 266.837 1353.69 266.837C1378.48 266.837 1387.81 248.185 1387.81 225.24V129.833C1387.81 106.888 1378.78 88.2361 1353.69 88.2361C1328.61 88.2361 1320.1 106.888 1320.1 129.833V225.24Z" fill="#526049"/>
<path d="M1393.66 130.129C1393.66 104.206 1382.14 83.3098 1354.35 82.9849L1353.69 82.981C1325.43 82.981 1314.25 104.002 1314.25 130.129V224.944C1314.25 250.867 1324.74 271.763 1353.02 272.088L1353.69 272.092C1382.03 272.092 1393.3 251.724 1393.65 226.166L1393.66 224.944V130.129ZM1384.81 225.24V129.833C1384.81 118.678 1382.6 108.995 1377.72 102.177C1372.96 95.5247 1365.39 91.2359 1353.69 91.2358C1342.01 91.2358 1334.58 95.5185 1329.95 102.149C1325.19 108.962 1323.1 118.649 1323.1 129.833V225.24C1323.1 236.407 1325.25 246.098 1330.05 252.917C1334.73 259.562 1342.16 263.837 1353.69 263.837V266.837L1352.54 266.824C1328.63 266.254 1320.1 247.826 1320.1 225.24V129.833C1320.1 106.888 1328.61 88.2358 1353.69 88.2358L1354.86 88.2495C1379.06 88.82 1387.81 107.247 1387.81 129.833V225.24C1387.81 248.185 1378.48 266.837 1353.69 266.837V263.837C1365.23 263.837 1372.81 259.556 1377.61 252.889C1382.53 246.065 1384.81 236.378 1384.81 225.24ZM1396.66 224.944C1396.66 238.369 1393.79 250.885 1386.87 260.117C1379.84 269.486 1368.91 275.092 1353.69 275.092C1338.48 275.092 1327.66 269.482 1320.76 260.093C1313.97 250.857 1311.25 238.343 1311.25 224.944V130.129C1311.25 116.704 1314.11 104.196 1320.96 94.9692C1327.92 85.6026 1338.72 79.981 1353.69 79.981C1368.66 79.9811 1379.58 85.5977 1386.67 94.9458C1393.65 104.167 1396.66 116.678 1396.66 130.129V224.944Z" fill="#48553F"/>
<path d="M1449.53 84.3115C1477.2 84.3115 1487.86 100.595 1487.86 126.131V142.932C1487.86 165.877 1478.83 178.386 1458.26 182.087C1479.05 185.27 1487.86 198.889 1487.86 219.391V248.702C1487.86 255.881 1488.68 264.985 1492.89 270.833H1486.53C1482.83 264.985 1482.01 256.695 1482.01 248.702V219.391C1482.01 191.931 1465.51 184.752 1441.24 184.752H1418.3V270.833H1412.45V84.3115H1449.45H1449.53ZM1441.31 179.126C1467.14 179.126 1482.09 172.465 1482.09 143.673V126.649C1482.09 104 1473.28 89.8627 1449.31 89.8627H1418.37V179.126H1441.31Z" fill="#526049"/>
<path d="M1479.01 248.702V219.392C1479.01 206.293 1475.12 198.691 1468.96 194.197C1462.59 189.549 1453.21 187.752 1441.24 187.752H1421.3V273.833H1409.45V81.3115H1449.45V84.3115H1412.45V270.833H1418.3V184.752H1441.24C1465.51 184.752 1482.01 191.932 1482.01 219.392V248.702L1482.03 250.203C1482.12 257.471 1483 264.842 1486.19 270.277L1486.53 270.833H1492.89C1488.94 265.351 1487.98 257.007 1487.87 250.069L1487.86 248.702V219.392C1487.86 198.889 1479.05 185.27 1458.26 182.087C1478.51 178.444 1487.58 166.266 1487.85 144L1487.86 142.933V126.131C1487.86 100.994 1477.54 84.8226 1450.81 84.3232L1449.53 84.3115V81.3115C1463.97 81.3116 1474.51 85.5836 1481.37 93.7119C1488.14 101.741 1490.86 113.02 1490.86 126.131V142.933C1490.86 154.753 1488.54 164.349 1483.18 171.522C1479.71 176.159 1475.11 179.604 1469.4 181.994C1475.18 184.358 1479.8 187.858 1483.25 192.438C1488.58 199.497 1490.86 208.746 1490.86 219.392V248.702C1490.86 252.195 1491.06 256.063 1491.74 259.715C1492.43 263.393 1493.58 266.651 1495.33 269.077L1498.76 273.833H1484.88L1483.99 272.437C1479.79 265.799 1479.01 256.727 1479.01 248.702ZM1479.09 143.673V126.648C1479.09 115.626 1476.93 107.251 1472.37 101.66C1467.9 96.1922 1460.69 92.8623 1449.31 92.8623H1421.37V176.126H1441.31V179.126H1418.37V89.8623H1449.31C1473.28 89.8623 1482.09 104 1482.09 126.648V143.673L1482.08 145.006C1481.62 172.671 1466.74 179.126 1441.31 179.126V176.126C1454.13 176.126 1463.45 174.435 1469.58 169.804C1475.49 165.334 1479.09 157.583 1479.09 143.673ZM1449.53 81.3115V84.3115H1449.45V81.3115H1449.53Z" fill="#48553F"/>
<path d="M1557.42 229.458L1548.1 270.759H1536.92L1577.7 84.0156H1595.53L1637.12 270.759H1624.84L1615.51 229.458H1557.42ZM1559.35 218.799H1613.66L1586.21 98.0787L1559.27 218.799H1559.35Z" fill="#526049"/>
<path d="M1597.94 81.0156L1640.86 273.759H1622.44L1613.12 232.458H1559.82L1550.5 273.759H1533.2L1575.28 81.0156H1597.94ZM1577.7 84.0156L1536.92 270.759H1548.1L1557.42 229.458H1615.51L1624.84 270.759H1637.12L1595.53 84.0156H1577.7ZM1613.66 218.799H1559.27L1586.21 98.0791L1613.66 218.799ZM1563.02 215.799H1609.9L1586.24 111.728L1563.02 215.799Z" fill="#48553F"/>
<path d="M1733.25 129.833V145.303H1721.56V129.019C1721.56 109.035 1713.86 93.8615 1693.29 93.8615C1672.72 93.8615 1665.1 109.035 1665.1 129.019V225.981C1665.1 245.965 1672.79 260.842 1693.29 260.842C1713.79 260.842 1721.56 245.891 1721.56 225.981V203.85H1733.25V225.166C1733.25 252.108 1721.56 272.315 1693 272.315C1664.43 272.315 1652.81 252.034 1652.81 225.166V129.833C1652.81 102.891 1664.5 82.6851 1693 82.6851C1721.49 82.6851 1733.25 102.966 1733.25 129.833Z" fill="#526049"/>
<path d="M1733.25 129.833C1733.25 102.966 1721.49 82.6851 1693 82.6851C1664.5 82.6852 1652.81 102.892 1652.81 129.833V225.167L1652.82 226.421C1653.17 252.247 1664.51 271.69 1691.67 272.3L1693 272.315C1721.11 272.315 1732.88 252.735 1733.24 226.424L1733.25 225.167V203.85H1721.56V225.981L1721.55 226.911C1721.31 246.355 1713.47 260.842 1693.29 260.842V257.842C1702.71 257.842 1708.82 254.463 1712.68 249.12C1716.67 243.613 1718.56 235.623 1718.56 225.981V200.85H1736.25V225.167C1736.25 239.007 1733.26 251.54 1726.21 260.676C1719.07 269.94 1708.06 275.315 1693 275.315C1677.92 275.315 1666.94 269.918 1659.81 260.644C1652.79 251.499 1649.81 238.968 1649.81 225.167V129.833C1649.81 115.993 1652.81 103.462 1659.84 94.3257C1666.98 85.062 1677.96 79.6851 1693 79.6851C1708.03 79.6851 1719.03 85.0822 1726.18 94.3511C1733.24 103.494 1736.25 116.024 1736.25 129.833V148.303H1718.56V129.019C1718.56 119.333 1716.68 111.263 1712.7 105.69C1708.84 100.286 1702.74 96.8619 1693.29 96.8618C1683.85 96.8618 1677.77 100.285 1673.92 105.686C1669.96 111.258 1668.1 119.329 1668.1 129.019V225.981C1668.1 235.667 1669.98 243.655 1673.94 249.15C1677.78 254.478 1683.87 257.842 1693.29 257.842V260.842L1692.34 260.832C1672.87 260.383 1665.34 246.116 1665.1 226.914L1665.1 225.981V129.019C1665.1 109.035 1672.72 93.8618 1693.29 93.8618L1694.25 93.8726C1714.1 94.3366 1721.56 109.347 1721.56 129.019V145.303H1733.25V129.833Z" fill="#48553F"/>
<path d="M1782.54 270.758V95.488H1744.72V84.3115H1832.86V95.488H1794.75V270.758H1782.46H1782.54Z" fill="#526049"/>
<path d="M1744.72 84.3115V95.4883H1782.54V270.759H1794.75V95.4883H1832.86V84.3115H1744.72ZM1835.86 98.4883H1797.75V273.759H1782.46V270.759H1779.54V98.4883H1741.72V81.3115H1835.86V98.4883Z" fill="#48553F"/>
<path d="M1858.24 84.3115V270.833H1845.96V84.3115H1858.24Z" fill="#526049"/>
<path d="M1858.24 84.3115H1845.96V270.833H1858.24V84.3115ZM1861.24 273.833H1842.96V81.3115H1861.24V273.833Z" fill="#48553F"/>
<path d="M1876.59 129.833C1876.59 102.669 1889.1 82.6851 1917.37 82.6851C1945.64 82.6851 1958.66 102.669 1958.66 129.833V225.24C1958.66 252.404 1946.16 272.389 1917.37 272.389C1888.58 272.389 1876.59 252.404 1876.59 225.24V129.833ZM1888.88 226.055C1888.88 246.335 1896.87 261.212 1917.37 261.212C1937.87 261.212 1946.38 246.261 1946.38 226.055V129.019C1946.38 108.739 1938.09 93.8615 1917.37 93.8615C1896.65 93.8615 1888.88 108.813 1888.88 129.019V225.981V226.055Z" fill="#526049"/>
<path d="M1958.66 129.833C1958.66 103.094 1946.04 83.3113 1918.68 82.6997L1917.37 82.6851C1889.1 82.6851 1876.59 102.67 1876.59 129.833V225.241L1876.6 226.508C1876.97 252.603 1888.65 271.773 1916.03 272.375L1917.37 272.389C1945.71 272.389 1958.27 253.024 1958.65 226.508L1958.66 225.241V129.833ZM1943.38 226.054V129.019C1943.38 119.216 1941.36 111.162 1937.24 105.628C1933.22 100.241 1926.92 96.8619 1917.37 96.8618C1907.82 96.8618 1901.67 100.249 1897.78 105.622C1893.77 111.161 1891.88 119.221 1891.88 129.019V226.054C1891.88 235.876 1893.83 243.938 1897.86 249.471C1901.78 254.846 1907.94 258.212 1917.37 258.212V261.212L1916.42 261.202C1896.62 260.746 1888.88 246.018 1888.88 226.054V129.019C1888.88 108.813 1896.65 93.8618 1917.37 93.8618L1918.33 93.8726C1938.35 94.3279 1946.38 109.056 1946.38 129.019V226.054L1946.37 226.998C1946.11 246.724 1937.55 261.212 1917.37 261.212V258.212C1926.8 258.212 1933.11 254.824 1937.16 249.413C1941.31 243.862 1943.38 235.803 1943.38 226.054ZM1961.66 225.241C1961.66 239.228 1958.45 251.772 1951.15 260.877C1943.77 270.089 1932.52 275.389 1917.37 275.389C1902.21 275.389 1891.08 270.086 1883.83 260.855C1876.67 251.743 1873.59 239.202 1873.59 225.241V129.833C1873.59 115.846 1876.81 103.309 1884.03 94.2075C1891.34 84.9974 1902.46 79.6851 1917.37 79.6851C1932.28 79.6851 1943.51 84.994 1950.95 94.186C1958.31 103.282 1961.66 115.821 1961.66 129.833V225.241Z" fill="#48553F"/>
<path d="M1987.97 270.759H1976.79V84.3115H1992.78L2048.72 241.744V84.3115H2059.9V270.833H2046.28L1987.97 104.592V270.833V270.759Z" fill="#526049"/>
<path d="M2059.9 84.3115H2048.72V241.744L1992.78 84.3115H1976.79V270.759H1987.96V273.759H1973.79V81.3115H1994.89L2045.72 224.341V81.3115H2062.9V273.833H2044.15L1990.96 122.205V270.833H1987.96V104.592L2046.28 270.833H2059.9V84.3115Z" fill="#48553F"/>
<ellipse cx="177.747" cy="177.5" rx="177.5" ry="177.5" fill="url(#paint0_radial_2253_219095)"/>
<ellipse cx="177.747" cy="177.5" rx="177.5" ry="177.5" fill="url(#paint1_radial_2253_219095)" fill-opacity="0.5"/>
<path d="M297.501 208.971C296.688 232.698 273.637 243.699 262.625 230.691C259.857 227.421 258.305 222.803 257.17 219.429C241.395 254.607 217.578 239.77 213.551 227.09C206.955 206.321 228.859 188.68 244.672 196.418C251.552 199.781 255.021 207.388 257.093 211.929C260.03 199.099 264.085 193.487 274.449 187.902C243.551 177.606 255.191 147.508 266.888 142.612C267.769 142.242 269.017 141.961 269.929 141.684C290.043 140.162 298.563 166.097 287.124 180.391C285.372 182.582 282.381 184.92 280.155 186.634C284.602 187.505 298.14 190.159 297.497 208.971" fill="white"/>
<path d="M327.365 199.89C326.483 219.449 311.613 233.146 302.889 222.435C294.322 211.919 298.519 185.284 312.599 179.367C324.165 176.44 327.796 190.399 327.369 199.886" fill="white"/>
<path d="M292.087 256.52C286.592 275.413 264.188 285.2 256.83 271.923C250.851 261.13 260.592 241.259 277.618 237.03C288.964 234.9 295.725 244.005 292.087 256.516" fill="white"/>
<path d="M321.225 247.052C316.251 262.459 301.478 275.494 295.783 265.937C290.516 257.105 299.537 234.04 312.89 228.567C323.52 225.867 324.148 238 321.225 247.052Z" fill="#EE8B3E"/>
<path d="M321.321 152.916C324.209 169.868 314.36 182.741 303.757 175.877C290.5 167.295 289.742 139.4 302.613 133.838C312.739 131.396 319.762 143.78 321.317 152.916" fill="white"/>
<path d="M252.984 263.99C248.133 282.529 221.489 289.62 213.388 274.525C207.555 263.655 216.776 246.599 234.195 244.042C247.07 242.863 256.022 252.369 252.984 263.99Z" fill="white"/>
<path d="M252.883 170.189C253.218 188.82 231.787 199.29 218.658 186.906C206.153 175.112 210.523 151.211 229.947 148.245C245.471 147.564 252.694 160.667 252.863 170.189" fill="white"/>
<path d="M346.092 189.016C345.541 204.192 338.569 218.547 332.786 211.818C326.575 204.588 328.277 177.009 337.094 170.496C343.801 167.449 346.431 179.744 346.096 189.016" fill="white"/>
<path d="M278.167 294.718C269.747 309.305 250.203 315.88 247.859 304.918C246.138 296.863 256.537 283.432 269.947 280.208C279.523 278.398 283.515 285.451 278.167 294.718Z" fill="white"/>
<path d="M278.047 117.214C282.791 133.268 270.644 142.416 259.135 136.265C245.197 128.819 242.595 104.483 255.27 100.104C255.678 99.9651 256.24 99.8419 256.652 99.7263H256.66H256.667C256.667 99.7263 256.675 99.7263 256.679 99.7263C256.683 99.7263 256.686 99.7263 256.69 99.7263C256.694 99.7263 256.698 99.7263 256.702 99.7263C256.706 99.7263 256.71 99.7263 256.713 99.7263C256.717 99.7263 256.721 99.7263 256.721 99.7263H256.729C268.06 98.2703 275.818 109.687 278.047 117.225" fill="white"/>
<path d="M208.486 222.352C206.653 240.741 183.506 248.275 172.063 234.208C162.853 222.887 167.319 201.179 187.941 199.753H187.949H187.957H187.964H187.972H187.98H187.987H187.995H188.003C202.714 200.235 209.529 211.756 208.474 222.352" fill="white"/>
<path d="M304.829 285.827C297.248 298.126 283.599 306.954 281.643 300.826C279.691 294.709 290.302 277.118 302.592 272.292C311.089 269.938 309.141 278.147 305.761 284.236C305.491 284.722 305.118 285.357 304.829 285.827Z" fill="white"/>
<path d="M339.653 235.566C335.422 249.517 326.651 261.003 323.744 256.397C320.525 251.289 327.39 226.395 336.958 219.62C343.103 216.476 342.229 227.057 339.645 235.57" fill="white"/>
<path d="M339.534 141.964C342.814 156.174 338.583 168.392 331.722 164.505C323.086 159.613 317.368 131.946 325.831 125.521C325.831 125.521 325.835 125.521 325.839 125.517C325.842 125.513 325.842 125.517 325.846 125.517C325.85 125.517 325.85 125.517 325.854 125.517C325.858 125.517 325.858 125.517 325.862 125.517C325.866 125.517 325.866 125.517 325.869 125.517C325.873 125.517 325.873 125.517 325.877 125.517C325.881 125.517 325.881 125.517 325.885 125.517C325.889 125.517 325.889 125.517 325.892 125.513C332.034 122.698 337.57 133.452 339.541 141.991" fill="white"/>
<path d="M243.044 301.092C236.833 315.143 213.755 319.962 209.674 308.06C207.229 300.93 213.99 288.712 229.753 286.536C243.694 285.781 245.92 294.594 243.048 301.096" fill="white"/>
<path d="M304.659 108.56C306.984 114.157 309.237 125.689 301.12 129.264C301.12 129.264 301.12 129.264 301.117 129.264C301.113 129.264 301.117 129.264 301.113 129.264C301.109 129.264 301.113 129.264 301.109 129.264C301.105 129.264 301.109 129.264 301.105 129.264C301.101 129.264 301.105 129.264 301.101 129.264C301.097 129.264 301.101 129.264 301.097 129.264C301.094 129.264 301.097 129.264 301.094 129.264C301.09 129.264 301.093 129.264 301.09 129.264C286.401 132.811 275.732 105.066 281.631 95.5871C282.921 93.5148 284.495 92.9717 285.011 92.7946C293.127 90.807 301.536 101.018 304.663 108.548" fill="white"/>
<path d="M206.798 267.801C205.92 273.283 200.772 282.812 187.035 283.759C187.035 283.759 187.027 283.759 187.023 283.759C187.019 283.759 187.016 283.759 187.012 283.759C187.008 283.759 187.004 283.759 187 283.759C186.996 283.759 186.992 283.759 186.989 283.759C186.985 283.759 186.981 283.759 186.977 283.759C186.973 283.759 186.969 283.759 186.965 283.759C186.962 283.759 186.958 283.759 186.954 283.759C186.95 283.759 186.946 283.759 186.942 283.759C168.323 283.293 162.547 264.836 173.601 254.312C177.359 250.734 182.403 248.696 187.801 248.569C202.959 248.962 208.034 260.052 206.794 267.798" fill="white"/>
<path d="M243.092 123.985C243.851 129.74 241.941 141.149 229.266 143.156C229.263 143.156 229.259 143.156 229.251 143.156C229.243 143.156 229.243 143.156 229.236 143.156C229.228 143.156 229.228 143.156 229.22 143.156C229.212 143.156 229.212 143.156 229.205 143.156C229.197 143.156 229.197 143.156 229.189 143.156C229.182 143.156 229.182 143.156 229.174 143.156C229.166 143.156 229.166 143.156 229.159 143.156C229.151 143.156 229.151 143.156 229.143 143.156C210.581 143.737 203.023 120.006 214.316 108.894C217.415 105.843 220.349 105.377 222.29 105.069C231.75 104.206 241.664 113.219 243.085 123.974" fill="white"/>
<path d="M206.803 173.999C205.983 191.359 185.265 199.46 173.718 186.933C163.007 175.312 168.817 153.827 187.025 152.475C187.029 152.475 187.036 152.475 187.04 152.475C187.044 152.475 187.052 152.475 187.056 152.475C187.059 152.475 187.067 152.475 187.071 152.475C187.075 152.475 187.083 152.475 187.086 152.475C187.09 152.475 187.098 152.475 187.102 152.475C187.106 152.475 187.113 152.475 187.117 152.475C187.121 152.475 187.129 152.475 187.133 152.475C187.136 152.475 187.144 152.475 187.148 152.475C201.382 153.057 207.215 165.413 206.807 173.999" fill="white"/>
<path d="M321.902 275.717C315.252 286.298 305.842 295.801 305.396 292.384C304.834 288.07 317.678 267.609 324.601 263.318C327.015 262.032 327.669 263.13 326.541 266.573C326.179 267.675 325.005 270.775 321.902 275.717Z" fill="white"/>
<path d="M202.077 304.619C198.924 316.298 177.575 321.074 170.902 308.625C166.806 300.983 173.247 290.93 186.603 290.094C196.795 289.943 204.168 296.869 202.073 304.619" fill="white"/>
<path d="M321.383 98.7453C327.089 109.9 326.069 120.331 319.473 118.32C309.775 115.366 298.54 89.3739 305.162 85.2139C310.11 83.0145 317.764 91.6619 321.383 98.7453Z" fill="white"/>
<path d="M202.071 127.537C201.94 142.139 186.304 149.516 175.935 139.871C164.877 129.59 170.815 109.719 185.28 108.605C194.316 108.501 202.167 117.345 202.074 127.537" fill="white"/>
<path d="M354.51 176.56C354.456 189.117 352.384 200.206 350.478 198.13C347.93 195.353 347.814 167.242 351.133 160.629C352.7 158.572 353.555 162.474 353.997 166.114C354.244 168.132 354.529 171.583 354.51 176.56Z" fill="white"/>
<path d="M257.438 324.458C249.999 332.166 235.118 338.24 234.633 332.451C234.256 327.967 243.554 318.268 254.854 315.665C260.653 314.559 262.74 317.024 259.821 321.531C259.294 322.347 258.312 323.549 257.434 324.458" fill="white"/>
<path d="M257.023 75.5607C259.414 80.3716 261.309 89.096 253.235 91.2838C253.235 91.2838 253.231 91.2838 253.227 91.2838C253.223 91.2838 253.223 91.2838 253.219 91.2838C253.216 91.2838 253.216 91.2838 253.212 91.2838C253.208 91.2838 253.208 91.2838 253.204 91.2838C253.2 91.2838 253.2 91.2838 253.196 91.2838C253.192 91.2838 253.192 91.2838 253.189 91.2838C253.185 91.2838 253.185 91.2838 253.181 91.2838C253.177 91.2838 253.177 91.2838 253.173 91.2838C238.616 92.9594 229.125 70.5726 235.262 63.6278C236.305 62.4453 237.272 62.1795 238.388 61.8714C238.388 61.8714 238.392 61.8714 238.396 61.8714C238.4 61.8714 238.4 61.8714 238.404 61.8714C238.408 61.8714 238.408 61.8714 238.411 61.8714C238.415 61.8714 238.415 61.8714 238.419 61.8714C238.423 61.8714 238.423 61.8714 238.427 61.8714C238.431 61.8714 238.431 61.8714 238.435 61.8714C238.438 61.8714 238.438 61.8714 238.442 61.8714C238.446 61.8714 238.446 61.8714 238.45 61.8714C246.143 61.0124 253.943 69.3593 257.027 75.5607" fill="white"/>
<path d="M157.855 222.797C156.188 238.775 136.444 243.817 126.784 230.736C119.018 220.217 122.999 201.466 140.587 201.535C140.591 201.535 140.595 201.535 140.602 201.535C140.61 201.535 140.61 201.535 140.618 201.535C140.625 201.535 140.625 201.535 140.633 201.535C140.641 201.535 140.641 201.535 140.648 201.535C140.656 201.535 140.656 201.535 140.664 201.535C140.672 201.535 140.672 201.535 140.679 201.535C140.687 201.535 140.687 201.535 140.695 201.535C140.702 201.535 140.702 201.535 140.71 201.535C154.659 203.095 158.637 215.402 157.867 222.79" fill="white"/>
<path d="M344.132 235.47L343.727 236.575C341.721 241.933 341.001 243.104 340.524 243.574C340.455 243.539 340.366 243.497 340.301 243.462C339.912 240.431 346.946 215.464 350.261 209.389C350.392 209.193 350.581 208.939 350.746 208.773C350.827 208.808 350.935 208.858 351.016 208.892C351.085 209.301 351.297 210.537 349.618 217.386C348.043 222.832 346.037 230.131 344.135 235.474" fill="white"/>
<path d="M347.848 130.193C350.943 141.652 350.955 152.217 347.871 150.38C343.593 147.834 336.447 122.393 339.377 115.964C341.764 113.114 345.842 122.77 347.848 130.189" fill="white"/>
<path d="M228.384 329.994C222.074 338.036 204.328 342.038 203.943 333.557C203.747 329.254 209.676 322.209 220.911 320.723C229.104 319.944 232.735 324.447 228.384 329.994Z" fill="white"/>
<path d="M279.402 317.591C272.183 324.186 260.162 331.204 260.332 328.045C260.497 324.991 272.791 312.399 282.278 308.771C286.159 307.63 285.89 309.425 284.985 311.132C284.565 311.921 283.183 314.129 279.383 317.595" fill="white"/>
<path d="M158.049 268.873C156.113 283.071 136.881 285.652 127.787 272.937C120.956 263.385 126.385 249.899 140.519 249.976C150.765 250.624 159.285 259.806 158.049 268.873Z" fill="white"/>
<path d="M158.282 174.192C156.661 188.19 139.431 196.186 129.432 183.818C120.038 172.197 128.177 154.136 142.831 154.082C142.835 154.082 142.839 154.082 142.847 154.082C142.854 154.082 142.854 154.082 142.862 154.082C142.87 154.082 142.87 154.082 142.877 154.082C142.885 154.082 142.885 154.082 142.893 154.082C142.901 154.082 142.901 154.082 142.908 154.082C142.916 154.082 142.916 154.082 142.924 154.082C142.931 154.082 142.931 154.082 142.939 154.082C142.947 154.082 142.947 154.082 142.954 154.082C154.84 155.503 159.137 166.916 158.294 174.185" fill="white"/>
<path d="M228.441 80.7517C231.263 91.5714 222.55 99.2134 213.159 94.1521C200.973 87.5848 200.969 68.4836 210.56 66.134C210.86 66.0608 211.276 66.0108 211.58 65.9607C218.118 65.4022 226.311 72.5897 228.441 80.7517Z" fill="#EA863B"/>
<path d="M278.893 68.4218C285.034 77.2001 284.072 85.493 277.053 84.272C265.421 82.2459 253.944 60.5872 259.685 56.7662C259.881 56.6352 260.17 56.5004 260.393 56.4195C266.01 55.1523 274.901 62.7095 278.897 68.4218" fill="white"/>
<path d="M331.822 262.377C328.33 268.081 323.571 275.635 319.732 281.116C321.134 279.136 326.669 269.981 336.338 253.652C336.627 253.167 336.666 253.105 336.696 253.067L331.822 262.381" fill="white"/>
<path d="M293.626 309.584C287.115 315.439 279.38 321.174 278.402 321.313C278.668 320.196 295.232 304.539 300.637 301.026C301.43 300.579 301.627 300.479 301.842 300.64C301.789 301.761 297.677 305.941 293.626 309.584Z" fill="white"/>
<path d="M329.013 88.014C334.234 96.9232 336.386 105.829 333.202 105.339C328.774 104.662 315.183 82.6291 317.347 76.8976C319.164 74.8446 324.947 81.1231 328.998 88.0409" fill="white"/>
<path d="M195.242 332.631C191.861 340.777 175.802 342.014 172.333 334.391C169.984 329.237 176.164 323.752 184.573 323.521C193.155 323.664 197.017 328.347 195.242 332.627" fill="white"/>
<path d="M158.681 305.047C157.831 314.873 141.679 318.032 133.185 307.428C127.491 300.317 131.333 290.911 143.073 291.03C151.832 291.566 159.274 298.245 158.685 305.047" fill="white"/>
<path d="M293.013 60.7579C299.231 68.0417 300.952 75.3717 296.425 75.2792C287.977 75.1136 272.765 54.5873 275.884 50.7779C275.972 50.67 276.13 50.5622 276.238 50.4697C278.987 48.9637 287.296 54.0596 293.013 60.7579Z" fill="white"/>
<path d="M158.882 127.683C156.823 140.979 141.453 146.048 134.337 135.772C127.372 125.715 135.088 110.049 147.039 109.98C156.803 111.17 159.88 121.247 158.882 127.679" fill="white"/>
<path d="M195.285 83.2994C195.516 87.5595 193.606 95.8178 184.732 96.5843C172.076 96.0412 168.865 78.7312 177.335 71.0776C179.649 68.9861 181.624 68.8089 182.93 68.6934C190.503 69.04 194.981 77.3985 195.3 83.2994" fill="white"/>
<path d="M231.993 343.937C226.58 346.668 216.034 349.969 216.654 348.459C217.228 347.065 226.607 341.341 234.076 339.692C236.444 339.303 237.345 339.608 236.752 340.594C236.24 341.445 234.496 342.666 231.97 343.941" fill="white"/>
<path d="M248.546 338.76C245.378 340.289 241.693 341.853 237.596 343.405L234.501 344.534C233.827 344.765 233.685 344.811 233.419 344.88C233.561 344.649 250.021 336.125 254.376 334.554C255.508 334.176 255.639 334.276 255.742 334.353C255.565 335.174 251.138 337.508 248.546 338.76Z" fill="white"/>
<path d="M109.894 219.795C108.058 232.671 93.8852 235.637 86.2002 224.748C79.0465 214.61 83.6514 199.322 96.5111 200.316C104.947 201.541 111.2 210.643 109.891 219.795" fill="#ED893D"/>
<path d="M230.874 40.4387C235.833 46.4591 235.756 52.0635 230.72 51.7553C221.865 51.2084 211.696 35.0384 215.747 31.9686C215.962 31.8029 216.32 31.6912 216.582 31.6103C219.747 31.0711 226.693 35.362 230.87 40.4387" fill="white"/>
<path d="M211.367 347.487C206.566 350.676 195.854 352.895 196.155 350.01C196.339 348.234 201.241 344.401 208.695 343.477C214.312 343.076 213.869 345.122 212.849 346.262C212.595 346.547 212.021 347.048 211.367 347.487Z" fill="white"/>
<path d="M344.974 114.655C346.795 120.68 349.198 128.73 350.665 134.85C349.871 131.457 344.458 113.947 341.89 106.459C341.836 106.309 341.767 106.108 341.709 105.958L344.974 114.655Z" fill="white"/>
<path d="M111.721 265.289C111.663 276.567 98.5337 277.765 90.8333 269.711C83.0443 261.56 84.6922 248.268 95.9733 248.672C96.3699 248.688 96.8974 248.753 97.294 248.784C107.932 250.756 111.748 259.734 111.717 265.289" fill="white"/>
<path d="M246.969 36.1739C253.268 41.8284 253.984 46.0538 250.703 46.4544C244.135 47.2517 228.888 31.6365 230.802 28.5858C230.913 28.4048 231.179 28.2584 231.364 28.1583C234.579 27.4765 242.017 31.7597 246.945 36.1855" fill="white"/>
<path d="M112.058 170.856C111.823 172.178 109.44 183.737 97.8389 182.862C97.8389 182.862 97.8351 182.862 97.8312 182.862C97.8274 182.862 97.8274 182.862 97.8235 182.862C97.8197 182.862 97.8197 182.862 97.8158 182.862C97.812 182.862 97.812 182.862 97.8081 182.862C97.8043 182.862 97.8043 182.862 97.8004 182.862C97.7966 182.862 97.7966 182.862 97.7927 182.862C97.7889 182.862 97.7889 182.862 97.785 182.862C97.7812 182.862 97.7812 182.862 97.7773 182.862C83.8819 180.135 84.3979 161.874 93.1147 155.499C96.6415 152.918 99.9258 153.173 101.504 153.292C101.504 153.292 101.508 153.292 101.512 153.292C101.516 153.292 101.516 153.292 101.52 153.292C101.524 153.292 101.524 153.292 101.527 153.292C101.531 153.292 101.531 153.292 101.535 153.292C101.539 153.292 101.539 153.292 101.543 153.292C101.547 153.292 101.547 153.292 101.551 153.292C101.554 153.292 101.554 153.292 101.558 153.292C101.562 153.292 101.562 153.292 101.566 153.292C111.215 155.164 113.128 164.821 112.058 170.856Z" fill="white"/>
<path d="M210.892 44.5232C214.576 52.7083 209.286 56.3059 204.135 54.1412C196.253 50.8248 192.996 37.1046 197.963 34.7781C198.278 34.6317 198.744 34.5393 199.087 34.4777C203.107 34.1503 208.632 39.512 210.888 44.5232" fill="white"/>
<path d="M159.996 332.415C160.485 338.775 149.277 340.146 142.616 334.538C137.334 330.093 139.078 324.727 146.008 324.099C146.621 324.045 147.448 324.057 148.065 324.068C154.213 324.43 159.677 328.255 159.996 332.419" fill="white"/>
<path d="M299.232 51.7677C306.028 58.4852 308.781 64.5441 305.955 64.3438C301.477 64.0241 284.825 46.6794 286.373 43.9523C287.813 42.4925 294.304 46.899 299.232 51.7677Z" fill="white"/>
<path d="M160.527 83.3048C158.794 93.3272 148.203 97.8801 143.097 90.7966C137.815 83.4704 144.179 69.9352 152.965 69.8042C159.283 70.6208 161.416 78.1703 160.527 83.3048Z" fill="white"/>
<path d="M257.496 334.486C258.732 333.832 262.49 331.848 267.327 328.958C264.381 330.623 260.492 332.915 257.496 334.486Z" fill="white"/>
<path d="M187.543 349.457C184.917 353.052 174.508 353.294 173.796 349.777C173.469 348.155 175.675 345.736 181.613 345.447C181.613 345.447 181.617 345.447 181.62 345.447C181.624 345.447 181.624 345.447 181.628 345.447C181.632 345.447 181.632 345.447 181.636 345.447C181.64 345.447 181.64 345.447 181.644 345.447C181.647 345.447 181.647 345.447 181.651 345.447C181.655 345.447 181.655 345.447 181.659 345.447C181.663 345.447 181.663 345.447 181.667 345.447C181.671 345.447 181.671 345.447 181.674 345.447C187.092 345.478 188.94 347.551 187.55 349.457" fill="white"/>
<path d="M326.844 77.0674C327.083 77.441 327.395 77.9418 327.629 78.3192L330.309 82.7642C333.058 87.5097 334.544 90.4293 334.606 91.2113C333.462 91.165 321.215 71.1818 320.299 68.6165C320.264 68.4894 320.222 68.3161 320.214 68.1851C321.161 68.1582 326.263 76.1545 326.84 77.0674" fill="white"/>
<path d="M117.191 301.939C118.323 309.847 109.236 310.975 101.982 305.81C94.6632 300.595 92.511 290.842 100.412 289.632C101.574 289.455 102.699 289.559 103.607 289.64C110.257 290.557 116.351 296.076 117.191 301.939Z" fill="white"/>
<path d="M117.801 124.731C114.598 135.597 102.982 137.835 98.6118 130.717C93.8067 122.886 100.498 108.565 110.959 109.328C116.881 110.167 120.015 117.22 117.801 124.727" fill="white"/>
<path d="M256.992 30.6352C263.634 35.3229 265.771 39.1824 263.534 39.7178C259.842 40.5999 240.698 26.8912 242.192 24.4415C242.235 24.376 242.323 24.3144 242.381 24.2605C244.556 23.4747 251.829 26.9914 256.992 30.6352Z" fill="white"/>
<path d="M187.635 46.392C188.486 54.0417 182.553 57.5276 178.037 54.0263C172.073 49.4041 174.117 37.3402 179.48 36.4158C179.65 36.385 179.877 36.3773 180.046 36.3619C183.858 36.3426 187.104 41.6311 187.631 46.392" fill="white"/>
<path d="M297.776 42.9973C301.926 46.7452 306.654 51.9297 306.296 52.7463C304.591 53.0737 290.168 39.2418 289.436 37.3737C289.421 37.2928 289.421 37.1695 289.463 37.1002C290.403 36.9038 294.445 39.9929 297.776 43.0012" fill="white"/>
<path d="M162.569 349.545C163.039 352.23 155.808 352.157 151.822 349.437C149.647 347.95 149.924 346.302 152.446 345.755C153.313 345.566 154.013 345.585 154.757 345.604C158.457 345.82 162.257 347.735 162.573 349.545" fill="white"/>
<path d="M261.896 24.5699C267.691 27.9864 270.802 31.1796 269.708 31.7535C267.876 32.7164 249.468 21.7542 249.814 19.9053C250.819 19.1118 257.134 21.7619 261.896 24.5699Z" fill="white"/>
<path d="M127.338 80.8228C126.799 82.1864 123.788 88.9617 117.277 88.5688C117.277 88.5688 117.273 88.5688 117.27 88.5688C117.266 88.5688 117.266 88.5688 117.262 88.5688C117.258 88.5688 117.258 88.5688 117.254 88.5688C117.25 88.5688 117.25 88.5688 117.246 88.5688C117.243 88.5688 117.243 88.5688 117.239 88.5688C117.235 88.5688 117.235 88.5688 117.231 88.5688C117.227 88.5688 117.227 88.5688 117.223 88.5688C117.219 88.5688 117.219 88.5688 117.216 88.5688C109.292 86.978 112.734 75.438 119.125 71.1278C121.574 69.4754 123.372 69.5948 124.235 69.6526C128.682 70.2881 129.301 75.8348 127.326 80.8306" fill="white"/>
<path d="M126.369 330.267C126.55 330.729 127.986 334.785 122.172 334.215C122.172 334.215 122.168 334.215 122.164 334.215C122.161 334.215 122.161 334.215 122.157 334.215C122.153 334.215 122.153 334.215 122.149 334.215C122.145 334.215 122.145 334.215 122.141 334.215C122.137 334.215 122.137 334.215 122.134 334.215C122.13 334.215 122.13 334.215 122.126 334.215C122.122 334.215 122.122 334.215 122.118 334.215C122.114 334.215 122.114 334.215 122.11 334.215C113.871 332.786 107.707 325.294 111.457 323.06C112.654 322.347 114.26 322.501 115.219 322.594C121.571 323.696 125.425 327.89 126.365 330.274" fill="white"/>
<path d="M188.716 354.383L188.319 354.414C189.937 354.283 191.546 354.052 193.16 353.894C193.649 353.847 194.203 353.793 194.526 353.793C194.507 353.801 194.48 353.809 194.461 353.817C192.74 353.994 190.441 354.24 188.716 354.383Z" fill="white"/>
<path d="M64.9374 211.909C64.7988 213.519 63.7207 221.496 56.286 220.244H56.2783H56.2706H56.2629H56.2552H56.2475H56.2398H56.2321H56.2244C45.9982 217.14 45.617 201.42 51.7081 197.723C53.6794 196.525 55.4235 196.837 56.5786 197.041C61.8842 198.358 65.5611 204.898 64.9528 211.924" fill="white"/>
<path d="M163.211 46.1247C161.683 53.2929 155.511 55.0147 153.139 51.6328C150.398 47.7193 154.402 37.5467 159.888 37.4312C163.585 37.9126 163.9 42.893 163.211 46.1247Z" fill="white"/>
<path d="M201.431 14.3894C205.324 17.317 206.26 19.4242 204.893 19.6938C201.974 20.2755 191.096 10.9339 191.62 9.53945C191.647 9.46626 191.755 9.42003 191.828 9.39306C193.41 9.35069 198.374 12.0896 201.435 14.3894" fill="white"/>
<path d="M68.4426 258.155C68.6467 260.909 67.5609 265.855 61.9858 264.853C61.9858 264.853 61.982 264.853 61.9781 264.853C61.9743 264.853 61.9743 264.853 61.9704 264.853C61.9666 264.853 61.9666 264.853 61.9627 264.853C61.9589 264.853 61.9589 264.853 61.955 264.853C61.9512 264.853 61.9512 264.853 61.9473 264.853C61.9435 264.853 61.9435 264.853 61.9396 264.853C61.9358 264.853 61.9358 264.853 61.9319 264.853C61.9281 264.853 61.9281 264.853 61.9242 264.853C52.5336 261.999 48.7103 248.236 54.5395 245.309C55.9757 244.589 57.3925 244.839 58.2434 244.989C63.1524 246.21 68.0076 252.489 68.4311 258.166" fill="white"/>
<path d="M209.108 11.9586C214.213 14.5393 216.08 16.5692 215.168 16.8851C212.943 17.6593 198.073 9.00811 197.927 7.98353C197.95 7.96427 197.977 7.94116 198 7.9219C199.128 7.80635 204.715 9.74766 209.096 11.9625" fill="white"/>
<path d="M69.0099 164.136C66.8384 172.098 58.4295 175.63 54.3136 168.026C49.9706 160.007 55.6073 148.721 63.3116 150.004C67.9934 151.179 70.7078 157.915 69.0099 164.14" fill="white"/>
<path d="M191.395 16.1422C193.748 19.3819 193.405 21.6046 191.542 21.3542C187.506 20.811 183.082 11.9202 184.279 10.6836C184.341 10.6181 184.468 10.5796 184.557 10.5565C185.789 10.4987 189.497 13.5227 191.395 16.1383" fill="white"/>
<path d="M78.4006 295.32C79.783 299.269 77.6613 301.989 72.8557 299.573C66.044 296.149 61.6659 287.454 65.967 285.89C66.6409 285.644 67.4726 285.636 68.4391 285.859C73.4872 287.327 77.3686 292.373 78.4006 295.32Z" fill="white"/>
<path d="M174.86 354.995C175.915 354.968 176.967 354.852 178.022 354.829C179.708 354.806 180.182 354.891 180.182 354.891C178.584 354.929 176.454 354.983 174.86 354.999" fill="white"/>
<path d="M214.321 9.36984C218.248 10.8451 221.205 12.4205 221.348 13.1254C220.597 14.1268 203.956 7.3669 203.232 6.46558C203.24 6.44632 203.248 6.42321 203.256 6.4078C204.141 6.23447 209.774 7.66734 214.321 9.3737" fill="white"/>
<path d="M79.6796 118.028C76.869 124.68 69.3148 127.731 66.9739 121.564C64.5021 115.047 70.7587 105.764 76.9729 106.734C80.4458 107.613 81.7626 113.101 79.6796 118.028Z" fill="white"/>
<path d="M38.4438 99.5067C33.5281 110.659 19.9663 115.275 15.8721 104.937C15.8716 103.687 27.1221 81.5615 30.8096 78.124C36.8836 79.5963 42.0869 91.2475 38.4438 99.5067Z" fill="#E37D36"/>
<path d="M179.874 16.809C180.528 20.145 178.996 22.1443 177.371 21.2043C174.413 19.4901 174.856 12.2017 176.52 11.647C176.574 11.6278 176.647 11.6162 176.704 11.6162C177.979 11.7664 179.481 14.8251 179.874 16.8128" fill="white"/>
<path d="M138.661 347.651C139.369 348.31 139.704 349.038 138.514 349.111C135.746 349.281 128.002 345.906 129.184 344.55C129.55 344.126 130.632 344.242 131.09 344.288C133.74 344.65 137.271 346.364 138.661 347.655" fill="white"/>
<path d="M260.966 18.3678C264.431 20.1396 268.328 22.6356 268.385 23.3867C267.581 24.0146 253.485 16.7924 252.996 15.4982C252.996 15.4713 252.996 15.4366 252.996 15.4096C253.524 15.0938 257.32 16.5035 260.962 18.3678" fill="white"/>
<path d="M139.949 44.44C137.25 49.0473 132.945 50.2376 132.067 47.5642C131.062 44.5094 136.04 37.4637 139.937 37.6756C142.486 38.265 141.297 42.1364 139.949 44.44Z" fill="white"/>
<path d="M164.632 354.759L162.202 354.616C162.252 354.616 162.479 354.604 163.388 354.651C164.251 354.701 165.109 354.778 165.972 354.82L164.616 354.755" fill="white"/>
<path d="M289.282 34.4519C288.742 34.0043 288.538 33.8384 287.901 33.3213L289.282 34.4519Z" fill="white"/>
<path d="M96.8638 75.1687C94.1992 79.6565 88.7544 82.0488 87.888 78.1503C86.9485 73.9129 92.5858 67.3218 96.6327 67.9305C98.8776 68.516 98.6042 72.2372 96.8599 75.1726" fill="white"/>
<path d="M167.974 16.6373C166.945 19.5957 164.885 20.813 164.265 19.4031C163.407 17.4501 166.187 12.6233 167.812 12.5C168.798 12.7273 168.447 15.2736 167.974 16.6334" fill="white"/>
<path d="M216.267 6.27838C219.893 7.2683 222.966 8.44695 223.116 8.90917C222.142 9.6179 207.915 4.80314 207.873 4.68373C208.347 4.48344 212.74 5.31928 216.27 6.27838" fill="white"/>
<path d="M94.8671 325.061C96.0839 326.791 95.7874 327.827 94.1509 327.58C90.5621 327.041 83.1227 321.043 85.0249 319.448C85.4793 319.067 86.2841 319.225 86.7616 319.317C89.2991 319.949 93.2383 322.738 94.8709 325.061" fill="white"/>
<path d="M28.272 201.944C27.5635 206.74 25.0606 205.9 24.2366 205.627C24.2366 205.627 24.2366 205.627 24.2328 205.627C24.2289 205.627 24.2328 205.627 24.2289 205.627C24.2251 205.627 24.2289 205.627 24.2251 205.627C24.2212 205.627 24.2251 205.627 24.2212 205.627C24.2174 205.627 24.2212 205.627 24.2174 205.627C24.2135 205.627 24.2174 205.627 24.2135 205.627C24.2097 205.627 24.2135 205.627 24.2097 205.627C19.2809 203.138 19.8046 192.726 22.731 191.709C23.4665 191.455 24.2097 191.717 24.6563 191.871C27.8138 193.196 28.6918 199.144 28.2759 201.96" fill="white"/>
<path d="M174.303 0.0369461C174.354 0.0563867 174.416 0.0836034 174.466 0.103044C174.381 0.068051 174.295 0.0369461 174.206 0.00195312C174.233 0.0136175 174.272 0.0291699 174.303 0.0408342" fill="white"/>
<path d="M174.215 0.00457641C174.215 0.00457641 174.234 0.0183056 174.238 0.0228821C174.229 0.0137292 174.215 0.00457641 174.206 0C174.206 0 174.206 0 174.211 0.00457641" fill="white"/>
<path d="M33.0258 247.72C33.5534 253.17 30.2534 251.314 29.3408 250.516C25.5441 247.199 23.769 239.495 26.7763 239.372C27.1306 239.356 27.5156 239.491 27.7967 239.591C31.4471 241.125 32.9527 246.984 33.0258 247.72Z" fill="white"/>
<path d="M174.22 0C174.22 0 174.247 0.00457041 174.256 0.00914082C174.238 0.00914082 174.224 0 174.206 0H174.215" fill="white"/>
<path d="M34.0297 153.562C32.0389 159.082 28.7351 158.812 27.422 156.212C25.2311 151.867 28.2037 144.147 31.7193 145.052C31.8387 145.083 31.9927 145.145 32.1082 145.183C35.5468 146.628 34.3223 152.741 34.0258 153.562" fill="white"/>
<path d="M46.9505 286.286C48.5254 289.522 46.292 288.837 46.2689 288.829C43.8815 288.016 38.8681 281.359 40.5123 280.362C40.7472 280.219 41.1438 280.258 41.6867 280.481C44.5092 281.768 46.3074 284.969 46.9466 286.286" fill="white"/>
<path d="M254.675 12.2807C256.889 13.3208 259.369 14.6075 259.681 14.9542C259.381 15.0774 251.556 11.2869 251.029 10.9093C250.994 10.8824 250.944 10.84 250.917 10.8053C251.194 10.6975 254.229 12.0727 254.675 12.2807Z" fill="white"/>
<path d="M116.217 343.737C117.595 344.515 117.626 344.669 117.642 344.743C117.256 345.263 110.606 342.339 110.452 341.584C110.414 341.395 110.876 341.461 111.126 341.499C112.316 341.877 113.968 342.47 116.217 343.737Z" fill="white"/>
<path d="M216.213 3.38305C217.657 3.67581 220.217 4.24594 221.176 4.78525C220.163 5.02023 210.972 2.92464 210.718 2.65498C211.253 2.38918 216.162 3.37149 216.213 3.38305Z" fill="white"/>
<path d="M48.9082 108.476C46.5439 113.172 43.7368 112.575 43.0553 110.699C42.2775 108.549 44.557 102.17 48.6926 102.424C49.2432 102.933 50.9182 104.478 48.9043 108.476" fill="white"/>
<path d="M156.948 15.6034C155.208 17.5796 154.441 17.541 154.153 17.5256C152.816 17.1674 156.012 13.9932 157.449 13.2073C157.918 12.9492 158.161 12.93 158.327 12.9146C158.492 13.0109 159 13.3036 156.971 15.6072" fill="white"/>
<path d="M119.025 40.4011C115.968 43.8218 114.154 42.982 114.108 42.0806C114.047 40.7979 117.508 36.4834 120.315 36.5566C120.681 36.7376 121.802 37.2924 119.025 40.4011Z" fill="white"/>
<path d="M69.6204 317.461C70.4752 318.401 70.7294 318.856 70.4021 318.852C69.2431 318.832 64.2565 314.618 64.7841 314.106C64.8765 314.017 65.1653 314.125 65.3385 314.191C67.029 314.899 69.347 317.164 69.6166 317.461" fill="white"/>
<path d="M72.454 68.1288C70.2092 70.86 68.4186 70.5249 68.2338 69.4386C67.9989 68.0826 70.7444 63.7874 73.5669 63.9684C74.7952 64.9161 73.3974 66.9809 72.454 68.1288Z" fill="white"/>
<path d="M147.193 13.8249C144.544 15.5122 144.717 14.8034 144.748 14.7187C144.96 14.0753 148.302 12.0144 149.007 12.0915C149.538 12.261 147.22 13.8095 147.193 13.8249Z" fill="white"/>
<path d="M8.68436 234.42C9.05787 235.934 8.99241 236.692 8.51879 236.396C7.37516 235.679 5.61929 230.271 6.49722 230.175C6.57039 230.167 6.6782 230.221 6.79757 230.317C7.78717 231.238 8.40327 233.283 8.68436 234.42Z" fill="white"/>
<path d="M10.0237 140.618C9.10343 143.053 8.49889 142.641 8.2717 142.483C6.83158 140.961 8.68372 136.092 9.68102 136.107C9.81579 136.107 9.91591 136.181 10.0006 136.238C11.0403 137.151 10.2009 140.202 10.0391 140.63" fill="white"/>
<path d="M3.12304 186.856C2.96902 190.184 2.17579 189.675 1.84079 189.302C0.704866 188.034 0.712567 182.545 1.85234 182.699C1.94091 182.711 2.06028 182.772 2.16039 182.849C3.08838 183.766 3.12304 186.825 3.12304 186.852" fill="white"/>
<path d="M213.422 0.41178C214.058 0.508085 216.141 0.83167 216.276 1.02043C215.894 1.18607 210.554 0.32318 210.272 0.172944C210.272 0.161387 210.272 0.145979 210.272 0.138274C210.638 0.0419693 212.856 0.327032 213.418 0.41178" fill="white"/>
<path d="M28.014 97.2401C26.7433 99.3396 25.9385 99.1893 25.7729 98.4112C25.5188 97.2055 27.5288 93.4496 28.7533 94.0813C28.8727 94.3664 29.2308 95.2331 28.014 97.2401Z" fill="#DB7531"/>
<path d="M102.783 35.379C100.346 37.2357 100.034 36.4268 100.072 36.1879C100.211 35.3559 103.141 32.9444 104.219 33.2603C104.951 33.6686 102.806 35.3597 102.787 35.379" fill="white"/>
<path d="M99.0545 338.635C99.7938 339.009 100.006 339.116 100.094 339.174C99.79 339.151 96.0395 337.306 95.8008 337.113C95.8393 337.118 95.9022 337.138 95.9895 337.171C96.8404 337.525 99.0314 338.627 99.0545 338.639" fill="white"/>
<path d="M25.4426 274.593C26.1241 275.814 26.0587 275.914 26.0317 275.96C25.5928 276.029 22.8011 271.881 22.9821 271.43C22.9821 271.422 22.9975 271.411 23.0013 271.407C23.0629 271.403 23.0899 271.415 23.2362 271.53C24.1295 272.331 25.4272 274.57 25.4387 274.589" fill="white"/>
<path d="M207.566 81.2266C209.837 79.1888 212.884 78.214 215.935 78.5732C218.984 78.9327 221.72 80.5884 223.455 83.0977L223.79 83.6104L311.712 227.803L387.519 147.415L374.938 133.679C374.428 133.121 374.697 132.221 375.43 132.034L432.664 117.465C433.435 117.269 434.116 118.008 433.856 118.76L414.528 174.72C414.281 175.436 413.358 175.627 412.846 175.068L401.961 163.184L317.641 252.601C315.502 254.868 312.485 256.077 309.393 255.935L308.774 255.889C305.469 255.543 302.513 253.675 300.782 250.838L212.664 106.322L104.969 214.722C102.834 216.87 99.8939 218.003 96.8877 217.856L96.2852 217.811C93.0721 217.471 90.1852 215.69 88.4375 212.973L90.998 211.325L88.4355 212.972L88.4326 212.969C88.4304 212.965 88.4281 212.959 88.4238 212.952C88.4151 212.939 88.402 212.917 88.3848 212.891C88.3502 212.837 88.2983 212.757 88.2305 212.651C88.0942 212.439 87.8917 212.125 87.6279 211.715C87.1002 210.894 86.3249 209.691 85.3398 208.159C83.3696 205.096 80.556 200.718 77.1787 195.467L74.4854 191.279C68.1234 181.387 60.2668 169.171 52.4111 156.955L49.7812 152.866C41.6721 140.256 33.7413 127.924 27.6465 118.444C24.2705 113.193 21.4579 108.816 19.4893 105.753C18.5939 104.359 17.8732 103.236 17.3535 102.427C16.5795 101.089 29.2688 80.576 29.2959 80.5322C29.3008 80.5378 29.3541 80.5993 29.375 80.624C29.4875 80.7569 29.5954 80.8964 29.6963 81.0371L29.9805 81.458L29.9873 81.4707L99.2061 190.261L207.123 81.6475L207.189 81.583L207.506 81.2832L207.566 81.2266Z" fill="url(#paint2_radial_2253_219095)"/>
<defs>
<radialGradient id="paint0_radial_2253_219095" cx="0" cy="0" r="1" gradientUnits="userSpaceOnUse" gradientTransform="translate(399.128 157) rotate(177.283) scale(432.486 413.402)">
<stop offset="0.0654686" stop-color="#526049"/>
<stop offset="1" stop-color="#48553F"/>
</radialGradient>
<radialGradient id="paint1_radial_2253_219095" cx="0" cy="0" r="1" gradientUnits="userSpaceOnUse" gradientTransform="translate(420.148 -35.0264) rotate(131.796) scale(298.051 370.155)">
<stop stop-color="#28A15A"/>
<stop offset="1" stop-color="white" stop-opacity="0.01"/>
</radialGradient>
<radialGradient id="paint2_radial_2253_219095" cx="0" cy="0" r="1" gradientUnits="userSpaceOnUse" gradientTransform="translate(449.125 125) rotate(-171.806) scale(519.207 516.83)">
<stop offset="0.0751911" stop-color="#F59342"/>
<stop offset="1" stop-color="#DB7531"/>
</radialGradient>
</defs>
</svg>
